<?xml version="1.0" encoding="utf-8"?>
<!-- Generator: Adobe Illustrator 27.2.0, SVG Export Plug-In . SVG Version: 6.00 Build 0)  -->
<svg version="1.1" id="Layer_1" xmlns="http://www.w3.org/2000/svg" xmlns:xlink="http://www.w3.org/1999/xlink" x="0px" y="0px"
	 viewBox="0 0 150 150" style="enable-background:new 0 0 150 150;" xml:space="preserve">
<style type="text/css">
	.st0{fill:#4A3DF4;}
	.st1{fill:#6B57FF;}
	.st2{fill:url(#SVGID_1_);}
	.st3{fill:url(#SVGID_00000056389856233199685000000016453916834514905756_);}
	.st4{fill:url(#SVGID_00000073714574224941246630000012477075078316465830_);}
	.st5{fill:url(#SVGID_00000177464335292700849000000013531054139142482591_);}
</style>
<g>
	<g>
		<path class="st0" d="M47.6,10L3.1,46.9c-2.3,1.9-2.6,5.4-0.7,7.7l58,70c1.9,2.3,5.4,2.6,7.7,0.7l44.4-36.8
			c2.3-1.9,2.6-5.4,0.7-7.7l-58-70C53.4,8.4,49.9,8.1,47.6,10L47.6,10z"/>
		<g>
			<g>
				<g>
					<path id="SVGID_00000140705568011388017710000002589161794901024442_" d="M111.1,86.9l-45.4,37.6c-1.3,1.1-3.3,0.9-4.4-0.4
						L3,53.8c-1.1-1.3-0.9-3.3,0.4-4.4l45.4-37.6c1.3-1.1,3.3-0.9,4.4,0.4l58.2,70.2C112.6,83.7,112.4,85.7,111.1,86.9z"/>
				</g>
			</g>
			<path class="st1" d="M48.9,12.9c1-0.9,2.6-0.7,3.4,0.3l58,70c0.9,1,0.7,2.6-0.3,3.4l-44.4,36.8c-1,0.9-2.6,0.7-3.4-0.3l-58-70
				c-0.9-1-0.7-2.6,0.3-3.4L48.9,12.9 M47,10.5L2.5,47.4c-2.3,1.9-2.6,5.4-0.7,7.7l58,70c1.9,2.3,5.4,2.6,7.7,0.7l44.4-36.8
				c2.3-1.9,2.6-5.4,0.7-7.7l-58-70C52.7,8.9,49.3,8.6,47,10.5L47,10.5z"/>
		</g>
	</g>
	
		<radialGradient id="SVGID_1_" cx="81.1361" cy="-1196.124" r="47.8711" fx="95.4309" fy="-1241.811" gradientTransform="matrix(0.793 -0.6087 -0.6087 -0.793 -731.2054 -858.4705)" gradientUnits="userSpaceOnUse">
		<stop  offset="3.435144e-03" style="stop-color:#FE2857"/>
		<stop  offset="0.4689" style="stop-color:#AF1DF5"/>
		<stop  offset="1" style="stop-color:#6B57FF"/>
	</radialGradient>
	<polygon class="st2" points="86.8,71.7 53.7,97.1 28.3,64 61.4,38.6 57,67.7 	"/>
	<g>
		<path class="st0" d="M83.4,10.7L29.7,32c-2.8,1.1-4.2,4.3-3.1,7.1l33.5,84.5c1.1,2.8,4.3,4.2,7.1,3.1l53.7-21.3
			c2.8-1.1,4.2-4.3,3.1-7.1L90.4,13.8C89.3,11,86.1,9.6,83.4,10.7L83.4,10.7z"/>
		<g>
			<g>
				<g>
					<path id="SVGID_00000012457242044110967770000004510221166198772352_" d="M119.9,103.4l-54.8,21.7c-1.6,0.6-3.5-0.2-4.1-1.8
						L27.4,38.6c-0.6-1.6,0.2-3.5,1.8-4.1L84,12.7c1.6-0.6,3.5,0.2,4.1,1.8l33.6,84.8C122.3,100.9,121.5,102.8,119.9,103.4z"/>
				</g>
			</g>
			<path class="st1" d="M83.7,13.8c1.3-0.5,2.6,0.1,3.1,1.4l33.5,84.5c0.5,1.3-0.1,2.6-1.4,3.1l-53.7,21.3c-1.3,0.5-2.6-0.1-3.1-1.4
				L28.7,38.2c-0.5-1.3,0.1-2.6,1.4-3.1L83.7,13.8 M82.6,11L28.9,32.3c-2.8,1.1-4.2,4.3-3.1,7.1l33.5,84.5c1.1,2.8,4.3,4.2,7.1,3.1
				l53.7-21.3c2.8-1.1,4.2-4.3,3.1-7.1L89.6,14.1C88.5,11.3,85.4,9.9,82.6,11L82.6,11z"/>
		</g>
	</g>
	
		<radialGradient id="SVGID_00000119078080346710316160000001804297995106325128_" cx="97.0153" cy="-1201.615" r="47.8711" fx="111.31" fy="-1247.302" gradientTransform="matrix(0.9325 -0.3602 -0.3602 -0.9325 -437.1982 -1041.8625)" gradientUnits="userSpaceOnUse">
		<stop  offset="3.435144e-03" style="stop-color:#FE2857"/>
		<stop  offset="0.4689" style="stop-color:#AF1DF5"/>
		<stop  offset="1" style="stop-color:#6B57FF"/>
	</radialGradient>
	<polygon style="fill:url(#SVGID_00000119078080346710316160000001804297995106325128_);" points="101.9,80.7 62.9,95.8 47.9,56.9 
		86.8,41.8 74.4,68.5 	"/>
	<g>
		<path class="st0" d="M119.9,23.2l-57.7,2.3c-3,0.1-5.3,2.7-5.2,5.7l3.6,90.8c0.1,3,2.7,5.3,5.7,5.2l57.7-2.3
			c3-0.1,5.3-2.7,5.2-5.7l-3.6-90.8C125.4,25.5,122.9,23.1,119.9,23.2L119.9,23.2z"/>
		<g>
			<g>
				<g>
					<path id="SVGID_00000128485206026392586010000001887823613428728757_" d="M123.7,122.8l-58.9,2.4c-1.7,0.1-3.2-1.3-3.3-3
						L57.8,31c-0.1-1.7,1.3-3.2,3-3.3l58.9-2.4c1.7-0.1,3.2,1.3,3.3,3l3.6,91.2C126.8,121.3,125.4,122.7,123.7,122.8z"/>
				</g>
			</g>
			<path class="st1" d="M119.2,26.3c1.4-0.1,2.5,1,2.5,2.3l3.6,90.8c0.1,1.4-1,2.5-2.3,2.5l-57.7,2.3c-1.4,0.1-2.5-1-2.5-2.3
				l-3.6-90.8c-0.1-1.4,1-2.5,2.3-2.5L119.2,26.3 M119.1,23.3l-57.7,2.3c-3,0.1-5.3,2.7-5.2,5.7l3.6,90.8c0.1,3,2.7,5.3,5.7,5.2
				l57.7-2.3c3-0.1,5.3-2.7,5.2-5.7l-3.6-90.8C124.6,25.5,122.1,23.1,119.1,23.3L119.1,23.3z"/>
		</g>
	</g>
	
		<radialGradient id="SVGID_00000050638859571753798260000006982405341983283844_" cx="114.0599" cy="-1206.2411" r="47.8711" fx="128.3546" fy="-1251.9281" gradientTransform="matrix(0.9992 -3.103952e-02 -3.103952e-02 -0.9992 -39.8193 -1146.4172)" gradientUnits="userSpaceOnUse">
		<stop  offset="3.435144e-03" style="stop-color:#FE2857"/>
		<stop  offset="0.4689" style="stop-color:#AF1DF5"/>
		<stop  offset="1" style="stop-color:#6B57FF"/>
	</radialGradient>
	<polygon style="fill:url(#SVGID_00000050638859571753798260000006982405341983283844_);" points="114.2,95.4 72.5,96.7 71.2,55.1 
		112.9,53.8 92.3,74.8 	"/>
	<g>
		<path class="st0" d="M145.3,42.2L89.2,28.5c-2.9-0.7-5.9,1.1-6.6,4l-21.5,88.3c-0.7,2.9,1.1,5.9,4,6.6l56.1,13.7
			c2.9,0.7,5.9-1.1,6.6-4l21.5-88.3C150,45.9,148.2,42.9,145.3,42.2L145.3,42.2z"/>
		<g>
			<g>
				<g>
					<path id="SVGID_00000114034903637236199170000006039535547485611195_" d="M121.5,139L64.2,125c-1.7-0.4-2.7-2.1-2.3-3.8
						l21.6-88.6c0.4-1.7,2.1-2.7,3.8-2.3l57.3,14c1.7,0.4,2.7,2.1,2.3,3.8l-21.6,88.6C124.9,138.4,123.2,139.4,121.5,139z"/>
				</g>
			</g>
			<path class="st1" d="M143.8,45c1.3,0.3,2.1,1.6,1.8,2.9L124,136.2c-0.3,1.3-1.6,2.1-2.9,1.8L65,124.3c-1.3-0.3-2.1-1.6-1.8-2.9
				l21.5-88.3c0.3-1.3,1.6-2.1,2.9-1.8L143.8,45 M144.5,42L88.4,28.4c-2.9-0.7-5.9,1.1-6.6,4l-21.5,88.3c-0.7,2.9,1.1,5.9,4,6.6
				l56.1,13.7c2.9,0.7,5.9-1.1,6.6-4l21.5-88.3C149.2,45.7,147.4,42.7,144.5,42L144.5,42z"/>
		</g>
	</g>
	
		<radialGradient id="SVGID_00000085938186125576369390000003368831741511833761_" cx="129.2693" cy="-1210.2097" r="47.8711" fx="143.564" fy="-1255.8967" gradientTransform="matrix(0.9711 0.2375 0.2375 -0.9711 290.2444 -1135.3085)" gradientUnits="userSpaceOnUse">
		<stop  offset="3.435144e-03" style="stop-color:#FE2857"/>
		<stop  offset="0.4689" style="stop-color:#AF1DF5"/>
		<stop  offset="1" style="stop-color:#6B57FF"/>
	</radialGradient>
	<polygon style="fill:url(#SVGID_00000085938186125576369390000003368831741511833761_);" points="120.1,109.9 79.6,100 89.5,59.5 
		130,69.4 104.6,84.2 	"/>
</g>
</svg>
