<svg width="161" height="52" viewBox="0 0 161 52" fill="none" xmlns="http://www.w3.org/2000/svg">
<g filter="url(#filter0_b_49_5109)">
<rect width="161" height="52" rx="26" fill="#6B57FF"/>
<path d="M34.5055 19H40.1655C41.0588 19 41.8421 19.1667 42.5155 19.5C43.1955 19.8333 43.7188 20.3067 44.0855 20.92C44.4588 21.5333 44.6455 22.2467 44.6455 23.06C44.6455 23.8733 44.4555 24.59 44.0755 25.21C43.7021 25.8233 43.1721 26.3 42.4855 26.64C41.7988 26.9733 40.9988 27.14 40.0855 27.14H36.1655V33H34.5055V19ZM40.1655 25.59C40.7121 25.59 41.1888 25.4867 41.5955 25.28C42.0088 25.0733 42.3255 24.78 42.5455 24.4C42.7721 24.02 42.8855 23.5733 42.8855 23.06C42.8855 22.5533 42.7721 22.11 42.5455 21.73C42.3255 21.35 42.0088 21.06 41.5955 20.86C41.1888 20.6533 40.7121 20.55 40.1655 20.55H36.1655V25.59H40.1655ZM46.8789 19H48.4789V33H46.8789V19ZM55.5866 22.52C56.3599 22.52 57.0399 22.6633 57.6266 22.95C58.2132 23.23 58.6666 23.6433 58.9866 24.19C59.3132 24.73 59.4766 25.3733 59.4766 26.12V33H57.9166V31.33C57.6299 31.95 57.2099 32.4233 56.6566 32.75C56.1032 33.0767 55.4466 33.24 54.6866 33.24C54.0332 33.24 53.4432 33.1133 52.9166 32.86C52.3899 32.6067 51.9766 32.2567 51.6766 31.81C51.3766 31.3633 51.2266 30.8567 51.2266 30.29C51.2266 29.7567 51.3632 29.2667 51.6366 28.82C51.9166 28.3667 52.2999 27.9967 52.7866 27.71C53.2799 27.4233 53.8332 27.2467 54.4466 27.18L57.1766 26.88C57.4032 26.8533 57.5799 26.76 57.7066 26.6C57.8332 26.44 57.8966 26.2067 57.8966 25.9C57.8966 25.4933 57.7999 25.1367 57.6066 24.83C57.4132 24.5233 57.1399 24.2867 56.7866 24.12C56.4399 23.9467 56.0366 23.86 55.5766 23.86C55.1166 23.86 54.7032 23.94 54.3366 24.1C53.9699 24.2533 53.6732 24.4633 53.4466 24.73C53.2266 24.99 53.0932 25.2733 53.0466 25.58H51.4466C51.5266 25 51.7532 24.48 52.1266 24.02C52.5066 23.5533 52.9966 23.1867 53.5966 22.92C54.1966 22.6533 54.8599 22.52 55.5866 22.52ZM52.8866 30.2C52.8866 30.5467 52.9766 30.8533 53.1566 31.12C53.3432 31.3867 53.5999 31.5967 53.9266 31.75C54.2532 31.8967 54.6266 31.97 55.0466 31.97C55.6199 31.97 56.1199 31.8533 56.5466 31.62C56.9799 31.3867 57.3132 31.06 57.5466 30.64C57.7799 30.2133 57.8966 29.7233 57.8966 29.17V28L54.6666 28.36C54.1332 28.42 53.7032 28.62 53.3766 28.96C53.0499 29.3 52.8866 29.7133 52.8866 30.2ZM62.042 34.78H63.312C63.612 34.78 63.8787 34.6967 64.112 34.53C64.3454 34.3633 64.5254 34.1467 64.652 33.88L65.302 32.51L61.252 22.76H62.952L66.112 30.47L69.012 22.76H70.692L66.252 33.98C65.972 34.6933 65.6087 35.24 65.162 35.62C64.7154 36.0067 64.1154 36.2 63.362 36.2H62.042V34.78ZM81.4381 36.44C80.6915 36.44 80.0015 36.3233 79.3681 36.09C78.7348 35.8567 78.2081 35.5267 77.7881 35.1C77.3681 34.6733 77.0981 34.18 76.9781 33.62H78.5781C78.7915 34.08 79.1548 34.43 79.6681 34.67C80.1881 34.9167 80.7615 35.04 81.3881 35.04C82.0415 35.04 82.6115 34.9067 83.0981 34.64C83.5915 34.38 83.9715 34.0133 84.2381 33.54C84.5048 33.0667 84.6381 32.52 84.6381 31.9V31.48L84.6681 30.45C84.2681 31.0167 83.7581 31.4567 83.1381 31.77C82.5248 32.0833 81.8481 32.24 81.1081 32.24C80.2415 32.24 79.4581 32.0333 78.7581 31.62C78.0581 31.2 77.5081 30.6233 77.1081 29.89C76.7081 29.15 76.5081 28.3167 76.5081 27.39C76.5081 26.4633 76.7081 25.63 77.1081 24.89C77.5081 24.15 78.0581 23.57 78.7581 23.15C79.4581 22.73 80.2415 22.52 81.1081 22.52C81.8615 22.52 82.5515 22.6867 83.1781 23.02C83.8048 23.3467 84.3181 23.8067 84.7181 24.4V22.76H86.2681L86.2381 31.9C86.2381 32.7867 86.0381 33.5733 85.6381 34.26C85.2381 34.9533 84.6748 35.49 83.9481 35.87C83.2215 36.25 82.3848 36.44 81.4381 36.44ZM78.1881 27.39C78.1881 28.0367 78.3248 28.6233 78.5981 29.15C78.8781 29.6767 79.2648 30.09 79.7581 30.39C80.2515 30.69 80.8048 30.84 81.4181 30.84C82.0248 30.84 82.5715 30.69 83.0581 30.39C83.5515 30.09 83.9415 29.6767 84.2281 29.15C84.5148 28.6233 84.6581 28.0367 84.6581 27.39C84.6581 26.7367 84.5148 26.1467 84.2281 25.62C83.9415 25.0933 83.5515 24.68 83.0581 24.38C82.5715 24.0733 82.0248 23.92 81.4181 23.92C80.8048 23.92 80.2515 24.0733 79.7581 24.38C79.2648 24.68 78.8781 25.0933 78.5981 25.62C78.3248 26.1467 78.1881 26.7367 78.1881 27.39ZM93.36 22.52C94.1333 22.52 94.8133 22.6633 95.4 22.95C95.9867 23.23 96.44 23.6433 96.76 24.19C97.0867 24.73 97.25 25.3733 97.25 26.12V33H95.69V31.33C95.4033 31.95 94.9833 32.4233 94.43 32.75C93.8767 33.0767 93.22 33.24 92.46 33.24C91.8067 33.24 91.2167 33.1133 90.69 32.86C90.1633 32.6067 89.75 32.2567 89.45 31.81C89.15 31.3633 89 30.8567 89 30.29C89 29.7567 89.1367 29.2667 89.41 28.82C89.69 28.3667 90.0733 27.9967 90.56 27.71C91.0533 27.4233 91.6067 27.2467 92.22 27.18L94.95 26.88C95.1767 26.8533 95.3533 26.76 95.48 26.6C95.6067 26.44 95.67 26.2067 95.67 25.9C95.67 25.4933 95.5733 25.1367 95.38 24.83C95.1867 24.5233 94.9133 24.2867 94.56 24.12C94.2133 23.9467 93.81 23.86 93.35 23.86C92.89 23.86 92.4767 23.94 92.11 24.1C91.7433 24.2533 91.4467 24.4633 91.22 24.73C91 24.99 90.8667 25.2733 90.82 25.58H89.22C89.3 25 89.5267 24.48 89.9 24.02C90.28 23.5533 90.77 23.1867 91.37 22.92C91.97 22.6533 92.6333 22.52 93.36 22.52ZM90.66 30.2C90.66 30.5467 90.75 30.8533 90.93 31.12C91.1167 31.3867 91.3733 31.5967 91.7 31.75C92.0267 31.8967 92.4 31.97 92.82 31.97C93.3933 31.97 93.8933 31.8533 94.32 31.62C94.7533 31.3867 95.0867 31.06 95.32 30.64C95.5533 30.2133 95.67 29.7233 95.67 29.17V28L92.44 28.36C91.9067 28.42 91.4767 28.62 91.15 28.96C90.8233 29.3 90.66 29.7133 90.66 30.2ZM100.453 22.76H101.993V24.49C102.3 23.8567 102.723 23.37 103.263 23.03C103.81 22.69 104.45 22.52 105.183 22.52C105.95 22.52 106.616 22.7033 107.183 23.07C107.75 23.4367 108.173 23.9533 108.453 24.62C108.78 23.9533 109.236 23.4367 109.823 23.07C110.41 22.7033 111.086 22.52 111.853 22.52C112.58 22.52 113.223 22.6867 113.783 23.02C114.35 23.3467 114.79 23.8133 115.103 24.42C115.416 25.0267 115.573 25.7333 115.573 26.54V33H113.973V26.61C113.973 25.7633 113.76 25.0967 113.333 24.61C112.913 24.1233 112.32 23.88 111.553 23.88C111.006 23.88 110.526 24.0067 110.113 24.26C109.7 24.5067 109.38 24.86 109.153 25.32C108.926 25.7733 108.813 26.31 108.813 26.93V33H107.213V26.61C107.213 25.7633 107 25.0967 106.573 24.61C106.153 24.1233 105.56 23.88 104.793 23.88C104.24 23.88 103.756 24.0033 103.343 24.25C102.93 24.4967 102.61 24.85 102.383 25.31C102.163 25.77 102.053 26.31 102.053 26.93V33H100.453V22.76ZM122.933 33.24C121.973 33.24 121.11 33.01 120.343 32.55C119.577 32.09 118.977 31.4533 118.543 30.64C118.117 29.82 117.903 28.8933 117.903 27.86C117.903 26.8533 118.12 25.9433 118.553 25.13C118.993 24.3167 119.597 23.68 120.363 23.22C121.13 22.7533 121.987 22.52 122.933 22.52C123.9 22.52 124.747 22.75 125.473 23.21C126.207 23.67 126.77 24.3067 127.163 25.12C127.563 25.9333 127.763 26.8533 127.763 27.88V28.27H119.533C119.6 28.97 119.79 29.59 120.103 30.13C120.417 30.67 120.827 31.09 121.333 31.39C121.84 31.69 122.407 31.84 123.033 31.84C123.707 31.84 124.3 31.7167 124.813 31.47C125.327 31.2233 125.7 30.8867 125.933 30.46H127.533C127.413 30.8867 127.16 31.3133 126.773 31.74C126.393 32.1667 125.873 32.5233 125.213 32.81C124.56 33.0967 123.8 33.24 122.933 33.24ZM126.103 26.95C125.97 26.0167 125.63 25.28 125.083 24.74C124.543 24.2 123.833 23.93 122.953 23.93C122.36 23.93 121.827 24.0533 121.353 24.3C120.88 24.54 120.49 24.89 120.183 25.35C119.877 25.8033 119.673 26.3367 119.573 26.95H126.103Z" fill="white"/>
</g>
<defs>
<filter id="filter0_b_49_5109" x="-8" y="-8" width="177" height="68" filterUnits="userSpaceOnUse" color-interpolation-filters="sRGB">
<feFlood flood-opacity="0" result="BackgroundImageFix"/>
<feGaussianBlur in="BackgroundImageFix" stdDeviation="4"/>
<feComposite in2="SourceAlpha" operator="in" result="effect1_backgroundBlur_49_5109"/>
<feBlend mode="normal" in="SourceGraphic" in2="effect1_backgroundBlur_49_5109" result="shape"/>
</filter>
</defs>
</svg>
