<svg width="200" height="100" viewBox="0 0 200 100" fill="none" xmlns="http://www.w3.org/2000/svg">
<rect width="200" height="100" rx="4" fill="#CDCDCD"/>
<path d="M62 80.6297C62 59.8397 78.85 42.9897 99.64 42.9897C120.43 42.9897 137.28 59.8397 137.28 80.6297H62Z" fill="#7D7D7D"/>
<path d="M118.33 54.5699C117.68 54.5699 117.07 54.6899 116.49 54.8899C113.46 48.5599 106.99 44.1899 99.51 44.1899C92.03 44.1899 85.56 48.5599 82.53 54.8899C81.95 54.6899 81.34 54.5699 80.69 54.5699C77.66 54.5699 75.2 57.0299 75.2 60.0599C75.2 63.0899 77.66 65.5499 80.69 65.5499C80.75 65.5499 80.81 65.5499 80.86 65.5499C82.1 74.7499 89.97 81.8399 99.51 81.8399C109.05 81.8399 116.92 74.7499 118.16 65.5499C118.22 65.5499 118.28 65.5499 118.33 65.5499C121.36 65.5499 123.82 63.0899 123.82 60.0599C123.82 57.0299 121.36 54.5699 118.33 54.5699Z" fill="white"/>
<path d="M99.51 44.1898C109.904 44.1898 118.33 35.7638 118.33 25.3698C118.33 14.9758 109.904 6.5498 99.51 6.5498C89.116 6.5498 80.69 14.9758 80.69 25.3698C80.69 35.7638 89.116 44.1898 99.51 44.1898Z" fill="#7D7D7D"/>
<path d="M104.58 62.29V65.1C104.58 65.81 105.16 66.39 105.87 66.39C106.58 66.39 107.16 65.81 107.16 65.1V62.29C107.16 61.58 106.58 61 105.87 61C105.16 61 104.58 61.58 104.58 62.29Z" fill="black"/>
<path d="M93.21 62.29V65.1C93.21 65.81 93.79 66.39 94.5 66.39C95.21 66.39 95.79 65.81 95.79 65.1V62.29C95.79 61.58 95.21 61 94.5 61C93.79 61 93.21 61.58 93.21 62.29Z" fill="black"/>
<path d="M116.5 53.6897C113.47 47.3597 107 42.9897 99.52 42.9897C92.04 42.9897 85.57 47.3597 82.54 53.6897H116.51H116.5Z" fill="#7D7D7D"/>
</svg>
