<svg width="200" height="100" viewBox="0 0 200 100" fill="none" xmlns="http://www.w3.org/2000/svg">
<rect width="200" height="100" rx="4" fill="#A12DEC"/>
<path d="M120.05 54.2499C119.38 54.2499 118.73 54.3699 118.13 54.5899C114.96 47.9799 108.21 43.4099 100.39 43.4099C92.57 43.4099 85.82 47.9799 82.65 54.5899C82.05 54.3799 81.4 54.2499 80.73 54.2499C77.56 54.2499 75 56.8199 75 59.9799C75 63.1399 77.57 65.7099 80.73 65.7099C80.79 65.7099 80.85 65.7099 80.91 65.7099C82.2 75.3199 90.43 82.7299 100.39 82.7299C110.35 82.7299 118.58 75.3199 119.87 65.7099C119.93 65.7099 119.99 65.7099 120.05 65.7099C123.22 65.7099 125.78 63.1399 125.78 59.9799C125.78 56.8199 123.21 54.2499 120.05 54.2499Z" fill="white"/>
<path d="M104.98 60.1498V63.0898C104.98 63.8298 105.59 64.4398 106.33 64.4398C107.07 64.4398 107.68 63.8398 107.68 63.0898V60.1498C107.68 59.4098 107.07 58.7998 106.33 58.7998C105.59 58.7998 104.98 59.3998 104.98 60.1498Z" fill="black"/>
<path d="M93.11 60.1498V63.0898C93.11 63.8298 93.72 64.4398 94.46 64.4398C95.2 64.4398 95.81 63.8398 95.81 63.0898V60.1498C95.81 59.4098 95.2 58.7998 94.46 58.7998C93.72 58.7998 93.11 59.3998 93.11 60.1498Z" fill="black"/>
<path d="M113.35 48.2799C109.88 45.2499 105.35 43.3999 100.39 43.3999C95.43 43.3999 90.89 45.2399 87.42 48.2799H113.35Z" fill="#FF008B"/>
<path d="M101.17 43.23C106.616 43.23 111.03 38.8155 111.03 33.37C111.03 27.9245 106.616 23.51 101.17 23.51C95.7245 23.51 91.31 27.9245 91.31 33.37C91.31 38.8155 95.7245 43.23 101.17 43.23Z" fill="#FF008B"/>
<path d="M116.77 31.72C122.216 31.72 126.63 27.3055 126.63 21.86C126.63 16.4145 122.216 12 116.77 12C111.324 12 106.91 16.4145 106.91 21.86C106.91 27.3055 111.324 31.72 116.77 31.72Z" fill="#FF008B"/>
<path d="M132.48 43.23C137.926 43.23 142.34 38.8155 142.34 33.37C142.34 27.9245 137.926 23.51 132.48 23.51C127.034 23.51 122.62 27.9245 122.62 33.37C122.62 38.8155 127.034 43.23 132.48 43.23Z" fill="#FF008B"/>
</svg>
