<svg width="179" height="52" viewBox="0 0 179 52" fill="none" xmlns="http://www.w3.org/2000/svg">
<g filter="url(#filter0_b_13_4944)">
<rect width="179" height="52" rx="26" fill="#6B57FF"/>
<path d="M34.5895 19H43.5695V20.56H36.2495V25.39H43.1695V26.95H36.2495V33H34.5895V19ZM46.2988 22.76H47.8988V33H46.2988V22.76ZM48.0388 19V20.9H46.1588V19H48.0388ZM51.3965 22.76H52.9365V24.42C53.2832 23.8067 53.7432 23.3367 54.3165 23.01C54.8965 22.6833 55.5665 22.52 56.3265 22.52C57.0598 22.52 57.7098 22.6767 58.2765 22.99C58.8432 23.3033 59.2865 23.7667 59.6065 24.38C59.9332 24.9867 60.0965 25.7167 60.0965 26.57V33H58.4965V26.73C58.4965 25.8433 58.2665 25.1533 57.8065 24.66C57.3465 24.1667 56.7132 23.92 55.9065 23.92C55.3332 23.92 54.8265 24.0467 54.3865 24.3C53.9465 24.5533 53.6032 24.91 53.3565 25.37C53.1165 25.8233 52.9965 26.3433 52.9965 26.93V33H51.3965V22.76ZM63.291 22.76H64.891V33H63.291V22.76ZM65.031 19V20.9H63.151V19H65.031ZM71.7687 33.24C70.9953 33.24 70.2953 33.1167 69.6687 32.87C69.0487 32.6233 68.552 32.28 68.1787 31.84C67.812 31.3933 67.6153 30.89 67.5887 30.33H69.2187C69.2453 30.6367 69.372 30.9133 69.5987 31.16C69.8253 31.4 70.1253 31.59 70.4987 31.73C70.872 31.87 71.2887 31.94 71.7487 31.94C72.2153 31.94 72.6253 31.8633 72.9787 31.71C73.3387 31.5567 73.6153 31.3433 73.8087 31.07C74.0087 30.7967 74.1087 30.4867 74.1087 30.14C74.1087 29.7667 74.002 29.4533 73.7887 29.2C73.582 28.94 73.292 28.7767 72.9187 28.71L70.4487 28.26C69.662 28.1133 69.0487 27.7967 68.6087 27.31C68.1687 26.8167 67.9487 26.1933 67.9487 25.44C67.9487 24.9 68.102 24.41 68.4087 23.97C68.722 23.5233 69.1587 23.17 69.7187 22.91C70.2787 22.65 70.9187 22.52 71.6387 22.52C72.352 22.52 72.9953 22.6367 73.5687 22.87C74.142 23.1033 74.5987 23.4267 74.9387 23.84C75.2787 24.2533 75.462 24.7133 75.4887 25.22H73.8587C73.8387 24.9533 73.7287 24.7133 73.5287 24.5C73.3353 24.2867 73.0753 24.12 72.7487 24C72.422 23.88 72.0553 23.82 71.6487 23.82C71.2353 23.82 70.8687 23.89 70.5487 24.03C70.2287 24.17 69.9787 24.3633 69.7987 24.61C69.6253 24.85 69.5387 25.1233 69.5387 25.43C69.5387 25.7767 69.6353 26.0633 69.8287 26.29C70.022 26.5167 70.3053 26.6633 70.6787 26.73L73.2087 27.18C73.7287 27.2733 74.1753 27.4567 74.5487 27.73C74.9287 28.0033 75.2153 28.3433 75.4087 28.75C75.6087 29.1567 75.7087 29.6 75.7087 30.08C75.7087 30.68 75.5353 31.22 75.1887 31.7C74.8487 32.18 74.3787 32.5567 73.7787 32.83C73.1787 33.1033 72.5087 33.24 71.7687 33.24ZM78.4082 19H79.9482V24.42C80.2949 23.8067 80.7549 23.3367 81.3282 23.01C81.9082 22.6833 82.5782 22.52 83.3382 22.52C84.0715 22.52 84.7215 22.6767 85.2882 22.99C85.8549 23.3033 86.2982 23.7667 86.6182 24.38C86.9449 24.9867 87.1082 25.7167 87.1082 26.57V33H85.5082V26.73C85.5082 25.8433 85.2782 25.1533 84.8182 24.66C84.3582 24.1667 83.7249 23.92 82.9182 23.92C82.3449 23.92 81.8382 24.0467 81.3982 24.3C80.9582 24.5533 80.6149 24.91 80.3682 25.37C80.1282 25.8233 80.0082 26.3433 80.0082 26.93V33H78.4082V19ZM99.3541 36.44C98.6075 36.44 97.9175 36.3233 97.2841 36.09C96.6508 35.8567 96.1241 35.5267 95.7041 35.1C95.2841 34.6733 95.0141 34.18 94.8941 33.62H96.4941C96.7075 34.08 97.0708 34.43 97.5841 34.67C98.1041 34.9167 98.6775 35.04 99.3041 35.04C99.9575 35.04 100.527 34.9067 101.014 34.64C101.507 34.38 101.887 34.0133 102.154 33.54C102.421 33.0667 102.554 32.52 102.554 31.9V31.48L102.584 30.45C102.184 31.0167 101.674 31.4567 101.054 31.77C100.441 32.0833 99.7641 32.24 99.0241 32.24C98.1575 32.24 97.3741 32.0333 96.6741 31.62C95.9741 31.2 95.4241 30.6233 95.0241 29.89C94.6241 29.15 94.4241 28.3167 94.4241 27.39C94.4241 26.4633 94.6241 25.63 95.0241 24.89C95.4241 24.15 95.9741 23.57 96.6741 23.15C97.3741 22.73 98.1575 22.52 99.0241 22.52C99.7775 22.52 100.467 22.6867 101.094 23.02C101.721 23.3467 102.234 23.8067 102.634 24.4V22.76H104.184L104.154 31.9C104.154 32.7867 103.954 33.5733 103.554 34.26C103.154 34.9533 102.591 35.49 101.864 35.87C101.137 36.25 100.301 36.44 99.3541 36.44ZM96.1041 27.39C96.1041 28.0367 96.2408 28.6233 96.5141 29.15C96.7941 29.6767 97.1808 30.09 97.6741 30.39C98.1675 30.69 98.7208 30.84 99.3341 30.84C99.9408 30.84 100.487 30.69 100.974 30.39C101.467 30.09 101.857 29.6767 102.144 29.15C102.431 28.6233 102.574 28.0367 102.574 27.39C102.574 26.7367 102.431 26.1467 102.144 25.62C101.857 25.0933 101.467 24.68 100.974 24.38C100.487 24.0733 99.9408 23.92 99.3341 23.92C98.7208 23.92 98.1675 24.0733 97.6741 24.38C97.1808 24.68 96.7941 25.0933 96.5141 25.62C96.2408 26.1467 96.1041 26.7367 96.1041 27.39ZM111.276 22.52C112.049 22.52 112.729 22.6633 113.316 22.95C113.903 23.23 114.356 23.6433 114.676 24.19C115.003 24.73 115.166 25.3733 115.166 26.12V33H113.606V31.33C113.319 31.95 112.899 32.4233 112.346 32.75C111.793 33.0767 111.136 33.24 110.376 33.24C109.723 33.24 109.133 33.1133 108.606 32.86C108.079 32.6067 107.666 32.2567 107.366 31.81C107.066 31.3633 106.916 30.8567 106.916 30.29C106.916 29.7567 107.053 29.2667 107.326 28.82C107.606 28.3667 107.989 27.9967 108.476 27.71C108.969 27.4233 109.523 27.2467 110.136 27.18L112.866 26.88C113.093 26.8533 113.269 26.76 113.396 26.6C113.523 26.44 113.586 26.2067 113.586 25.9C113.586 25.4933 113.489 25.1367 113.296 24.83C113.103 24.5233 112.829 24.2867 112.476 24.12C112.129 23.9467 111.726 23.86 111.266 23.86C110.806 23.86 110.393 23.94 110.026 24.1C109.659 24.2533 109.363 24.4633 109.136 24.73C108.916 24.99 108.783 25.2733 108.736 25.58H107.136C107.216 25 107.443 24.48 107.816 24.02C108.196 23.5533 108.686 23.1867 109.286 22.92C109.886 22.6533 110.549 22.52 111.276 22.52ZM108.576 30.2C108.576 30.5467 108.666 30.8533 108.846 31.12C109.033 31.3867 109.289 31.5967 109.616 31.75C109.943 31.8967 110.316 31.97 110.736 31.97C111.309 31.97 111.809 31.8533 112.236 31.62C112.669 31.3867 113.003 31.06 113.236 30.64C113.469 30.2133 113.586 29.7233 113.586 29.17V28L110.356 28.36C109.823 28.42 109.393 28.62 109.066 28.96C108.739 29.3 108.576 29.7133 108.576 30.2ZM118.369 22.76H119.909V24.49C120.216 23.8567 120.639 23.37 121.179 23.03C121.726 22.69 122.366 22.52 123.099 22.52C123.866 22.52 124.532 22.7033 125.099 23.07C125.666 23.4367 126.089 23.9533 126.369 24.62C126.696 23.9533 127.152 23.4367 127.739 23.07C128.326 22.7033 129.002 22.52 129.769 22.52C130.496 22.52 131.139 22.6867 131.699 23.02C132.266 23.3467 132.706 23.8133 133.019 24.42C133.332 25.0267 133.489 25.7333 133.489 26.54V33H131.889V26.61C131.889 25.7633 131.676 25.0967 131.249 24.61C130.829 24.1233 130.236 23.88 129.469 23.88C128.922 23.88 128.442 24.0067 128.029 24.26C127.616 24.5067 127.296 24.86 127.069 25.32C126.842 25.7733 126.729 26.31 126.729 26.93V33H125.129V26.61C125.129 25.7633 124.916 25.0967 124.489 24.61C124.069 24.1233 123.476 23.88 122.709 23.88C122.156 23.88 121.672 24.0033 121.259 24.25C120.846 24.4967 120.526 24.85 120.299 25.31C120.079 25.77 119.969 26.31 119.969 26.93V33H118.369V22.76ZM140.849 33.24C139.889 33.24 139.026 33.01 138.259 32.55C137.493 32.09 136.893 31.4533 136.459 30.64C136.033 29.82 135.819 28.8933 135.819 27.86C135.819 26.8533 136.036 25.9433 136.469 25.13C136.909 24.3167 137.513 23.68 138.279 23.22C139.046 22.7533 139.903 22.52 140.849 22.52C141.816 22.52 142.663 22.75 143.389 23.21C144.123 23.67 144.686 24.3067 145.079 25.12C145.479 25.9333 145.679 26.8533 145.679 27.88V28.27H137.449C137.516 28.97 137.706 29.59 138.019 30.13C138.333 30.67 138.743 31.09 139.249 31.39C139.756 31.69 140.323 31.84 140.949 31.84C141.623 31.84 142.216 31.7167 142.729 31.47C143.243 31.2233 143.616 30.8867 143.849 30.46H145.449C145.329 30.8867 145.076 31.3133 144.689 31.74C144.309 32.1667 143.789 32.5233 143.129 32.81C142.476 33.0967 141.716 33.24 140.849 33.24ZM144.019 26.95C143.886 26.0167 143.546 25.28 142.999 24.74C142.459 24.2 141.749 23.93 140.869 23.93C140.276 23.93 139.743 24.0533 139.269 24.3C138.796 24.54 138.406 24.89 138.099 25.35C137.793 25.8033 137.589 26.3367 137.489 26.95H144.019Z" fill="white"/>
</g>
<defs>
<filter id="filter0_b_13_4944" x="-8" y="-8" width="195" height="68" filterUnits="userSpaceOnUse" color-interpolation-filters="sRGB">
<feFlood flood-opacity="0" result="BackgroundImageFix"/>
<feGaussianBlur in="BackgroundImageFix" stdDeviation="4"/>
<feComposite in2="SourceAlpha" operator="in" result="effect1_backgroundBlur_13_4944"/>
<feBlend mode="normal" in="SourceGraphic" in2="effect1_backgroundBlur_13_4944" result="shape"/>
</filter>
</defs>
</svg>
