<svg width="177" height="170" viewBox="0 0 177 170" fill="none" xmlns="http://www.w3.org/2000/svg">
<g clip-path="url(#clip0_1_81)">
<path d="M50.7172 94.1057H15.8684C17.3329 98.5888 19.963 102.385 20.3615 107.206C20.7401 111.739 19.5047 116.222 17.2233 120.128C11.0565 130.708 17.2233 142.304 17.2233 142.304H52.0821C52.0821 142.304 45.9153 130.708 52.0821 120.128C54.3635 116.222 55.5989 111.739 55.2203 107.206C54.8218 102.385 52.1817 98.5888 50.7272 94.1057H50.7172Z" fill="#AF1DF5"/>
<path d="M53.6562 141.627C52.9887 141.627 52.3411 141.746 51.7434 141.966C48.5853 135.38 41.8606 130.828 34.0699 130.828C26.2792 130.828 19.5546 135.38 16.3964 141.966C15.7987 141.756 15.1511 141.627 14.4836 141.627C11.3255 141.627 8.77513 144.187 8.77513 147.335C8.77513 150.493 11.3355 153.044 14.4836 153.044C14.5434 153.044 14.6032 153.044 14.663 153.044C15.9481 162.618 24.1473 170 34.0699 170C43.9925 170 52.1917 162.618 53.4768 153.044C53.5366 153.044 53.5964 153.044 53.6562 153.044C56.8143 153.044 59.3647 150.484 59.3647 147.335C59.3647 144.187 56.8043 141.627 53.6562 141.627Z" fill="white"/>
<path d="M38.6427 147.515V150.444C38.6427 151.181 39.2504 151.789 39.9876 151.789C40.7249 151.789 41.3326 151.191 41.3326 150.444V147.515C41.3326 146.777 40.7249 146.17 39.9876 146.17C39.2504 146.17 38.6427 146.767 38.6427 147.515Z" fill="black"/>
<path d="M26.8072 147.515V150.444C26.8072 151.181 27.415 151.789 28.1522 151.789C28.8894 151.789 29.4971 151.191 29.4971 150.444V147.515C29.4971 146.777 28.8894 146.17 28.1522 146.17C27.415 146.17 26.8072 146.767 26.8072 147.515Z" fill="black"/>
<path d="M45.4072 42.0916C44.7397 42.0916 44.0922 42.2111 43.4944 42.4303C40.3363 35.8451 33.6116 31.2922 25.821 31.2922C18.0303 31.2922 11.3056 35.8451 8.14749 42.4303C7.54974 42.2211 6.90218 42.0916 6.23469 42.0916C3.07658 42.0916 0.526184 44.6519 0.526184 47.8001C0.526184 50.9482 3.08654 53.5086 6.23469 53.5086C6.29447 53.5086 6.35424 53.5086 6.41402 53.5086C7.69918 63.0826 15.8983 70.4648 25.821 70.4648C35.7436 70.4648 43.9427 63.0826 45.2279 53.5086C45.2877 53.5086 45.3474 53.5086 45.4072 53.5086C48.5653 53.5086 51.1157 50.9482 51.1157 47.8001C51.1157 44.6519 48.5554 42.0916 45.4072 42.0916Z" fill="white"/>
<path d="M30.3937 47.9695V50.8984C30.3937 51.6356 31.0015 52.2434 31.7387 52.2434C32.4759 52.2434 33.0836 51.6456 33.0836 50.8984V47.9695C33.0836 47.2322 32.4759 46.6245 31.7387 46.6245C31.0015 46.6245 30.3937 47.2223 30.3937 47.9695Z" fill="black"/>
<path d="M18.5683 47.9695V50.8984C18.5683 51.6356 19.176 52.2434 19.9132 52.2434C20.6504 52.2434 21.2581 51.6456 21.2581 50.8984V47.9695C21.2581 47.2322 20.6504 46.6245 19.9132 46.6245C19.176 46.6245 18.5683 47.2223 18.5683 47.9695Z" fill="black"/>
<path d="M38.7323 36.1439C35.2754 33.1253 30.7624 31.2822 25.821 31.2822C20.8796 31.2822 16.3566 33.1153 12.8996 36.1439H38.7323Z" fill="#FF008B"/>
<path d="M26.598 31.1128C32.0231 31.1128 36.421 26.7149 36.421 21.2898C36.421 15.8647 32.0231 11.4668 26.598 11.4668C21.1729 11.4668 16.775 15.8647 16.775 21.2898C16.775 26.7149 21.1729 31.1128 26.598 31.1128Z" fill="#FF008B"/>
<path d="M42.1395 19.646C47.5646 19.646 51.9625 15.2481 51.9625 9.82302C51.9625 4.39792 47.5646 0 42.1395 0C36.7144 0 32.3165 4.39792 32.3165 9.82302C32.3165 15.2481 36.7144 19.646 42.1395 19.646Z" fill="#FF008B"/>
<path d="M57.7906 31.1128C63.2157 31.1128 67.6136 26.7149 67.6136 21.2898C67.6136 15.8647 63.2157 11.4668 57.7906 11.4668C52.3655 11.4668 47.9676 15.8647 47.9676 21.2898C47.9676 26.7149 52.3655 31.1128 57.7906 31.1128Z" fill="#FF008B"/>
<path d="M101.406 167.998C101.406 147.286 118.193 130.499 138.905 130.499C159.617 130.499 176.404 147.286 176.404 167.998H101.406Z" fill="#7D7D7D"/>
<path d="M157.525 142.035C156.878 142.035 156.27 142.155 155.692 142.354C152.673 136.048 146.228 131.694 138.776 131.694C131.324 131.694 124.878 136.048 121.859 142.354C121.282 142.155 120.674 142.035 120.026 142.035C117.008 142.035 114.557 144.486 114.557 147.505C114.557 150.523 117.008 152.974 120.026 152.974C120.086 152.974 120.146 152.974 120.196 152.974C121.431 162.14 129.272 169.203 138.776 169.203C148.28 169.203 156.12 162.14 157.356 152.974C157.416 152.974 157.475 152.974 157.525 152.974C160.544 152.974 162.995 150.523 162.995 147.505C162.995 144.486 160.544 142.035 157.525 142.035Z" fill="white"/>
<path d="M138.776 131.694C149.131 131.694 157.525 123.3 157.525 112.945C157.525 102.59 149.131 94.1954 138.776 94.1954C128.421 94.1954 120.026 102.59 120.026 112.945C120.026 123.3 128.421 131.694 138.776 131.694Z" fill="#7D7D7D"/>
<path d="M143.827 149.726V152.526C143.827 153.233 144.405 153.811 145.112 153.811C145.819 153.811 146.397 153.233 146.397 152.526V149.726C146.397 149.019 145.819 148.441 145.112 148.441C144.405 148.441 143.827 149.019 143.827 149.726Z" fill="black"/>
<path d="M132.499 149.726V152.526C132.499 153.233 133.077 153.811 133.785 153.811C134.492 153.811 135.07 153.233 135.07 152.526V149.726C135.07 149.019 134.492 148.441 133.785 148.441C133.077 148.441 132.499 149.019 132.499 149.726Z" fill="black"/>
<path d="M155.702 141.159C152.683 134.852 146.238 130.499 138.786 130.499C131.334 130.499 124.888 134.852 121.869 141.159H155.712H155.702Z" fill="#7D7D7D"/>
<path d="M158.491 42.1015C157.824 42.1015 157.176 42.221 156.579 42.4402C153.421 35.855 146.696 31.3021 138.905 31.3021C131.115 31.3021 124.39 35.855 121.232 42.4402C120.634 42.231 119.986 42.1015 119.319 42.1015C116.161 42.1015 113.61 44.6618 113.61 47.81C113.61 50.9581 116.171 53.5185 119.319 53.5185C119.379 53.5185 119.439 53.5185 119.498 53.5185C120.783 63.0924 128.983 70.4747 138.905 70.4747C148.828 70.4747 157.027 63.0924 158.312 53.5185C158.372 53.5185 158.432 53.5185 158.491 53.5185C161.65 53.5185 164.2 50.9581 164.2 47.81C164.2 44.6618 161.64 42.1015 158.491 42.1015Z" fill="white"/>
<path d="M143.478 47.9793V50.9083C143.478 51.6455 144.086 52.2532 144.823 52.2532C145.56 52.2532 146.168 51.6555 146.168 50.9083V47.9793C146.168 47.2421 145.56 46.6344 144.823 46.6344C144.086 46.6344 143.478 47.2321 143.478 47.9793Z" fill="black"/>
<path d="M131.643 47.9793V50.9083C131.643 51.6455 132.25 52.2532 132.988 52.2532C133.725 52.2532 134.332 51.6555 134.332 50.9083V47.9793C134.332 47.2421 133.725 46.6344 132.988 46.6344C132.25 46.6344 131.643 47.2321 131.643 47.9793Z" fill="black"/>
<path d="M172.887 35.8251H158.491V22.4156C158.491 15.5415 154.945 9.50421 149.575 6.01734C147.832 4.88161 145.421 5.16056 144.116 6.78445C142.96 8.22901 141.177 9.15552 139.174 9.15552C137.172 9.15552 135.418 8.23897 134.263 6.80438C132.888 5.11075 130.537 4.56281 128.674 5.69854C123.055 9.1356 119.309 15.3323 119.309 22.4056V35.8152H106.208C104.226 35.8152 102.622 37.4191 102.622 39.4017C102.622 41.3842 104.226 42.9882 106.208 42.9882H172.877C174.86 42.9882 176.464 41.3842 176.464 39.4017C176.464 37.4191 174.86 35.8152 172.877 35.8152L172.887 35.8251Z" fill="#6B57FF"/>
</g>
<defs>
<clipPath id="clip0_1_81">
<rect width="175.948" height="170" fill="white" transform="translate(0.526184)"/>
</clipPath>
</defs>
</svg>
