<svg width="151" height="52" viewBox="0 0 151 52" fill="none" xmlns="http://www.w3.org/2000/svg">
<g filter="url(#filter0_b_13_5310)">
<rect width="151" height="52" rx="26" fill="#6B57FF"/>
<path d="M38.1011 33.24C37.1411 33.24 36.2911 33.0633 35.5511 32.71C34.8178 32.3567 34.2444 31.8633 33.8311 31.23C33.4244 30.5967 33.2211 29.87 33.2211 29.05H34.9211C34.9211 29.5767 35.0544 30.0433 35.3211 30.45C35.5878 30.8567 35.9644 31.1733 36.4511 31.4C36.9378 31.6267 37.4944 31.74 38.1211 31.74C38.7411 31.74 39.2844 31.6367 39.7511 31.43C40.2244 31.2167 40.5878 30.92 40.8411 30.54C41.1011 30.1533 41.2311 29.71 41.2311 29.21C41.2311 28.5767 41.0411 28.0333 40.6611 27.58C40.2878 27.1267 39.7878 26.8467 39.1611 26.74L36.9011 26.35C36.2211 26.23 35.6311 25.9933 35.1311 25.64C34.6311 25.2867 34.2478 24.8467 33.9811 24.32C33.7144 23.7933 33.5811 23.22 33.5811 22.6C33.5811 21.8733 33.7711 21.22 34.1511 20.64C34.5378 20.0533 35.0711 19.5933 35.7511 19.26C36.4378 18.9267 37.2078 18.76 38.0611 18.76C38.9411 18.76 39.7244 18.9267 40.4111 19.26C41.0978 19.5867 41.6311 20.0433 42.0111 20.63C42.3911 21.2167 42.5811 21.8867 42.5811 22.64H40.8811C40.8811 22.18 40.7644 21.77 40.5311 21.41C40.2978 21.0433 39.9678 20.76 39.5411 20.56C39.1211 20.36 38.6344 20.26 38.0811 20.26C37.5278 20.26 37.0378 20.3567 36.6111 20.55C36.1844 20.7433 35.8511 21.0167 35.6111 21.37C35.3778 21.7233 35.2611 22.1333 35.2611 22.6C35.2611 23.1533 35.4378 23.63 35.7911 24.03C36.1511 24.43 36.6211 24.68 37.2011 24.78L39.5011 25.18C40.1678 25.3 40.7611 25.5567 41.2811 25.95C41.8011 26.3433 42.2044 26.8267 42.4911 27.4C42.7778 27.9667 42.9211 28.5633 42.9211 29.19C42.9211 29.9433 42.7178 30.63 42.3111 31.25C41.9044 31.8633 41.3344 32.35 40.6011 32.71C39.8678 33.0633 39.0344 33.24 38.1011 33.24ZM45.8828 19H47.4828V27.56L52.1228 22.76H54.1128L49.4428 27.64L54.2928 33H52.2328L47.4828 27.84V33H45.8828V19ZM56.0977 22.76H57.6977V33H56.0977V22.76ZM57.8377 19V20.9H55.9577V19H57.8377ZM62.7553 22.76V24.57C63.142 23.9233 63.662 23.42 64.3153 23.06C64.9686 22.7 65.7186 22.52 66.5653 22.52C67.5186 22.52 68.3653 22.7467 69.1053 23.2C69.852 23.6467 70.432 24.2767 70.8453 25.09C71.2653 25.9033 71.4753 26.8333 71.4753 27.88C71.4753 28.9267 71.2653 29.8567 70.8453 30.67C70.432 31.4833 69.852 32.1167 69.1053 32.57C68.3653 33.0167 67.5186 33.24 66.5653 33.24C65.732 33.24 64.992 33.0667 64.3453 32.72C63.6986 32.3733 63.182 31.8867 62.7953 31.26V36.22H61.1953V22.76H62.7553ZM62.7953 27.88C62.7953 28.6467 62.942 29.3267 63.2353 29.92C63.5353 30.5067 63.952 30.9667 64.4853 31.3C65.0186 31.6267 65.6286 31.79 66.3153 31.79C66.9953 31.79 67.5986 31.6267 68.1253 31.3C68.652 30.9667 69.062 30.5067 69.3553 29.92C69.6486 29.3267 69.7953 28.6467 69.7953 27.88C69.7953 27.1133 69.6486 26.4367 69.3553 25.85C69.062 25.2567 68.652 24.7967 68.1253 24.47C67.5986 24.1367 66.9953 23.97 66.3153 23.97C65.6286 23.97 65.0186 24.1367 64.4853 24.47C63.952 24.7967 63.5353 25.2567 63.2353 25.85C62.942 26.4367 62.7953 27.1133 62.7953 27.88ZM82.7109 33.24C81.7443 33.24 80.8709 33.0067 80.0909 32.54C79.3109 32.0733 78.6976 31.4333 78.2509 30.62C77.8109 29.8 77.5909 28.8867 77.5909 27.88C77.5909 26.8733 77.8109 25.9633 78.2509 25.15C78.6976 24.33 79.3109 23.6867 80.0909 23.22C80.8709 22.7533 81.7443 22.52 82.7109 22.52C83.9509 22.52 84.9909 22.8367 85.8309 23.47C86.6709 24.0967 87.2076 25.0067 87.4409 26.2H85.8409C85.6276 25.4667 85.2343 24.9133 84.6609 24.54C84.0943 24.16 83.4443 23.97 82.7109 23.97C82.0509 23.97 81.4576 24.1367 80.9309 24.47C80.4109 24.8033 80.0043 25.2667 79.7109 25.86C79.4176 26.4533 79.2709 27.1267 79.2709 27.88C79.2709 28.6267 79.4176 29.2967 79.7109 29.89C80.0043 30.4833 80.4109 30.95 80.9309 31.29C81.4576 31.6233 82.0509 31.79 82.7109 31.79C83.4443 31.79 84.0943 31.6033 84.6609 31.23C85.2343 30.85 85.6276 30.2933 85.8409 29.56H87.4409C87.2876 30.3333 86.9876 30.9967 86.5409 31.55C86.0943 32.1033 85.5409 32.5233 84.8809 32.81C84.2209 33.0967 83.4976 33.24 82.7109 33.24ZM93.653 22.52C94.4263 22.52 95.1063 22.6633 95.693 22.95C96.2796 23.23 96.733 23.6433 97.053 24.19C97.3796 24.73 97.543 25.3733 97.543 26.12V33H95.983V31.33C95.6963 31.95 95.2763 32.4233 94.723 32.75C94.1696 33.0767 93.513 33.24 92.753 33.24C92.0996 33.24 91.5096 33.1133 90.983 32.86C90.4563 32.6067 90.043 32.2567 89.743 31.81C89.443 31.3633 89.293 30.8567 89.293 30.29C89.293 29.7567 89.4296 29.2667 89.703 28.82C89.983 28.3667 90.3663 27.9967 90.853 27.71C91.3463 27.4233 91.8996 27.2467 92.513 27.18L95.243 26.88C95.4696 26.8533 95.6463 26.76 95.773 26.6C95.8996 26.44 95.963 26.2067 95.963 25.9C95.963 25.4933 95.8663 25.1367 95.673 24.83C95.4796 24.5233 95.2063 24.2867 94.853 24.12C94.5063 23.9467 94.103 23.86 93.643 23.86C93.183 23.86 92.7696 23.94 92.403 24.1C92.0363 24.2533 91.7396 24.4633 91.513 24.73C91.293 24.99 91.1596 25.2733 91.113 25.58H89.513C89.593 25 89.8196 24.48 90.193 24.02C90.573 23.5533 91.063 23.1867 91.663 22.92C92.263 22.6533 92.9263 22.52 93.653 22.52ZM90.953 30.2C90.953 30.5467 91.043 30.8533 91.223 31.12C91.4096 31.3867 91.6663 31.5967 91.993 31.75C92.3196 31.8967 92.693 31.97 93.113 31.97C93.6863 31.97 94.1863 31.8533 94.613 31.62C95.0463 31.3867 95.3796 31.06 95.613 30.64C95.8463 30.2133 95.963 29.7233 95.963 29.17V28L92.733 28.36C92.1996 28.42 91.7696 28.62 91.443 28.96C91.1163 29.3 90.953 29.7133 90.953 30.2ZM100.746 22.76H102.346V24.46C102.673 23.88 103.096 23.4367 103.616 23.13C104.136 22.8167 104.733 22.66 105.406 22.66H105.766V24.33H105.346C104.739 24.33 104.209 24.4467 103.756 24.68C103.303 24.9133 102.953 25.2467 102.706 25.68C102.466 26.1067 102.346 26.61 102.346 27.19V33H100.746V22.76ZM115.675 31.3C115.288 31.92 114.771 32.4 114.125 32.74C113.485 33.0733 112.755 33.24 111.935 33.24C110.981 33.24 110.131 33.0167 109.385 32.57C108.645 32.1167 108.065 31.4833 107.645 30.67C107.231 29.8567 107.025 28.9267 107.025 27.88C107.025 26.8333 107.231 25.9033 107.645 25.09C108.065 24.2767 108.645 23.6467 109.385 23.2C110.131 22.7467 110.981 22.52 111.935 22.52C112.755 22.52 113.485 22.69 114.125 23.03C114.771 23.3633 115.288 23.84 115.675 24.46V19H117.275V33H115.675V31.3ZM108.705 27.88C108.705 28.6467 108.851 29.3267 109.145 29.92C109.438 30.5067 109.848 30.9667 110.375 31.3C110.901 31.6267 111.505 31.79 112.185 31.79C112.811 31.79 113.375 31.6533 113.875 31.38C114.381 31.1 114.788 30.71 115.095 30.21C115.408 29.7033 115.601 29.1167 115.675 28.45V27.31C115.601 26.6433 115.408 26.06 115.095 25.56C114.788 25.0533 114.381 24.6633 113.875 24.39C113.375 24.11 112.811 23.97 112.185 23.97C111.505 23.97 110.901 24.1367 110.375 24.47C109.848 24.7967 109.438 25.2567 109.145 25.85C108.851 26.4367 108.705 27.1133 108.705 27.88Z" fill="white"/>
</g>
<defs>
<filter id="filter0_b_13_5310" x="-8" y="-8" width="167" height="68" filterUnits="userSpaceOnUse" color-interpolation-filters="sRGB">
<feFlood flood-opacity="0" result="BackgroundImageFix"/>
<feGaussianBlur in="BackgroundImageFix" stdDeviation="4"/>
<feComposite in2="SourceAlpha" operator="in" result="effect1_backgroundBlur_13_5310"/>
<feBlend mode="normal" in="SourceGraphic" in2="effect1_backgroundBlur_13_5310" result="shape"/>
</filter>
</defs>
</svg>
