<svg width="151" height="52" viewBox="0 0 151 52" fill="none" xmlns="http://www.w3.org/2000/svg">
<g filter="url(#filter0_b_13_5046)">
<path d="M35 25.9L43 19V24.9H54V26.9H43V32.7L35 25.9Z" fill="#19191C"/>
<path d="M80.2143 19C81.0343 19 81.7643 19.1567 82.4043 19.47C83.051 19.7833 83.5543 20.2167 83.9143 20.77C84.2743 21.3233 84.4543 21.95 84.4543 22.65C84.4543 23.4033 84.251 24.0467 83.8443 24.58C83.4443 25.1133 82.8943 25.4833 82.1943 25.69C82.9943 25.9033 83.631 26.32 84.1043 26.94C84.5776 27.5533 84.8143 28.28 84.8143 29.12C84.8143 29.8667 84.6243 30.5367 84.2443 31.13C83.8643 31.7167 83.3343 32.1767 82.6543 32.51C81.9743 32.8367 81.201 33 80.3343 33H74.5543V19H80.2143ZM80.3343 31.5C80.8743 31.5 81.3543 31.4 81.7743 31.2C82.1943 30.9933 82.5176 30.7067 82.7443 30.34C82.9776 29.9667 83.0943 29.5367 83.0943 29.05C83.0943 28.57 82.9776 28.14 82.7443 27.76C82.511 27.38 82.1843 27.0867 81.7643 26.88C81.351 26.6667 80.8743 26.56 80.3343 26.56H76.1843V31.5H80.3343ZM80.2143 25.1C80.7143 25.1 81.1543 25.0067 81.5343 24.82C81.9143 24.6333 82.2076 24.3667 82.4143 24.02C82.6276 23.6733 82.7343 23.27 82.7343 22.81C82.7343 22.35 82.6276 21.9467 82.4143 21.6C82.2076 21.2533 81.911 20.9833 81.5243 20.79C81.1443 20.5967 80.7076 20.5 80.2143 20.5H76.1843V25.1H80.2143ZM91.4557 22.52C92.229 22.52 92.909 22.6633 93.4957 22.95C94.0824 23.23 94.5357 23.6433 94.8557 24.19C95.1824 24.73 95.3457 25.3733 95.3457 26.12V33H93.7857V31.33C93.499 31.95 93.079 32.4233 92.5257 32.75C91.9724 33.0767 91.3157 33.24 90.5557 33.24C89.9024 33.24 89.3124 33.1133 88.7857 32.86C88.259 32.6067 87.8457 32.2567 87.5457 31.81C87.2457 31.3633 87.0957 30.8567 87.0957 30.29C87.0957 29.7567 87.2324 29.2667 87.5057 28.82C87.7857 28.3667 88.169 27.9967 88.6557 27.71C89.149 27.4233 89.7024 27.2467 90.3157 27.18L93.0457 26.88C93.2724 26.8533 93.449 26.76 93.5757 26.6C93.7024 26.44 93.7657 26.2067 93.7657 25.9C93.7657 25.4933 93.669 25.1367 93.4757 24.83C93.2824 24.5233 93.009 24.2867 92.6557 24.12C92.309 23.9467 91.9057 23.86 91.4457 23.86C90.9857 23.86 90.5724 23.94 90.2057 24.1C89.839 24.2533 89.5424 24.4633 89.3157 24.73C89.0957 24.99 88.9624 25.2733 88.9157 25.58H87.3157C87.3957 25 87.6224 24.48 87.9957 24.02C88.3757 23.5533 88.8657 23.1867 89.4657 22.92C90.0657 22.6533 90.729 22.52 91.4557 22.52ZM88.7557 30.2C88.7557 30.5467 88.8457 30.8533 89.0257 31.12C89.2124 31.3867 89.469 31.5967 89.7957 31.75C90.1224 31.8967 90.4957 31.97 90.9157 31.97C91.489 31.97 91.989 31.8533 92.4157 31.62C92.849 31.3867 93.1824 31.06 93.4157 30.64C93.649 30.2133 93.7657 29.7233 93.7657 29.17V28L90.5357 28.36C90.0024 28.42 89.5724 28.62 89.2457 28.96C88.919 29.3 88.7557 29.7133 88.7557 30.2ZM102.799 33.24C101.832 33.24 100.959 33.0067 100.179 32.54C99.3988 32.0733 98.7855 31.4333 98.3388 30.62C97.8988 29.8 97.6788 28.8867 97.6788 27.88C97.6788 26.8733 97.8988 25.9633 98.3388 25.15C98.7855 24.33 99.3988 23.6867 100.179 23.22C100.959 22.7533 101.832 22.52 102.799 22.52C104.039 22.52 105.079 22.8367 105.919 23.47C106.759 24.0967 107.295 25.0067 107.529 26.2H105.929C105.715 25.4667 105.322 24.9133 104.749 24.54C104.182 24.16 103.532 23.97 102.799 23.97C102.139 23.97 101.545 24.1367 101.019 24.47C100.499 24.8033 100.092 25.2667 99.7988 25.86C99.5055 26.4533 99.3588 27.1267 99.3588 27.88C99.3588 28.6267 99.5055 29.2967 99.7988 29.89C100.092 30.4833 100.499 30.95 101.019 31.29C101.545 31.6233 102.139 31.79 102.799 31.79C103.532 31.79 104.182 31.6033 104.749 31.23C105.322 30.85 105.715 30.2933 105.929 29.56H107.529C107.375 30.3333 107.075 30.9967 106.629 31.55C106.182 32.1033 105.629 32.5233 104.969 32.81C104.309 33.0967 103.585 33.24 102.799 33.24ZM110.131 19H111.731V27.56L116.371 22.76H118.361L113.691 27.64L118.541 33H116.481L111.731 27.84V33H110.131V19Z" fill="#19191C"/>
<rect x="0.5" y="0.5" width="150" height="51" rx="25.5" stroke="#19191C" stroke-opacity="0.3"/>
</g>
<defs>
<filter id="filter0_b_13_5046" x="-8" y="-8" width="167" height="68" filterUnits="userSpaceOnUse" color-interpolation-filters="sRGB">
<feFlood flood-opacity="0" result="BackgroundImageFix"/>
<feGaussianBlur in="BackgroundImageFix" stdDeviation="4"/>
<feComposite in2="SourceAlpha" operator="in" result="effect1_backgroundBlur_13_5046"/>
<feBlend mode="normal" in="SourceGraphic" in2="effect1_backgroundBlur_13_5046" result="shape"/>
</filter>
</defs>
</svg>
