<?xml version="1.0" encoding="utf-8"?>
<!-- Generator: Adobe Illustrator 26.3.1, SVG Export Plug-In . SVG Version: 6.00 Build 0)  -->
<svg version="1.1" id="Layer_1" xmlns="http://www.w3.org/2000/svg" xmlns:xlink="http://www.w3.org/1999/xlink" x="0px" y="0px"
	 viewBox="0 0 200 100" style="enable-background:new 0 0 200 100;" xml:space="preserve">
<style type="text/css">
	.st0{fill:#FFFFFF;}
	.st1{fill:#FDB60D;}
</style>
<g>
	<path class="st0" d="M14,99.5C6.6,99.5,0.5,93.4,0.5,86V14C0.5,6.6,6.6,0.5,14,0.5h172c7.4,0,13.5,6.1,13.5,13.5v72
		c0,7.4-6.1,13.5-13.5,13.5H14z"/>
	<g>
		<path class="st1" d="M186,1c7.2,0,13,5.8,13,13v72c0,7.2-5.8,13-13,13H14C6.8,99,1,93.2,1,86V14C1,6.8,6.8,1,14,1H186 M186,0H14
			C6.3,0,0,6.3,0,14v72c0,7.7,6.3,14,14,14h172c7.7,0,14-6.3,14-14V14C200,6.3,193.7,0,186,0L186,0z"/>
	</g>
</g>
<g>
	<rect x="20" y="60.7" class="st1" width="159.5" height="1"/>
</g>
</svg>
