<svg width="247" height="52" viewBox="0 0 247 52" fill="none" xmlns="http://www.w3.org/2000/svg">
<g filter="url(#filter0_b_13_4945)">
<path d="M46 17H42V34H46V17Z" fill="#19191C"/>
<path d="M40 24H36V34H40V24Z" fill="#19191C"/>
<path d="M48 21H52V34H48V21Z" fill="#19191C"/>
<path d="M78.2788 33.24C77.3188 33.24 76.4688 33.0633 75.7288 32.71C74.9955 32.3567 74.4222 31.8633 74.0088 31.23C73.6022 30.5967 73.3988 29.87 73.3988 29.05H75.0988C75.0988 29.5767 75.2322 30.0433 75.4988 30.45C75.7655 30.8567 76.1422 31.1733 76.6288 31.4C77.1155 31.6267 77.6722 31.74 78.2988 31.74C78.9188 31.74 79.4622 31.6367 79.9288 31.43C80.4022 31.2167 80.7655 30.92 81.0188 30.54C81.2788 30.1533 81.4088 29.71 81.4088 29.21C81.4088 28.5767 81.2188 28.0333 80.8388 27.58C80.4655 27.1267 79.9655 26.8467 79.3388 26.74L77.0788 26.35C76.3988 26.23 75.8088 25.9933 75.3088 25.64C74.8088 25.2867 74.4255 24.8467 74.1588 24.32C73.8922 23.7933 73.7588 23.22 73.7588 22.6C73.7588 21.8733 73.9488 21.22 74.3288 20.64C74.7155 20.0533 75.2488 19.5933 75.9288 19.26C76.6155 18.9267 77.3855 18.76 78.2388 18.76C79.1188 18.76 79.9022 18.9267 80.5888 19.26C81.2755 19.5867 81.8088 20.0433 82.1888 20.63C82.5688 21.2167 82.7588 21.8867 82.7588 22.64H81.0588C81.0588 22.18 80.9422 21.77 80.7088 21.41C80.4755 21.0433 80.1455 20.76 79.7188 20.56C79.2988 20.36 78.8122 20.26 78.2588 20.26C77.7055 20.26 77.2155 20.3567 76.7888 20.55C76.3622 20.7433 76.0288 21.0167 75.7888 21.37C75.5555 21.7233 75.4388 22.1333 75.4388 22.6C75.4388 23.1533 75.6155 23.63 75.9688 24.03C76.3288 24.43 76.7988 24.68 77.3788 24.78L79.6788 25.18C80.3455 25.3 80.9388 25.5567 81.4588 25.95C81.9788 26.3433 82.3822 26.8267 82.6688 27.4C82.9555 27.9667 83.0988 28.5633 83.0988 29.19C83.0988 29.9433 82.8955 30.63 82.4888 31.25C82.0822 31.8633 81.5122 32.35 80.7788 32.71C80.0455 33.0633 79.2122 33.24 78.2788 33.24ZM86.0605 19H87.6005V24.42C87.9472 23.8067 88.4072 23.3367 88.9805 23.01C89.5605 22.6833 90.2305 22.52 90.9905 22.52C91.7239 22.52 92.3739 22.6767 92.9405 22.99C93.5072 23.3033 93.9505 23.7667 94.2705 24.38C94.5972 24.9867 94.7605 25.7167 94.7605 26.57V33H93.1605V26.73C93.1605 25.8433 92.9305 25.1533 92.4705 24.66C92.0105 24.1667 91.3772 23.92 90.5705 23.92C89.9972 23.92 89.4905 24.0467 89.0505 24.3C88.6105 24.5533 88.2672 24.91 88.0205 25.37C87.7805 25.8233 87.6605 26.3433 87.6605 26.93V33H86.0605V19ZM102.305 33.24C101.332 33.24 100.445 33.01 99.6451 32.55C98.8517 32.0833 98.2251 31.4433 97.7651 30.63C97.3117 29.81 97.0851 28.8933 97.0851 27.88C97.0851 26.8667 97.3117 25.9533 97.7651 25.14C98.2251 24.32 98.8551 23.68 99.6551 23.22C100.455 22.7533 101.342 22.52 102.315 22.52C103.288 22.52 104.172 22.7533 104.965 23.22C105.758 23.68 106.382 24.3167 106.835 25.13C107.295 25.9433 107.525 26.86 107.525 27.88C107.525 28.9 107.295 29.8167 106.835 30.63C106.382 31.4433 105.758 32.0833 104.965 32.55C104.172 33.01 103.285 33.24 102.305 33.24ZM98.7651 27.88C98.7651 28.6467 98.9184 29.3267 99.2251 29.92C99.5384 30.5067 99.9651 30.9633 100.505 31.29C101.052 31.6167 101.658 31.78 102.325 31.78C102.992 31.78 103.592 31.6167 104.125 31.29C104.658 30.9633 105.078 30.5067 105.385 29.92C105.692 29.3267 105.845 28.6467 105.845 27.88C105.845 27.1133 105.692 26.4333 105.385 25.84C105.078 25.2467 104.655 24.7867 104.115 24.46C103.582 24.1333 102.982 23.97 102.315 23.97C101.648 23.97 101.045 24.1333 100.505 24.46C99.9651 24.7867 99.5384 25.2467 99.2251 25.84C98.9184 26.4333 98.7651 27.1133 98.7651 27.88ZM108.697 22.76H110.417L112.827 30.12L113.057 30.99L113.267 30.12L115.797 22.76H117.327L119.907 30.12L120.137 30.99L120.347 30.12L122.697 22.76H124.377L120.867 33H119.287L116.757 25.3L116.567 24.59L116.397 25.28L113.767 33H112.207L108.697 22.76ZM134.675 33.24C133.902 33.24 133.202 33.1167 132.575 32.87C131.955 32.6233 131.458 32.28 131.085 31.84C130.718 31.3933 130.522 30.89 130.495 30.33H132.125C132.152 30.6367 132.278 30.9133 132.505 31.16C132.732 31.4 133.032 31.59 133.405 31.73C133.778 31.87 134.195 31.94 134.655 31.94C135.122 31.94 135.532 31.8633 135.885 31.71C136.245 31.5567 136.522 31.3433 136.715 31.07C136.915 30.7967 137.015 30.4867 137.015 30.14C137.015 29.7667 136.908 29.4533 136.695 29.2C136.488 28.94 136.198 28.7767 135.825 28.71L133.355 28.26C132.568 28.1133 131.955 27.7967 131.515 27.31C131.075 26.8167 130.855 26.1933 130.855 25.44C130.855 24.9 131.008 24.41 131.315 23.97C131.628 23.5233 132.065 23.17 132.625 22.91C133.185 22.65 133.825 22.52 134.545 22.52C135.258 22.52 135.902 22.6367 136.475 22.87C137.048 23.1033 137.505 23.4267 137.845 23.84C138.185 24.2533 138.368 24.7133 138.395 25.22H136.765C136.745 24.9533 136.635 24.7133 136.435 24.5C136.242 24.2867 135.982 24.12 135.655 24C135.328 23.88 134.962 23.82 134.555 23.82C134.142 23.82 133.775 23.89 133.455 24.03C133.135 24.17 132.885 24.3633 132.705 24.61C132.532 24.85 132.445 25.1233 132.445 25.43C132.445 25.7767 132.542 26.0633 132.735 26.29C132.928 26.5167 133.212 26.6633 133.585 26.73L136.115 27.18C136.635 27.2733 137.082 27.4567 137.455 27.73C137.835 28.0033 138.122 28.3433 138.315 28.75C138.515 29.1567 138.615 29.6 138.615 30.08C138.615 30.68 138.442 31.22 138.095 31.7C137.755 32.18 137.285 32.5567 136.685 32.83C136.085 33.1033 135.415 33.24 134.675 33.24ZM144.604 33C144.118 33 143.674 32.8967 143.274 32.69C142.881 32.4767 142.571 32.1867 142.344 31.82C142.118 31.4467 142.004 31.0333 142.004 30.58L141.994 24.18H140.194L140.204 22.76H141.314C141.568 22.76 141.771 22.68 141.924 22.52C142.084 22.36 142.164 22.1567 142.164 21.91V20.26H143.604V22.76H146.074L146.064 24.18H143.594L143.604 30.48C143.604 30.7933 143.708 31.0567 143.914 31.27C144.128 31.4767 144.391 31.58 144.704 31.58H146.064V33H144.604ZM152.464 22.52C153.237 22.52 153.917 22.6633 154.504 22.95C155.09 23.23 155.544 23.6433 155.864 24.19C156.19 24.73 156.354 25.3733 156.354 26.12V33H154.794V31.33C154.507 31.95 154.087 32.4233 153.534 32.75C152.98 33.0767 152.324 33.24 151.564 33.24C150.91 33.24 150.32 33.1133 149.794 32.86C149.267 32.6067 148.854 32.2567 148.554 31.81C148.254 31.3633 148.104 30.8567 148.104 30.29C148.104 29.7567 148.24 29.2667 148.514 28.82C148.794 28.3667 149.177 27.9967 149.664 27.71C150.157 27.4233 150.71 27.2467 151.324 27.18L154.054 26.88C154.28 26.8533 154.457 26.76 154.584 26.6C154.71 26.44 154.774 26.2067 154.774 25.9C154.774 25.4933 154.677 25.1367 154.484 24.83C154.29 24.5233 154.017 24.2867 153.664 24.12C153.317 23.9467 152.914 23.86 152.454 23.86C151.994 23.86 151.58 23.94 151.214 24.1C150.847 24.2533 150.55 24.4633 150.324 24.73C150.104 24.99 149.97 25.2733 149.924 25.58H148.324C148.404 25 148.63 24.48 149.004 24.02C149.384 23.5533 149.874 23.1867 150.474 22.92C151.074 22.6533 151.737 22.52 152.464 22.52ZM149.764 30.2C149.764 30.5467 149.854 30.8533 150.034 31.12C150.22 31.3867 150.477 31.5967 150.804 31.75C151.13 31.8967 151.504 31.97 151.924 31.97C152.497 31.97 152.997 31.8533 153.424 31.62C153.857 31.3867 154.19 31.06 154.424 30.64C154.657 30.2133 154.774 29.7233 154.774 29.17V28L151.544 28.36C151.01 28.42 150.58 28.62 150.254 28.96C149.927 29.3 149.764 29.7133 149.764 30.2ZM162.847 33C162.36 33 161.917 32.8967 161.517 32.69C161.123 32.4767 160.813 32.1867 160.587 31.82C160.36 31.4467 160.247 31.0333 160.247 30.58L160.237 24.18H158.437L158.447 22.76H159.557C159.81 22.76 160.013 22.68 160.167 22.52C160.327 22.36 160.407 22.1567 160.407 21.91V20.26H161.847V22.76H164.317L164.307 24.18H161.837L161.847 30.48C161.847 30.7933 161.95 31.0567 162.157 31.27C162.37 31.4767 162.633 31.58 162.947 31.58H164.307V33H162.847ZM167.096 22.76H168.696V33H167.096V22.76ZM168.836 19V20.9H166.956V19H168.836ZM175.573 33.24C174.8 33.24 174.1 33.1167 173.473 32.87C172.853 32.6233 172.357 32.28 171.983 31.84C171.617 31.3933 171.42 30.89 171.393 30.33H173.023C173.05 30.6367 173.177 30.9133 173.403 31.16C173.63 31.4 173.93 31.59 174.303 31.73C174.677 31.87 175.093 31.94 175.553 31.94C176.02 31.94 176.43 31.8633 176.783 31.71C177.143 31.5567 177.42 31.3433 177.613 31.07C177.813 30.7967 177.913 30.4867 177.913 30.14C177.913 29.7667 177.807 29.4533 177.593 29.2C177.387 28.94 177.097 28.7767 176.723 28.71L174.253 28.26C173.467 28.1133 172.853 27.7967 172.413 27.31C171.973 26.8167 171.753 26.1933 171.753 25.44C171.753 24.9 171.907 24.41 172.213 23.97C172.527 23.5233 172.963 23.17 173.523 22.91C174.083 22.65 174.723 22.52 175.443 22.52C176.157 22.52 176.8 22.6367 177.373 22.87C177.947 23.1033 178.403 23.4267 178.743 23.84C179.083 24.2533 179.267 24.7133 179.293 25.22H177.663C177.643 24.9533 177.533 24.7133 177.333 24.5C177.14 24.2867 176.88 24.12 176.553 24C176.227 23.88 175.86 23.82 175.453 23.82C175.04 23.82 174.673 23.89 174.353 24.03C174.033 24.17 173.783 24.3633 173.603 24.61C173.43 24.85 173.343 25.1233 173.343 25.43C173.343 25.7767 173.44 26.0633 173.633 26.29C173.827 26.5167 174.11 26.6633 174.483 26.73L177.013 27.18C177.533 27.2733 177.98 27.4567 178.353 27.73C178.733 28.0033 179.02 28.3433 179.213 28.75C179.413 29.1567 179.513 29.6 179.513 30.08C179.513 30.68 179.34 31.22 178.993 31.7C178.653 32.18 178.183 32.5567 177.583 32.83C176.983 33.1033 176.313 33.24 175.573 33.24ZM185.503 33C185.016 33 184.573 32.8967 184.173 32.69C183.78 32.4767 183.47 32.1867 183.243 31.82C183.016 31.4467 182.903 31.0333 182.903 30.58L182.893 24.18H181.093L181.103 22.76H182.213C182.466 22.76 182.67 22.68 182.823 22.52C182.983 22.36 183.063 22.1567 183.063 21.91V20.26H184.503V22.76H186.973L186.963 24.18H184.493L184.503 30.48C184.503 30.7933 184.606 31.0567 184.813 31.27C185.026 31.4767 185.29 31.58 185.603 31.58H186.963V33H185.503ZM189.752 22.76H191.352V33H189.752V22.76ZM191.492 19V20.9H189.612V19H191.492ZM199.1 33.24C198.133 33.24 197.26 33.0067 196.48 32.54C195.7 32.0733 195.086 31.4333 194.64 30.62C194.2 29.8 193.98 28.8867 193.98 27.88C193.98 26.8733 194.2 25.9633 194.64 25.15C195.086 24.33 195.7 23.6867 196.48 23.22C197.26 22.7533 198.133 22.52 199.1 22.52C200.34 22.52 201.38 22.8367 202.22 23.47C203.06 24.0967 203.596 25.0067 203.83 26.2H202.23C202.016 25.4667 201.623 24.9133 201.05 24.54C200.483 24.16 199.833 23.97 199.1 23.97C198.44 23.97 197.846 24.1367 197.32 24.47C196.8 24.8033 196.393 25.2667 196.1 25.86C195.806 26.4533 195.66 27.1267 195.66 27.88C195.66 28.6267 195.806 29.2967 196.1 29.89C196.393 30.4833 196.8 30.95 197.32 31.29C197.846 31.6233 198.44 31.79 199.1 31.79C199.833 31.79 200.483 31.6033 201.05 31.23C201.623 30.85 202.016 30.2933 202.23 29.56H203.83C203.676 30.3333 203.376 30.9967 202.93 31.55C202.483 32.1033 201.93 32.5233 201.27 32.81C200.61 33.0967 199.886 33.24 199.1 33.24ZM209.812 33.24C209.038 33.24 208.338 33.1167 207.712 32.87C207.092 32.6233 206.595 32.28 206.222 31.84C205.855 31.3933 205.658 30.89 205.632 30.33H207.262C207.288 30.6367 207.415 30.9133 207.642 31.16C207.868 31.4 208.168 31.59 208.542 31.73C208.915 31.87 209.332 31.94 209.792 31.94C210.258 31.94 210.668 31.8633 211.022 31.71C211.382 31.5567 211.658 31.3433 211.852 31.07C212.052 30.7967 212.152 30.4867 212.152 30.14C212.152 29.7667 212.045 29.4533 211.832 29.2C211.625 28.94 211.335 28.7767 210.962 28.71L208.492 28.26C207.705 28.1133 207.092 27.7967 206.652 27.31C206.212 26.8167 205.992 26.1933 205.992 25.44C205.992 24.9 206.145 24.41 206.452 23.97C206.765 23.5233 207.202 23.17 207.762 22.91C208.322 22.65 208.962 22.52 209.682 22.52C210.395 22.52 211.038 22.6367 211.612 22.87C212.185 23.1033 212.642 23.4267 212.982 23.84C213.322 24.2533 213.505 24.7133 213.532 25.22H211.902C211.882 24.9533 211.772 24.7133 211.572 24.5C211.378 24.2867 211.118 24.12 210.792 24C210.465 23.88 210.098 23.82 209.692 23.82C209.278 23.82 208.912 23.89 208.592 24.03C208.272 24.17 208.022 24.3633 207.842 24.61C207.668 24.85 207.582 25.1233 207.582 25.43C207.582 25.7767 207.678 26.0633 207.872 26.29C208.065 26.5167 208.348 26.6633 208.722 26.73L211.252 27.18C211.772 27.2733 212.218 27.4567 212.592 27.73C212.972 28.0033 213.258 28.3433 213.452 28.75C213.652 29.1567 213.752 29.6 213.752 30.08C213.752 30.68 213.578 31.22 213.232 31.7C212.892 32.18 212.422 32.5567 211.822 32.83C211.222 33.1033 210.552 33.24 209.812 33.24Z" fill="#19191C"/>
<rect x="0.5" y="0.5" width="246" height="51" rx="25.5" stroke="#19191C" stroke-opacity="0.3"/>
</g>
<defs>
<filter id="filter0_b_13_4945" x="-8" y="-8" width="263" height="68" filterUnits="userSpaceOnUse" color-interpolation-filters="sRGB">
<feFlood flood-opacity="0" result="BackgroundImageFix"/>
<feGaussianBlur in="BackgroundImageFix" stdDeviation="4"/>
<feComposite in2="SourceAlpha" operator="in" result="effect1_backgroundBlur_13_4945"/>
<feBlend mode="normal" in="SourceGraphic" in2="effect1_backgroundBlur_13_4945" result="shape"/>
</filter>
</defs>
</svg>
