<svg width="208" height="52" viewBox="0 0 208 52" fill="none" xmlns="http://www.w3.org/2000/svg">
<g filter="url(#filter0_b_9_3922)">
<path d="M39.7148 28.8564L37.6385 35.3229C37.6053 35.4283 37.606 35.5414 37.6406 35.6463C37.6752 35.7512 37.742 35.8426 37.8315 35.9074C37.921 35.9722 38.0286 36.0072 38.1391 36.0074C38.2495 36.0076 38.3573 35.9731 38.447 35.9086L43.9988 31.9404L49.5505 35.9086C49.6403 35.9731 49.748 36.0076 49.8585 36.0074C49.969 36.0072 50.0766 35.9722 50.1661 35.9074C50.2555 35.8426 50.3223 35.7512 50.357 35.6463C50.3916 35.5414 50.3923 35.4283 50.359 35.3229L48.2828 28.8564L53.7842 24.8083C53.873 24.7429 53.939 24.6511 53.9726 24.5461C54.0062 24.441 54.0058 24.328 53.9715 24.2232C53.9372 24.1183 53.8706 24.027 53.7813 23.9622C53.692 23.8974 53.5846 23.8625 53.4742 23.8623L46.653 23.8246L44.4984 17.3683C44.4632 17.2636 44.396 17.1727 44.3064 17.1083C44.2167 17.0439 44.1092 17.0093 43.9988 17.0093C43.8884 17.0093 43.7808 17.0439 43.6912 17.1083C43.6015 17.1727 43.5344 17.2636 43.4991 17.3683L41.3446 23.8246L34.5233 23.8623C34.413 23.8624 34.3055 23.8974 34.2162 23.9622C34.127 24.027 34.0604 24.1183 34.026 24.2231C33.9917 24.328 33.9913 24.441 34.0249 24.546C34.0586 24.6511 34.1245 24.7429 34.2134 24.8083L39.7148 28.8564Z" fill="#19191C"/>
<path d="M74.2164 19H75.9764L83.4964 30.36V19H85.1564V33H83.3764L75.8764 21.64V33H74.2164V19ZM93.2108 33.24C92.2508 33.24 91.3874 33.01 90.6208 32.55C89.8541 32.09 89.2541 31.4533 88.8208 30.64C88.3941 29.82 88.1808 28.8933 88.1808 27.86C88.1808 26.8533 88.3974 25.9433 88.8308 25.13C89.2708 24.3167 89.8741 23.68 90.6408 23.22C91.4074 22.7533 92.2641 22.52 93.2108 22.52C94.1774 22.52 95.0241 22.75 95.7508 23.21C96.4841 23.67 97.0474 24.3067 97.4408 25.12C97.8408 25.9333 98.0408 26.8533 98.0408 27.88V28.27H89.8108C89.8774 28.97 90.0674 29.59 90.3808 30.13C90.6941 30.67 91.1041 31.09 91.6108 31.39C92.1174 31.69 92.6841 31.84 93.3108 31.84C93.9841 31.84 94.5774 31.7167 95.0908 31.47C95.6041 31.2233 95.9774 30.8867 96.2108 30.46H97.8108C97.6908 30.8867 97.4374 31.3133 97.0508 31.74C96.6708 32.1667 96.1508 32.5233 95.4908 32.81C94.8374 33.0967 94.0774 33.24 93.2108 33.24ZM96.3808 26.95C96.2474 26.0167 95.9074 25.28 95.3608 24.74C94.8208 24.2 94.1108 23.93 93.2308 23.93C92.6374 23.93 92.1041 24.0533 91.6308 24.3C91.1574 24.54 90.7674 24.89 90.4608 25.35C90.1541 25.8033 89.9508 26.3367 89.8508 26.95H96.3808ZM99.2066 22.76H100.927L103.337 30.12L103.567 30.99L103.777 30.12L106.307 22.76H107.837L110.417 30.12L110.647 30.99L110.857 30.12L113.207 22.76H114.887L111.377 33H109.797L107.267 25.3L107.077 24.59L106.907 25.28L104.277 33H102.717L99.2066 22.76ZM121.805 22.76H123.405V24.46C123.731 23.88 124.155 23.4367 124.675 23.13C125.195 22.8167 125.791 22.66 126.465 22.66H126.825V24.33H126.405C125.798 24.33 125.268 24.4467 124.815 24.68C124.361 24.9133 124.011 25.2467 123.765 25.68C123.525 26.1067 123.405 26.61 123.405 27.19V33H121.805V22.76ZM133.303 33.24C132.33 33.24 131.443 33.01 130.643 32.55C129.85 32.0833 129.223 31.4433 128.763 30.63C128.31 29.81 128.083 28.8933 128.083 27.88C128.083 26.8667 128.31 25.9533 128.763 25.14C129.223 24.32 129.853 23.68 130.653 23.22C131.453 22.7533 132.34 22.52 133.313 22.52C134.286 22.52 135.17 22.7533 135.963 23.22C136.756 23.68 137.38 24.3167 137.833 25.13C138.293 25.9433 138.523 26.86 138.523 27.88C138.523 28.9 138.293 29.8167 137.833 30.63C137.38 31.4433 136.756 32.0833 135.963 32.55C135.17 33.01 134.283 33.24 133.303 33.24ZM129.763 27.88C129.763 28.6467 129.916 29.3267 130.223 29.92C130.536 30.5067 130.963 30.9633 131.503 31.29C132.05 31.6167 132.656 31.78 133.323 31.78C133.99 31.78 134.59 31.6167 135.123 31.29C135.656 30.9633 136.076 30.5067 136.383 29.92C136.69 29.3267 136.843 28.6467 136.843 27.88C136.843 27.1133 136.69 26.4333 136.383 25.84C136.076 25.2467 135.653 24.7867 135.113 24.46C134.58 24.1333 133.98 23.97 133.313 23.97C132.646 23.97 132.043 24.1333 131.503 24.46C130.963 24.7867 130.536 25.2467 130.223 25.84C129.916 26.4333 129.763 27.1133 129.763 27.88ZM149.56 33H148.02V31.34C147.673 31.9533 147.21 32.4233 146.63 32.75C146.057 33.0767 145.39 33.24 144.63 33.24C143.897 33.24 143.247 33.0833 142.68 32.77C142.113 32.4567 141.667 31.9967 141.34 31.39C141.02 30.7767 140.86 30.0433 140.86 29.19V22.76H142.46V29.03C142.46 29.9167 142.69 30.6067 143.15 31.1C143.61 31.5933 144.243 31.84 145.05 31.84C145.623 31.84 146.13 31.7133 146.57 31.46C147.01 31.2067 147.35 30.8533 147.59 30.4C147.837 29.94 147.96 29.4167 147.96 28.83V22.76H149.56V33ZM153.055 22.76H154.595V24.42C154.941 23.8067 155.401 23.3367 155.975 23.01C156.555 22.6833 157.225 22.52 157.985 22.52C158.718 22.52 159.368 22.6767 159.935 22.99C160.501 23.3033 160.945 23.7667 161.265 24.38C161.591 24.9867 161.755 25.7167 161.755 26.57V33H160.155V26.73C160.155 25.8433 159.925 25.1533 159.465 24.66C159.005 24.1667 158.371 23.92 157.565 23.92C156.991 23.92 156.485 24.0467 156.045 24.3C155.605 24.5533 155.261 24.91 155.015 25.37C154.775 25.8233 154.655 26.3433 154.655 26.93V33H153.055V22.76ZM172.729 31.3C172.343 31.92 171.826 32.4 171.179 32.74C170.539 33.0733 169.809 33.24 168.989 33.24C168.036 33.24 167.186 33.0167 166.439 32.57C165.699 32.1167 165.119 31.4833 164.699 30.67C164.286 29.8567 164.079 28.9267 164.079 27.88C164.079 26.8333 164.286 25.9033 164.699 25.09C165.119 24.2767 165.699 23.6467 166.439 23.2C167.186 22.7467 168.036 22.52 168.989 22.52C169.809 22.52 170.539 22.69 171.179 23.03C171.826 23.3633 172.343 23.84 172.729 24.46V19H174.329V33H172.729V31.3ZM165.759 27.88C165.759 28.6467 165.906 29.3267 166.199 29.92C166.493 30.5067 166.903 30.9667 167.429 31.3C167.956 31.6267 168.559 31.79 169.239 31.79C169.866 31.79 170.429 31.6533 170.929 31.38C171.436 31.1 171.843 30.71 172.149 30.21C172.463 29.7033 172.656 29.1167 172.729 28.45V27.31C172.656 26.6433 172.463 26.06 172.149 25.56C171.843 25.0533 171.436 24.6633 170.929 24.39C170.429 24.11 169.866 23.97 169.239 23.97C168.559 23.97 167.956 24.1367 167.429 24.47C166.903 24.7967 166.493 25.2567 166.199 25.85C165.906 26.4367 165.759 27.1133 165.759 27.88Z" fill="#19191C"/>
<rect x="0.5" y="0.5" width="207" height="51" rx="25.5" stroke="#19191C" stroke-opacity="0.3"/>
</g>
<defs>
<filter id="filter0_b_9_3922" x="-8" y="-8" width="224" height="68" filterUnits="userSpaceOnUse" color-interpolation-filters="sRGB">
<feFlood flood-opacity="0" result="BackgroundImageFix"/>
<feGaussianBlur in="BackgroundImageFix" stdDeviation="4"/>
<feComposite in2="SourceAlpha" operator="in" result="effect1_backgroundBlur_9_3922"/>
<feBlend mode="normal" in="SourceGraphic" in2="effect1_backgroundBlur_9_3922" result="shape"/>
</filter>
</defs>
</svg>
