<svg width="240" height="52" viewBox="0 0 240 52" fill="none" xmlns="http://www.w3.org/2000/svg">
<g filter="url(#filter0_b_44_6211)">
<rect width="240" height="52" rx="26" fill="#6B57FF"/>
<path d="M91.3199 19H92.9799V33H91.3199V19ZM101.818 19H103.418V27.56L108.058 22.76H110.048L105.378 27.64L110.228 33H108.168L103.418 27.84V33H101.818V19ZM112.033 22.76H113.573V24.42C113.92 23.8067 114.38 23.3367 114.953 23.01C115.533 22.6833 116.203 22.52 116.963 22.52C117.697 22.52 118.347 22.6767 118.913 22.99C119.48 23.3033 119.923 23.7667 120.243 24.38C120.57 24.9867 120.733 25.7167 120.733 26.57V33H119.133V26.73C119.133 25.8433 118.903 25.1533 118.443 24.66C117.983 24.1667 117.35 23.92 116.543 23.92C115.97 23.92 115.463 24.0467 115.023 24.3C114.583 24.5533 114.24 24.91 113.993 25.37C113.753 25.8233 113.633 26.3433 113.633 26.93V33H112.033V22.76ZM128.278 33.24C127.304 33.24 126.418 33.01 125.618 32.55C124.824 32.0833 124.198 31.4433 123.738 30.63C123.284 29.81 123.058 28.8933 123.058 27.88C123.058 26.8667 123.284 25.9533 123.738 25.14C124.198 24.32 124.828 23.68 125.628 23.22C126.428 22.7533 127.314 22.52 128.288 22.52C129.261 22.52 130.144 22.7533 130.938 23.22C131.731 23.68 132.354 24.3167 132.808 25.13C133.268 25.9433 133.498 26.86 133.498 27.88C133.498 28.9 133.268 29.8167 132.808 30.63C132.354 31.4433 131.731 32.0833 130.938 32.55C130.144 33.01 129.258 33.24 128.278 33.24ZM124.738 27.88C124.738 28.6467 124.891 29.3267 125.198 29.92C125.511 30.5067 125.938 30.9633 126.478 31.29C127.024 31.6167 127.631 31.78 128.298 31.78C128.964 31.78 129.564 31.6167 130.098 31.29C130.631 30.9633 131.051 30.5067 131.358 29.92C131.664 29.3267 131.818 28.6467 131.818 27.88C131.818 27.1133 131.664 26.4333 131.358 25.84C131.051 25.2467 130.628 24.7867 130.088 24.46C129.554 24.1333 128.954 23.97 128.288 23.97C127.621 23.97 127.018 24.1333 126.478 24.46C125.938 24.7867 125.511 25.2467 125.198 25.84C124.891 26.4333 124.738 27.1133 124.738 27.88ZM134.669 22.76H136.389L138.799 30.12L139.029 30.99L139.239 30.12L141.769 22.76H143.299L145.879 30.12L146.109 30.99L146.319 30.12L148.669 22.76H150.349L146.839 33H145.259L142.729 25.3L142.539 24.59L142.369 25.28L139.739 33H138.179L134.669 22.76Z" fill="white"/>
</g>
<defs>
<filter id="filter0_b_44_6211" x="-8" y="-8" width="256" height="68" filterUnits="userSpaceOnUse" color-interpolation-filters="sRGB">
<feFlood flood-opacity="0" result="BackgroundImageFix"/>
<feGaussianBlur in="BackgroundImageFix" stdDeviation="4"/>
<feComposite in2="SourceAlpha" operator="in" result="effect1_backgroundBlur_44_6211"/>
<feBlend mode="normal" in="SourceGraphic" in2="effect1_backgroundBlur_44_6211" result="shape"/>
</filter>
</defs>
</svg>
