<svg width="202" height="52" viewBox="0 0 202 52" fill="none" xmlns="http://www.w3.org/2000/svg">
<g filter="url(#filter0_b_9_3927)">
<path d="M48.3999 20C49.5045 20 50.3999 19.1046 50.3999 18C50.3999 16.8954 49.5045 16 48.3999 16C47.2953 16 46.3999 16.8954 46.3999 18C46.3999 19.1046 47.2953 20 48.3999 20Z" fill="#19191C"/>
<path d="M44 32H53V25.5156C53 24.72 52.6839 23.9569 52.1213 23.3943C51.5587 22.8317 50.7957 22.5156 50 22.5156H47C46.2044 22.5156 45.4413 22.8317 44.8787 23.3943C44.3161 23.9569 44 24.72 44 25.5156H38C37.2044 25.5156 36.4413 25.8317 35.8787 26.3943C35.3161 26.9569 35 27.72 35 28.5156V35H44V32Z" fill="#19191C"/>
<path d="M42 21C42 22.1046 41.1046 23 40 23C38.8954 23 38 22.1046 38 21C38 19.8954 38.8954 19 40 19C41.1046 19 42 19.8954 42 21Z" fill="#19191C"/>
<path d="M74.4586 19H76.2186L83.7386 30.36V19H85.3986V33H83.6186L76.1186 21.64V33H74.4586V19ZM93.453 33.24C92.493 33.24 91.6296 33.01 90.863 32.55C90.0963 32.09 89.4963 31.4533 89.063 30.64C88.6363 29.82 88.423 28.8933 88.423 27.86C88.423 26.8533 88.6396 25.9433 89.073 25.13C89.513 24.3167 90.1163 23.68 90.883 23.22C91.6496 22.7533 92.5063 22.52 93.453 22.52C94.4196 22.52 95.2663 22.75 95.993 23.21C96.7263 23.67 97.2896 24.3067 97.683 25.12C98.083 25.9333 98.283 26.8533 98.283 27.88V28.27H90.053C90.1196 28.97 90.3096 29.59 90.623 30.13C90.9363 30.67 91.3463 31.09 91.853 31.39C92.3596 31.69 92.9263 31.84 93.553 31.84C94.2263 31.84 94.8196 31.7167 95.333 31.47C95.8463 31.2233 96.2196 30.8867 96.453 30.46H98.053C97.933 30.8867 97.6796 31.3133 97.293 31.74C96.913 32.1667 96.393 32.5233 95.733 32.81C95.0796 33.0967 94.3196 33.24 93.453 33.24ZM96.623 26.95C96.4896 26.0167 96.1496 25.28 95.603 24.74C95.063 24.2 94.353 23.93 93.473 23.93C92.8796 23.93 92.3463 24.0533 91.873 24.3C91.3996 24.54 91.0096 24.89 90.703 25.35C90.3963 25.8033 90.193 26.3367 90.093 26.95H96.623ZM103.93 29.01L101.2 33H99.3802L103.09 27.72L99.5602 22.76H101.42L104.01 26.48L106.55 22.76H108.37L104.86 27.77L108.56 33H106.7L103.93 29.01ZM114.067 33C113.581 33 113.137 32.8967 112.737 32.69C112.344 32.4767 112.034 32.1867 111.807 31.82C111.581 31.4467 111.467 31.0333 111.467 30.58L111.457 24.18H109.657L109.667 22.76H110.777C111.031 22.76 111.234 22.68 111.387 22.52C111.547 22.36 111.627 22.1567 111.627 21.91V20.26H113.067V22.76H115.537L115.527 24.18H113.057L113.067 30.48C113.067 30.7933 113.171 31.0567 113.377 31.27C113.591 31.4767 113.854 31.58 114.167 31.58H115.527V33H114.067ZM126.548 33C126.061 33 125.618 32.8967 125.218 32.69C124.824 32.4767 124.514 32.1867 124.288 31.82C124.061 31.4467 123.948 31.0333 123.948 30.58L123.938 24.18H122.138L122.148 22.76H123.258C123.511 22.76 123.714 22.68 123.868 22.52C124.028 22.36 124.108 22.1567 124.108 21.91V20.26H125.548V22.76H128.018L128.008 24.18H125.538L125.548 30.48C125.548 30.7933 125.651 31.0567 125.858 31.27C126.071 31.4767 126.334 31.58 126.648 31.58H128.008V33H126.548ZM134.957 33.24C133.997 33.24 133.134 33.01 132.367 32.55C131.6 32.09 131 31.4533 130.567 30.64C130.14 29.82 129.927 28.8933 129.927 27.86C129.927 26.8533 130.144 25.9433 130.577 25.13C131.017 24.3167 131.62 23.68 132.387 23.22C133.154 22.7533 134.01 22.52 134.957 22.52C135.924 22.52 136.77 22.75 137.497 23.21C138.23 23.67 138.794 24.3067 139.187 25.12C139.587 25.9333 139.787 26.8533 139.787 27.88V28.27H131.557C131.624 28.97 131.814 29.59 132.127 30.13C132.44 30.67 132.85 31.09 133.357 31.39C133.864 31.69 134.43 31.84 135.057 31.84C135.73 31.84 136.324 31.7167 136.837 31.47C137.35 31.2233 137.724 30.8867 137.957 30.46H139.557C139.437 30.8867 139.184 31.3133 138.797 31.74C138.417 32.1667 137.897 32.5233 137.237 32.81C136.584 33.0967 135.824 33.24 134.957 33.24ZM138.127 26.95C137.994 26.0167 137.654 25.28 137.107 24.74C136.567 24.2 135.857 23.93 134.977 23.93C134.384 23.93 133.85 24.0533 133.377 24.3C132.904 24.54 132.514 24.89 132.207 25.35C131.9 25.8033 131.697 26.3367 131.597 26.95H138.127ZM146.028 22.52C146.801 22.52 147.481 22.6633 148.068 22.95C148.655 23.23 149.108 23.6433 149.428 24.19C149.755 24.73 149.918 25.3733 149.918 26.12V33H148.358V31.33C148.071 31.95 147.651 32.4233 147.098 32.75C146.545 33.0767 145.888 33.24 145.128 33.24C144.475 33.24 143.885 33.1133 143.358 32.86C142.831 32.6067 142.418 32.2567 142.118 31.81C141.818 31.3633 141.668 30.8567 141.668 30.29C141.668 29.7567 141.805 29.2667 142.078 28.82C142.358 28.3667 142.741 27.9967 143.228 27.71C143.721 27.4233 144.275 27.2467 144.888 27.18L147.618 26.88C147.845 26.8533 148.021 26.76 148.148 26.6C148.275 26.44 148.338 26.2067 148.338 25.9C148.338 25.4933 148.241 25.1367 148.048 24.83C147.855 24.5233 147.581 24.2867 147.228 24.12C146.881 23.9467 146.478 23.86 146.018 23.86C145.558 23.86 145.145 23.94 144.778 24.1C144.411 24.2533 144.115 24.4633 143.888 24.73C143.668 24.99 143.535 25.2733 143.488 25.58H141.888C141.968 25 142.195 24.48 142.568 24.02C142.948 23.5533 143.438 23.1867 144.038 22.92C144.638 22.6533 145.301 22.52 146.028 22.52ZM143.328 30.2C143.328 30.5467 143.418 30.8533 143.598 31.12C143.785 31.3867 144.041 31.5967 144.368 31.75C144.695 31.8967 145.068 31.97 145.488 31.97C146.061 31.97 146.561 31.8533 146.988 31.62C147.421 31.3867 147.755 31.06 147.988 30.64C148.221 30.2133 148.338 29.7233 148.338 29.17V28L145.108 28.36C144.575 28.42 144.145 28.62 143.818 28.96C143.491 29.3 143.328 29.7133 143.328 30.2ZM153.121 22.76H154.661V24.49C154.968 23.8567 155.391 23.37 155.931 23.03C156.478 22.69 157.118 22.52 157.851 22.52C158.618 22.52 159.284 22.7033 159.851 23.07C160.418 23.4367 160.841 23.9533 161.121 24.62C161.448 23.9533 161.904 23.4367 162.491 23.07C163.078 22.7033 163.754 22.52 164.521 22.52C165.248 22.52 165.891 22.6867 166.451 23.02C167.018 23.3467 167.458 23.8133 167.771 24.42C168.084 25.0267 168.241 25.7333 168.241 26.54V33H166.641V26.61C166.641 25.7633 166.428 25.0967 166.001 24.61C165.581 24.1233 164.988 23.88 164.221 23.88C163.674 23.88 163.194 24.0067 162.781 24.26C162.368 24.5067 162.048 24.86 161.821 25.32C161.594 25.7733 161.481 26.31 161.481 26.93V33H159.881V26.61C159.881 25.7633 159.668 25.0967 159.241 24.61C158.821 24.1233 158.228 23.88 157.461 23.88C156.908 23.88 156.424 24.0033 156.011 24.25C155.598 24.4967 155.278 24.85 155.051 25.31C154.831 25.77 154.721 26.31 154.721 26.93V33H153.121V22.76Z" fill="#19191C"/>
<rect x="0.5" y="0.5" width="201" height="51" rx="25.5" stroke="#19191C" stroke-opacity="0.3"/>
</g>
<defs>
<filter id="filter0_b_9_3927" x="-8" y="-8" width="218" height="68" filterUnits="userSpaceOnUse" color-interpolation-filters="sRGB">
<feFlood flood-opacity="0" result="BackgroundImageFix"/>
<feGaussianBlur in="BackgroundImageFix" stdDeviation="4"/>
<feComposite in2="SourceAlpha" operator="in" result="effect1_backgroundBlur_9_3927"/>
<feBlend mode="normal" in="SourceGraphic" in2="effect1_backgroundBlur_9_3927" result="shape"/>
</filter>
</defs>
</svg>
