<svg width="200" height="100" viewBox="0 0 200 100" fill="none" xmlns="http://www.w3.org/2000/svg">
<rect width="200" height="100" rx="4" fill="black"/>
<path d="M119.08 54.1393C118.41 54.1393 117.76 54.2593 117.16 54.4793C113.99 47.8693 107.24 43.2993 99.42 43.2993C91.6 43.2993 84.85 47.8693 81.68 54.4793C81.08 54.2693 80.43 54.1393 79.76 54.1393C76.59 54.1393 74.03 56.7093 74.03 59.8693C74.03 63.0293 76.6 65.5993 79.76 65.5993C79.82 65.5993 79.88 65.5993 79.94 65.5993C81.23 75.2093 89.46 82.6193 99.42 82.6193C109.38 82.6193 117.61 75.2093 118.9 65.5993C118.96 65.5993 119.02 65.5993 119.08 65.5993C122.25 65.5993 124.81 63.0293 124.81 59.8693C124.81 56.7093 122.24 54.1393 119.08 54.1393Z" fill="white"/>
<path d="M104.01 60.0395V62.9795C104.01 63.7194 104.62 64.3295 105.36 64.3295C106.1 64.3295 106.71 63.7295 106.71 62.9795V60.0395C106.71 59.2995 106.1 58.6895 105.36 58.6895C104.62 58.6895 104.01 59.2895 104.01 60.0395Z" fill="black"/>
<path d="M92.13 60.0395V62.9795C92.13 63.7194 92.74 64.3295 93.48 64.3295C94.22 64.3295 94.83 63.7295 94.83 62.9795V60.0395C94.83 59.2995 94.22 58.6895 93.48 58.6895C92.74 58.6895 92.13 59.2895 92.13 60.0395Z" fill="black"/>
<path d="M133.53 47.8393H119.08V34.3793C119.08 27.4793 115.52 21.4193 110.13 17.9193C108.38 16.7793 105.96 17.0593 104.65 18.6893C103.49 20.1393 101.7 21.0693 99.69 21.0693C97.68 21.0693 95.92 20.1493 94.76 18.7093C93.38 17.0093 91.02 16.4593 89.15 17.5993C83.51 21.0493 79.75 27.2693 79.75 34.3693V47.8293H66.6C64.61 47.8293 63 49.4393 63 51.4293C63 53.4193 64.61 55.0293 66.6 55.0293H133.52C135.51 55.0293 137.12 53.4193 137.12 51.4293C137.12 49.4393 135.51 47.8293 133.52 47.8293L133.53 47.8393Z" fill="#6B57FF"/>
</svg>
