<?xml version="1.0" encoding="utf-8"?>
<!-- Generator: Adobe Illustrator 26.3.1, SVG Export Plug-In . SVG Version: 6.00 Build 0)  -->
<svg version="1.1" id="Layer_1" xmlns="http://www.w3.org/2000/svg" xmlns:xlink="http://www.w3.org/1999/xlink" x="0px" y="0px"
	 viewBox="0 0 200 100" style="enable-background:new 0 0 200 100;" xml:space="preserve">
<style type="text/css">
	.st0{fill:url(#SVGID_1_);}
	.st1{fill:#FFFFFF;}
	.st2{fill:#BFBFBF;}
	.st3{fill:url(#SVGID_00000165923117974115943600000002372169845512090790_);}
	.st4{fill:#B74AF7;}
	.st5{fill:url(#SVGID_00000020361117225502386770000004602131412761231283_);}
	.st6{fill:url(#SVGID_00000040557727941814300330000007292101763689995924_);}
	.st7{fill:url(#SVGID_00000142883920623580892220000003174999197219860887_);}
	.st8{fill:url(#SVGID_00000039849388623942482660000013155435108939928737_);}
	.st9{fill:url(#SVGID_00000090974323621667727660000012733759495211902613_);}
	.st10{fill:url(#SVGID_00000080922378610143376860000009274477465750626973_);}
	.st11{fill:url(#SVGID_00000163052915538582429330000009331277712231250309_);}
	.st12{fill:url(#SVGID_00000072238158651368149440000012545482713409191079_);}
	.st13{fill:url(#SVGID_00000057122255665699451040000016566595493273294215_);}
	.st14{fill:url(#SVGID_00000072970451769208083310000011388070294312951216_);}
	.st15{fill:url(#SVGID_00000118389228444204798400000000873164327824562824_);}
	.st16{fill:url(#SVGID_00000171700525865815070640000006737909448668538504_);}
	.st17{fill:url(#SVGID_00000180364527292280321310000000440129024804191130_);}
	.st18{fill:url(#SVGID_00000045583177757608897460000008288328879544407729_);}
	.st19{fill:url(#SVGID_00000065796513658065496170000006966443751645390470_);}
	.st20{fill:url(#SVGID_00000163049074108381101110000009591271414840561577_);}
	.st21{fill:url(#SVGID_00000147184761062712248090000009048250998900223887_);}
	.st22{fill:url(#SVGID_00000170240585682945841600000017539449522832359093_);}
	.st23{fill:url(#SVGID_00000043454844897096555960000010865862839980282029_);}
	.st24{fill:url(#SVGID_00000167394110797428432360000012454484203923698595_);}
	.st25{fill:url(#SVGID_00000116945241169295878630000001801715463936787619_);}
	.st26{fill:url(#SVGID_00000036963478370589431020000002214025139894267052_);}
	.st27{fill:url(#SVGID_00000113314455243916787770000013462309040057192599_);}
	.st28{fill:url(#SVGID_00000142151115965367813460000010832036677921572993_);}
	.st29{fill:url(#SVGID_00000071517648115963234630000008659777759041983617_);}
	.st30{fill:url(#SVGID_00000016036632984041350990000012555044941690488764_);}
	.st31{fill:url(#SVGID_00000078009171055471382300000014713513512565660559_);}
	.st32{fill:url(#SVGID_00000098216578432244162970000001235860375606835097_);}
	.st33{fill:url(#SVGID_00000078003762140303815560000011787922538180564413_);}
	.st34{fill:#6B57FF;}
	.st35{fill:url(#SVGID_00000008842253112580475150000016163629321862413238_);}
	.st36{fill:#FDB60D;}
	.st37{fill:#FFFFFF;stroke:#FDB60D;stroke-miterlimit:10;}
	.st38{fill:url(#SVGID_00000018922623888937735970000005597191597066030260_);}
	.st39{fill:url(#SVGID_00000000918001975077327200000003575800795188506023_);}
	.st40{fill:#FF008B;}
	.st41{fill:url(#SVGID_00000052819432154717932960000002622207411271844256_);}
	.st42{fill:none;stroke:#000000;stroke-miterlimit:10;}
</style>
<g>
	
		<radialGradient id="SVGID_1_" cx="-345.7886" cy="0.3529" r="128.7522" gradientTransform="matrix(1 0 0 -1 445.552 100)" gradientUnits="userSpaceOnUse">
		<stop  offset="0" style="stop-color:#000000"/>
		<stop  offset="1" style="stop-color:#595959"/>
	</radialGradient>
	<path class="st0" d="M14,99.5C6.6,99.5,0.5,93.4,0.5,86V14C0.5,6.6,6.6,0.5,14,0.5h172c7.4,0,13.5,6.1,13.5,13.5v72
		c0,7.4-6.1,13.5-13.5,13.5H14z"/>
	<path class="st1" d="M186,1c7.2,0,13,5.8,13,13v72c0,7.2-5.8,13-13,13H14C6.8,99,1,93.2,1,86V14C1,6.8,6.8,1,14,1H186 M186,0H14
		C6.3,0,0,6.3,0,14v72c0,7.7,6.3,14,14,14h172c7.7,0,14-6.3,14-14V14C200,6.3,193.7,0,186,0L186,0z"/>
</g>
<g>
	<g>
		<g>
			<g>
				<g>
					<path class="st1" d="M119.7,48.4c-0.7,0-1.3,0.1-1.9,0.3c-3.2-6.6-9.9-11.2-17.7-11.2c-7.8,0-14.6,4.6-17.7,11.2
						c-0.6-0.2-1.2-0.3-1.9-0.3c-3.2,0-5.7,2.6-5.7,5.7c0,3.2,2.6,5.7,5.7,5.7c0.1,0,0.1,0,0.2,0c1.3,9.6,9.5,17,19.5,17
						c10,0,18.2-7.4,19.5-17c0.1,0,0.1,0,0.2,0c3.2,0,5.7-2.6,5.7-5.7C125.4,51,122.8,48.4,119.7,48.4z"/>
				</g>
			</g>
			<g>
				<path d="M104.6,54.3l0,2.9c0,0.7,0.6,1.3,1.3,1.3l0,0c0.7,0,1.3-0.6,1.3-1.3l0-2.9c0-0.7-0.6-1.3-1.3-1.3l0,0
					C105.2,53,104.6,53.6,104.6,54.3z"/>
				<path d="M92.7,54.3l0,2.9c0,0.7,0.6,1.3,1.3,1.3l0,0c0.7,0,1.3-0.6,1.3-1.3l0-2.9c0-0.7-0.6-1.3-1.3-1.3l0,0
					C93.3,53,92.7,53.6,92.7,54.3z"/>
			</g>
		</g>
	</g>
	<path class="st34" d="M134.1,42.1h-14.4V28.6c0-6.9-3.6-13-8.9-16.5c-1.8-1.1-4.2-0.9-5.5,0.8c-1.2,1.5-2.9,2.4-5,2.4
		c-2,0-3.8-0.9-4.9-2.4c-1.4-1.7-3.7-2.2-5.6-1.1c-5.6,3.5-9.4,9.7-9.4,16.8v13.5H67.2c-2,0-3.6,1.6-3.6,3.6s1.6,3.6,3.6,3.6h66.9
		c2,0,3.6-1.6,3.6-3.6S136.1,42.1,134.1,42.1z"/>
</g>
</svg>
