<?xml version="1.0" encoding="utf-8"?>
<!-- Generator: Adobe Illustrator 26.3.1, SVG Export Plug-In . SVG Version: 6.00 Build 0)  -->
<svg version="1.1" id="Layer_1" xmlns="http://www.w3.org/2000/svg" xmlns:xlink="http://www.w3.org/1999/xlink" x="0px" y="0px"
	 viewBox="0 0 200 100" style="enable-background:new 0 0 200 100;" xml:space="preserve">
<style type="text/css">
	.st0{fill:url(#SVGID_1_);}
	.st1{fill:#FFFFFF;}
	.st2{fill:#6B57FF;}
	.st3{fill:#BFBFBF;}
	.st4{fill:url(#SVGID_00000047783096686140833560000012760021774012052104_);}
	.st5{fill:#B74AF7;}
	.st6{fill:url(#SVGID_00000047048542341416726140000003897690115141163178_);}
	.st7{fill:url(#SVGID_00000076591728916111016150000014858281844663873975_);}
	.st8{fill:url(#SVGID_00000062893693457976617160000016441323097024374963_);}
	.st9{fill:url(#SVGID_00000176027875597448107590000017167475958496457856_);}
	.st10{fill:url(#SVGID_00000070117314815664110210000012863822731216218020_);}
	.st11{fill:url(#SVGID_00000023986885324543909870000009947321771963381932_);}
	.st12{fill:url(#SVGID_00000152260121637994209500000011937773206054742707_);}
	.st13{fill:url(#SVGID_00000168081523975945029920000009259551349975759505_);}
	.st14{fill:url(#SVGID_00000025420861883379859930000010340661140905970340_);}
	.st15{fill:url(#SVGID_00000183249484742317314120000001415086403403786141_);}
	.st16{fill:url(#SVGID_00000039818001355229797610000017639775457083261101_);}
	.st17{fill:url(#SVGID_00000134928759985577464250000004402825766285261216_);}
	.st18{fill:url(#SVGID_00000166673592566603989180000008012282134789464481_);}
	.st19{fill:url(#SVGID_00000068639682879324672560000000322811436032782988_);}
	.st20{fill:url(#SVGID_00000047039035523015123770000003022007286419872953_);}
	.st21{fill:url(#SVGID_00000069393503306880100560000001150595813214232238_);}
	.st22{fill:url(#SVGID_00000116925358010709952990000004958575214815337351_);}
	.st23{fill:url(#SVGID_00000062906019112280651910000006413910095075736199_);}
	.st24{fill:url(#SVGID_00000180330477492646083390000004873247119302472593_);}
	.st25{fill:url(#SVGID_00000056413741163940103070000013366696916637800576_);}
	.st26{fill:url(#SVGID_00000144328033437362414030000013380662587936516798_);}
	.st27{fill:url(#SVGID_00000080888628951172681300000007776374266198235828_);}
	.st28{fill:url(#SVGID_00000096738994045243314370000004983027330091156916_);}
	.st29{fill:url(#SVGID_00000013901887284306490900000017301910752762118275_);}
	.st30{fill:url(#SVGID_00000093893055696019506630000002745794134442129299_);}
	.st31{fill:url(#SVGID_00000111880310675319451880000001516641628174532505_);}
	.st32{fill:url(#SVGID_00000115495485053610425420000009413204481196353156_);}
	.st33{fill:url(#SVGID_00000057142905324802918160000014923612844920738436_);}
	.st34{fill:url(#SVGID_00000028321622733881592890000009804618108831158453_);}
	.st35{fill:url(#SVGID_00000169532190821947024680000002324764200540426386_);}
	.st36{fill:#FDB60D;}
	.st37{fill:#FFFFFF;stroke:#FDB60D;stroke-miterlimit:10;}
	.st38{fill:url(#SVGID_00000028316247188450184080000008203779790640674227_);}
	.st39{fill:url(#SVGID_00000157304708329217784350000012331091254338914212_);}
	.st40{fill:#FF008B;}
	.st41{fill:url(#SVGID_00000086693916723086852750000012967588681465317276_);}
	.st42{fill:none;stroke:#000000;stroke-miterlimit:10;}
</style>
<g>
	
		<radialGradient id="SVGID_1_" cx="99.7643" cy="0.3529" r="133.764" gradientTransform="matrix(-1 0 0 -1 199.9999 100)" gradientUnits="userSpaceOnUse">
		<stop  offset="0" style="stop-color:#BFBFBF"/>
		<stop  offset="1" style="stop-color:#595959"/>
	</radialGradient>
	<path class="st0" d="M14,99.5C6.6,99.5,0.5,93.4,0.5,86V14C0.5,6.6,6.6,0.5,14,0.5h172c7.4,0,13.5,6.1,13.5,13.5v72
		c0,7.4-6.1,13.5-13.5,13.5H14z"/>
	<g>
		<path class="st1" d="M186,1c7.2,0,13,5.8,13,13v72c0,7.2-5.8,13-13,13H14C6.8,99,1,93.2,1,86V14C1,6.8,6.8,1,14,1H186 M186,0H14
			C6.3,0,0,6.3,0,14v72c0,7.7,6.3,14,14,14h172c7.7,0,14-6.3,14-14V14C200,6.3,193.7,0,186,0L186,0z"/>
	</g>
</g>
<g>
	<path class="st5" d="M62.4,83.4c0-20.8,16.9-37.6,37.6-37.6s37.6,16.9,37.6,37.6H62.4z"/>
	<path class="st1" d="M118.7,57.3c-0.6,0-1.3,0.1-1.8,0.3c-3-6.3-9.5-10.7-17-10.7c-7.5,0-14,4.4-17,10.7c-0.6-0.2-1.2-0.3-1.8-0.3
		c-3,0-5.5,2.5-5.5,5.5c0,3,2.5,5.5,5.5,5.5c0.1,0,0.1,0,0.2,0c1.2,9.2,9.1,16.3,18.6,16.3c9.5,0,17.4-7.1,18.6-16.3
		c0.1,0,0.1,0,0.2,0c3,0,5.5-2.5,5.5-5.5C124.2,59.8,121.7,57.3,118.7,57.3z"/>
	<circle class="st5" cx="99.9" cy="28.1" r="18.8"/>
	<g>
		<path d="M104.9,65l0,2.8c0,0.7,0.6,1.3,1.3,1.3l0,0c0.7,0,1.3-0.6,1.3-1.3l0-2.8c0-0.7-0.6-1.3-1.3-1.3l0,0
			C105.5,63.7,104.9,64.3,104.9,65z"/>
		<path d="M93.6,65l0,2.8c0,0.7,0.6,1.3,1.3,1.3l0,0c0.7,0,1.3-0.6,1.3-1.3l0-2.8c0-0.7-0.6-1.3-1.3-1.3l0,0
			C94.1,63.7,93.6,64.3,93.6,65z"/>
	</g>
	<path class="st5" d="M116.9,56.4c-3-6.3-9.5-10.7-17-10.7c-7.5,0-14,4.4-17,10.7H116.9z"/>
</g>
</svg>
