<svg width="200" height="100" viewBox="0 0 200 100" fill="none" xmlns="http://www.w3.org/2000/svg">
<rect width="200" height="100" rx="4" fill="#EA338A"/>
<path d="M117.1 12H82.12C83.59 16.5 86.23 20.31 86.63 25.15C87.01 29.7 85.77 34.2 83.48 38.12C77.29 48.74 83.48 60.38 83.48 60.38H118.47C118.47 60.38 112.28 48.74 118.47 38.12C120.76 34.2 122 29.7 121.62 25.15C121.22 20.31 118.57 16.5 117.11 12H117.1Z" fill="#AF1DF5"/>
<path d="M120.05 59.7001C119.38 59.7001 118.73 59.8201 118.13 60.0401C114.96 53.4301 108.21 48.8601 100.39 48.8601C92.57 48.8601 85.82 53.4301 82.65 60.0401C82.05 59.8301 81.4 59.7001 80.73 59.7001C77.56 59.7001 75 62.2701 75 65.4301C75 68.6001 77.57 71.1601 80.73 71.1601C80.79 71.1601 80.85 71.1601 80.91 71.1601C82.2 80.7701 90.43 88.1801 100.39 88.1801C110.35 88.1801 118.58 80.7701 119.87 71.1601C119.93 71.1601 119.99 71.1601 120.05 71.1601C123.22 71.1601 125.78 68.5901 125.78 65.4301C125.78 62.2701 123.21 59.7001 120.05 59.7001Z" fill="white"/>
<path d="M104.98 65.61V68.55C104.98 69.29 105.59 69.9 106.33 69.9C107.07 69.9 107.68 69.3 107.68 68.55V65.61C107.68 64.87 107.07 64.26 106.33 64.26C105.59 64.26 104.98 64.86 104.98 65.61Z" fill="black"/>
<path d="M93.1 65.61V68.55C93.1 69.29 93.71 69.9 94.45 69.9C95.19 69.9 95.8 69.3 95.8 68.55V65.61C95.8 64.87 95.19 64.26 94.45 64.26C93.71 64.26 93.1 64.86 93.1 65.61Z" fill="black"/>
</svg>
