<?xml version="1.0" encoding="utf-8"?>
<!-- Generator: Adobe Illustrator 26.3.1, SVG Export Plug-In . SVG Version: 6.00 Build 0)  -->
<svg version="1.1" id="Layer_1" xmlns="http://www.w3.org/2000/svg" xmlns:xlink="http://www.w3.org/1999/xlink" x="0px" y="0px"
	 viewBox="0 0 200 100" style="enable-background:new 0 0 200 100;" xml:space="preserve">
<style type="text/css">
	.st0{fill:url(#SVGID_1_);}
	.st1{fill:#FFFFFF;}
	.st2{fill:#BFBFBF;}
	.st3{fill:url(#SVGID_00000027602936948967122170000010640617704404014213_);}
	.st4{fill:#B74AF7;}
	.st5{fill:url(#SVGID_00000088845407880077545350000008113165873634715287_);}
	.st6{fill:url(#SVGID_00000127035448220919402540000007313909465362116267_);}
	.st7{fill:url(#SVGID_00000144321413303297080990000009282973331290692028_);}
	.st8{fill:url(#SVGID_00000131338158018007464560000002281017558178635148_);}
	.st9{fill:url(#SVGID_00000045585780123739288510000009888598204072037792_);}
	.st10{fill:url(#SVGID_00000067231375319064469210000017794429904496129164_);}
	.st11{fill:url(#SVGID_00000124159299467777049810000002167901994231131023_);}
	.st12{fill:url(#SVGID_00000076585305846254818130000009319353815409435313_);}
	.st13{fill:url(#SVGID_00000065786447240990653210000017196666532636202424_);}
	.st14{fill:url(#SVGID_00000031195685233409982520000000453320047571407024_);}
	.st15{fill:url(#SVGID_00000013155475870912605090000014953090411021798827_);}
	.st16{fill:url(#SVGID_00000045620463349251765690000000012074080452094620_);}
	.st17{fill:url(#SVGID_00000095337165688763655410000004548551566394814903_);}
	.st18{fill:url(#SVGID_00000108308598123671572450000002718297158597186440_);}
	.st19{fill:url(#SVGID_00000034780641506387958030000001458362288414907828_);}
	.st20{fill:url(#SVGID_00000145038448898813934340000005011061825783543189_);}
	.st21{fill:url(#SVGID_00000000215268549815778730000013468730564281443743_);}
	.st22{fill:url(#SVGID_00000131356933041747788320000002905053810877840285_);}
	.st23{fill:url(#SVGID_00000036232632843730662150000000742778251006581425_);}
	.st24{fill:url(#SVGID_00000090282422715573608840000007339023873839384760_);}
	.st25{fill:url(#SVGID_00000000209952588657560920000005287056498552760467_);}
	.st26{fill:url(#SVGID_00000014615956382869612700000002168120458094459316_);}
	.st27{fill:url(#SVGID_00000167365746622779830750000003405614125487868293_);}
	.st28{fill:url(#SVGID_00000154410799637112600020000011077390325374316725_);}
	.st29{fill:url(#SVGID_00000069375410542593835550000005993724672632797101_);}
	.st30{fill:url(#SVGID_00000181787402618600375290000009178496084248379571_);}
	.st31{fill:url(#SVGID_00000097484009815500152300000009086494732352069051_);}
	.st32{fill:url(#SVGID_00000127755257602439913360000004282737175585615267_);}
	.st33{fill:url(#SVGID_00000137095642270348425290000005312667732888134280_);}
	.st34{fill:#6B57FF;}
	.st35{fill:url(#SVGID_00000008124770276190993040000003108405720060134564_);}
	.st36{fill:#FDB60D;}
	.st37{fill:#FFFFFF;stroke:#FDB60D;stroke-miterlimit:10;}
	.st38{fill:url(#SVGID_00000179629388104453956540000006994114284011093432_);}
	.st39{fill:url(#SVGID_00000026848707208893963710000010106704369972854968_);}
	.st40{fill:#FF008B;}
	.st41{fill:url(#SVGID_00000047773506633553245470000004561140217162340537_);}
	.st42{fill:none;stroke:#000000;stroke-miterlimit:10;}
</style>
<g>
	
		<radialGradient id="SVGID_1_" cx="99.764" cy="0.3529" r="133.764" gradientTransform="matrix(1 0 0 -1 0 100)" gradientUnits="userSpaceOnUse">
		<stop  offset="3.435144e-03" style="stop-color:#FE2857"/>
		<stop  offset="1" style="stop-color:#AF1DF5"/>
	</radialGradient>
	<path class="st0" d="M14,99.5C6.6,99.5,0.5,93.4,0.5,86V14C0.5,6.6,6.6,0.5,14,0.5h172c7.4,0,13.5,6.1,13.5,13.5v72
		c0,7.4-6.1,13.5-13.5,13.5H14z"/>
	<path class="st1" d="M186,1c7.2,0,13,5.8,13,13v72c0,7.2-5.8,13-13,13H14C6.8,99,1,93.2,1,86V14C1,6.8,6.8,1,14,1H186 M186,0H14
		C6.3,0,0,6.3,0,14v72c0,7.7,6.3,14,14,14h172c7.7,0,14-6.3,14-14V14C200,6.3,193.7,0,186,0L186,0z"/>
</g>
<g>
	<path d="M116.7,9.2h-35c1.5,4.5,4.1,8.3,4.5,13.2c0.4,4.6-0.9,9-3.1,13c-6.2,10.6,0,22.3,0,22.3h35c0,0-6.2-11.6,0-22.3
		c2.3-3.9,3.5-8.4,3.1-13C120.8,17.5,118.2,13.7,116.7,9.2z"/>
	<g>
		<path class="st1" d="M119.7,56.9c-0.7,0-1.3,0.1-1.9,0.3C114.6,50.6,107.8,46,100,46c-7.8,0-14.6,4.6-17.7,11.2
			c-0.6-0.2-1.2-0.3-1.9-0.3c-3.2,0-5.7,2.6-5.7,5.7c0,3.2,2.6,5.7,5.7,5.7c0.1,0,0.1,0,0.2,0c1.3,9.6,9.5,17,19.5,17
			c10,0,18.2-7.4,19.5-17c0.1,0,0.1,0,0.2,0c3.2,0,5.7-2.6,5.7-5.7C125.4,59.5,122.8,56.9,119.7,56.9z"/>
	</g>
	<g>
		<path d="M104.6,62.8l0,2.9c0,0.7,0.6,1.3,1.3,1.3l0,0c0.7,0,1.3-0.6,1.3-1.3l0-2.9c0-0.7-0.6-1.3-1.3-1.3l0,0
			C105.2,61.4,104.6,62,104.6,62.8z"/>
		<path d="M92.7,62.8l0,2.9c0,0.7,0.6,1.3,1.3,1.3l0,0c0.7,0,1.3-0.6,1.3-1.3l0-2.9c0-0.7-0.6-1.3-1.3-1.3l0,0
			C93.3,61.4,92.7,62,92.7,62.8z"/>
	</g>
</g>
</svg>
