<?xml version="1.0" encoding="utf-8"?>
<!-- Generator: Adobe Illustrator 26.3.1, SVG Export Plug-In . SVG Version: 6.00 Build 0)  -->
<svg version="1.1" id="Layer_1" xmlns="http://www.w3.org/2000/svg" xmlns:xlink="http://www.w3.org/1999/xlink" x="0px" y="0px"
	 viewBox="0 0 200 100" style="enable-background:new 0 0 200 100;" xml:space="preserve">
<style type="text/css">
	.st0{fill:url(#SVGID_1_);}
	.st1{fill:#FFFFFF;}
	.st2{fill:#6B57FF;}
	.st3{fill:#BFBFBF;}
	.st4{fill:url(#SVGID_00000133493432528520957120000007815592647938251684_);}
	.st5{fill:#B74AF7;}
	.st6{fill:url(#SVGID_00000063618576152890117990000017096590294608774588_);}
	.st7{fill:url(#SVGID_00000158727021075060758710000004064143584992320152_);}
	.st8{fill:url(#SVGID_00000155852792835098583490000011557668477967013254_);}
	.st9{fill:url(#SVGID_00000149382409424425466270000011716034541940947385_);}
	.st10{fill:url(#SVGID_00000139283541798374653300000012183698665850937518_);}
	.st11{fill:url(#SVGID_00000007417692798964461040000014601336260523246523_);}
	.st12{fill:url(#SVGID_00000065051607367240829730000007213631972640362383_);}
	.st13{fill:url(#SVGID_00000054972929390279444290000015902901011413094298_);}
	.st14{fill:url(#SVGID_00000021809037233152442830000012379104108445784472_);}
	.st15{fill:url(#SVGID_00000129898810001610267940000000020987636118997132_);}
	.st16{fill:url(#SVGID_00000126321994073225080080000004777204719554675890_);}
	.st17{fill:url(#SVGID_00000116945559741105491820000006590974773056526508_);}
	.st18{fill:url(#SVGID_00000111907488866396829170000017799087750111566765_);}
	.st19{fill:url(#SVGID_00000179645576582413349190000003688369658185672091_);}
	.st20{fill:url(#SVGID_00000158740178792921858430000013506060927472412291_);}
	.st21{fill:url(#SVGID_00000132780070543791968940000013911277081869350065_);}
	.st22{fill:url(#SVGID_00000183226475983241128570000004098990190136161948_);}
	.st23{fill:url(#SVGID_00000168809061082050321850000003292580709161305016_);}
	.st24{fill:url(#SVGID_00000112626627981057811880000012127983171593575562_);}
	.st25{fill:url(#SVGID_00000124863063394790553400000016831923676579490176_);}
	.st26{fill:url(#SVGID_00000039102965847313046240000013649193778055542955_);}
	.st27{fill:url(#SVGID_00000126298020271836103560000011078897133854674108_);}
	.st28{fill:url(#SVGID_00000168824853699786253590000015124994876385930632_);}
	.st29{fill:url(#SVGID_00000074434559694148022750000015981355079916036505_);}
	.st30{fill:url(#SVGID_00000052085141573514844430000010295093711803149996_);}
	.st31{fill:url(#SVGID_00000020389326360979634620000007280753583980935071_);}
	.st32{fill:url(#SVGID_00000183941834327478342000000008945520283809336978_);}
	.st33{fill:url(#SVGID_00000129166465089459990630000010623786083641211293_);}
	.st34{fill:url(#SVGID_00000104698210825896815090000008233380524079721648_);}
	.st35{fill:url(#SVGID_00000070835601788248639850000016960197599240407437_);}
	.st36{fill:#FDB60D;}
	.st37{fill:#FFFFFF;stroke:#FDB60D;stroke-miterlimit:10;}
	.st38{fill:url(#SVGID_00000146490394227294183830000010532905646194283397_);}
	.st39{fill:url(#SVGID_00000065075164728161546190000010508944585207317659_);}
	.st40{fill:#FF008B;}
	.st41{fill:url(#SVGID_00000062164399621567062220000014815549511995416254_);}
	.st42{fill:none;stroke:#000000;stroke-miterlimit:10;}
</style>
<g>
	
		<radialGradient id="SVGID_1_" cx="99.764" cy="0.3529" r="133.764" gradientTransform="matrix(1 0 0 -1 0 100)" gradientUnits="userSpaceOnUse">
		<stop  offset="0" style="stop-color:#AF1DF5"/>
		<stop  offset="1" style="stop-color:#6B57FF"/>
	</radialGradient>
	<path class="st0" d="M14,99.5C6.6,99.5,0.5,93.4,0.5,86V14C0.5,6.6,6.6,0.5,14,0.5h172c7.4,0,13.5,6.1,13.5,13.5v72
		c0,7.4-6.1,13.5-13.5,13.5H14z"/>
	<path class="st1" d="M186,1c7.2,0,13,5.8,13,13v72c0,7.2-5.8,13-13,13H14C6.8,99,1,93.2,1,86V14C1,6.8,6.8,1,14,1H186 M186,0H14
		C6.3,0,0,6.3,0,14v72c0,7.7,6.3,14,14,14h172c7.7,0,14-6.3,14-14V14C200,6.3,193.7,0,186,0L186,0z"/>
</g>
<g>
	<g>
		<g>
			<g>
				<path class="st1" d="M111.4,48.4c-0.7,0-1.3,0.1-1.9,0.3c-3.2-6.6-9.9-11.2-17.7-11.2c-7.8,0-14.6,4.6-17.7,11.2
					c-0.6-0.2-1.2-0.3-1.9-0.3c-3.2,0-5.7,2.6-5.7,5.7c0,3.2,2.6,5.7,5.7,5.7c0.1,0,0.1,0,0.2,0c1.3,9.6,9.5,17,19.5,17
					c10,0,18.2-7.4,19.5-17c0.1,0,0.1,0,0.2,0c3.2,0,5.7-2.6,5.7-5.7C117.1,51,114.5,48.4,111.4,48.4z"/>
			</g>
		</g>
		<g>
			<path d="M96.3,54.3l0,2.9c0,0.7,0.6,1.3,1.3,1.3l0,0c0.7,0,1.3-0.6,1.3-1.3l0-2.9c0-0.7-0.6-1.3-1.3-1.3l0,0
				C96.9,53,96.3,53.6,96.3,54.3z"/>
			<path d="M84.4,54.3l0,2.9c0,0.7,0.6,1.3,1.3,1.3l0,0c0.7,0,1.3-0.6,1.3-1.3l0-2.9c0-0.7-0.6-1.3-1.3-1.3l0,0
				C85,53,84.4,53.6,84.4,54.3z"/>
		</g>
	</g>
	<g>
		<g>
			<path class="st40" d="M104.7,42.4c-3.5-3-8-4.9-13-4.9c-5,0-9.5,1.8-13,4.9H104.7z"/>
		</g>
		<g>
			<circle class="st40" cx="92.5" cy="27.5" r="9.9"/>
		</g>
		<g>
			<circle class="st40" cx="108.1" cy="16" r="9.9"/>
		</g>
		<g>
			<circle class="st40" cx="123.8" cy="27.5" r="9.9"/>
		</g>
	</g>
</g>
</svg>
