<?xml version="1.0" encoding="utf-8"?>
<!-- Generator: Adobe Illustrator 27.2.0, SVG Export Plug-In . SVG Version: 6.00 Build 0)  -->
<svg version="1.1" id="Layer_1" xmlns="http://www.w3.org/2000/svg" xmlns:xlink="http://www.w3.org/1999/xlink" x="0px" y="0px"
	 viewBox="0 0 194 183" style="enable-background:new 0 0 194 183;" xml:space="preserve">
<style type="text/css">
	.st0{fill:#FF008B;}
	.st1{fill:#6B57FF;}
	.st2{fill:#B6B6B6;}
	.st3{fill:#FFFFFF;}
</style>
<path class="st0" d="M168.2,101.3c-1.3-0.8-1.2-2.8,0.2-3.3c1.9-0.8,3.6-2.2,4.6-4.1c2.2-4.1,0.7-9.3-3.2-11.7
	c-4.3-2.7-9.9-1.2-12.4,3.2c-1,1.8-1.3,3.9-1,5.8c0.3,1.5-1.4,2.7-2.7,1.9l-17.9-10.1l-10.3,18.2c-0.7,1.3,0.4,2.8,1.8,2.5
	c2.2-0.5,4.6-0.1,6.7,1.2c3.7,2.4,5.1,7.2,3.2,11.2c-2.2,4.7-8,6.5-12.4,4c-2-1.1-3.3-2.8-4-4.8c-0.5-1.4-2.4-1.5-3.1-0.3
	l-10.3,18.2l50.4,28.5l28.4-50.4L168.2,101.3L168.2,101.3z"/>
<path class="st1" d="M66.1,59.1c0.6-2,2-3.8,3.9-4.9c4.4-2.7,10.2-1,12.5,3.6c2,3.9,0.7,8.8-2.9,11.3c-2,1.4-4.4,1.8-6.6,1.4
	c-1.4-0.3-2.5,1.3-1.8,2.6L82.1,91l17.6-10.6c1.3-0.8,3,0.3,2.8,1.8c-0.3,2,0.1,4.2,1.4,6c2.5,3.9,7.7,5.2,11.8,3
	c4.4-2.5,5.9-8.1,3.3-12.4c-1.1-1.8-2.7-3.1-4.5-3.8c-1.5-0.5-1.7-2.5-0.3-3.3l17.6-10.6l-10.8-17.9c-0.8-1.3-2.7-1.1-3.1,0.3
	c-0.7,2.2-2.2,4.1-4.4,5.2c-3.9,2-8.8,0.9-11.4-2.7c-3-4.3-1.8-10.1,2.6-12.8c1.9-1.2,4.1-1.5,6.2-1.1c1.5,0.3,2.5-1.3,1.8-2.6
	l-10.8-17.9L52.1,41.5L63,59.4C63.7,60.7,65.6,60.5,66.1,59.1L66.1,59.1z"/>
<path class="st2" d="M84.8,112.4c-2,0.6-3.7,1.9-4.8,3.5c-0.9,1.3-2.8,1-3.3-0.4l-6-19.7l0,0l-19.7,6c-1.5,0.4-2.9-1-2.3-2.4
	c0.8-1.9,0.9-4.1,0.2-6.2c-1.5-4.4-6.2-6.9-10.7-5.7c-4.9,1.3-7.7,6.4-6.3,11.2c0.6,2,1.9,3.6,3.5,4.8c1.3,0.9,1,2.9-0.5,3.3
	l-19.7,6l6.1,20c0.4,1.4,2.3,1.7,3.1,0.4c1.2-1.9,3.1-3.4,5.5-4c4.3-1,8.7,1.3,10.3,5.4c1.9,4.9-0.8,10.2-5.7,11.7
	c-2.2,0.7-4.4,0.4-6.3-0.4c-1.3-0.6-2.8,0.7-2.3,2.1l6.1,20l30.7-9.3l24.7-7.5h0l-6-19.7c-0.4-1.5,1.1-2.8,2.5-2.2
	c1.9,0.8,4.1,0.9,6.2,0.2c4.4-1.5,6.9-6.2,5.7-10.7C94.7,113.8,89.6,111,84.8,112.4L84.8,112.4z"/>
<path class="st3" d="M45.9,119.9l3.2-1l17.1,22.2l-3.1,0.9l-4.4-5.9l-11.1,3.3l-0.3,7.3l-3.2,1L45.9,119.9z M57,133.8l-7.8-10.4
	l-0.9-1.4l0,1.6l-0.6,12.9L57,133.8z"/>
<path class="st3" d="M93.1,64.5c-1.3,0.1-2.6-0.1-3.7-0.6c-1.1-0.5-2-1.4-2.7-2.5c-0.7-1.2-1-2.4-0.9-3.7c0.1-1.2,0.7-2.4,1.6-3.4
	c-1.5,0.4-2.9,0.4-4.3-0.1s-2.4-1.5-3.3-2.8c-0.7-1.2-1.1-2.4-1-3.8c0-1.3,0.4-2.6,1.2-3.7c0.8-1.2,1.8-2.2,3.2-3l9.2-5.6l13.6,22.4
	l-9,5.5C95.8,63.9,94.4,64.3,93.1,64.5z M91.2,53.3c-0.8,0.5-1.4,1.1-1.8,1.7c-0.4,0.7-0.6,1.4-0.6,2.1s0.2,1.5,0.7,2.2
	c0.4,0.7,1,1.3,1.7,1.6c0.7,0.4,1.4,0.5,2.2,0.4s1.6-0.3,2.4-0.8l6.4-3.9l-4.5-7.3L91.2,53.3z M84.8,43.2c-0.9,0.5-1.5,1.2-2,1.9
	c-0.5,0.7-0.7,1.5-0.7,2.3c0,0.8,0.2,1.6,0.7,2.4c0.5,0.8,1.1,1.3,1.8,1.7c0.7,0.4,1.5,0.5,2.4,0.5c0.9-0.1,1.7-0.4,2.6-0.9l6.6-4
	l-4.8-7.9L84.8,43.2z"/>
<path class="st3" d="M159.7,116.1c1.1,2,1.6,4.1,1.6,6.5c-0.1,2.3-0.7,4.6-2,6.8c-1.3,2.2-2.9,3.9-4.8,5.2s-4.1,1.9-6.4,2
	c-2.3,0.1-4.5-0.5-6.5-1.7c-1.7-1-3.1-2.2-4.2-3.8c-1.1-1.6-1.8-3.2-2-5c-0.3-1.8-0.1-3.4,0.4-4.8l2.7,1.5c-0.3,1-0.3,2.2-0.1,3.4
	c0.3,1.2,0.8,2.4,1.6,3.5c0.8,1.1,1.8,2,3,2.7c1.6,0.9,3.2,1.3,4.9,1.2c1.7-0.1,3.3-0.6,4.8-1.6c1.5-1,2.8-2.4,3.8-4.2
	s1.6-3.6,1.6-5.4c0.1-1.8-0.3-3.5-1.1-5c-0.8-1.5-2-2.7-3.6-3.6c-1.2-0.7-2.5-1.1-3.9-1.2c-1.4-0.1-2.6,0-3.8,0.5
	c-1.2,0.4-2.2,1-2.9,1.8l-2.7-1.5c1-1.2,2.3-2.2,3.9-2.8c1.6-0.7,3.4-0.9,5.3-0.8c1.9,0.1,3.7,0.7,5.4,1.6
	C156.9,112.5,158.5,114.1,159.7,116.1z"/>
</svg>
