<svg width="194" height="183" viewBox="0 0 194 183" fill="none" xmlns="http://www.w3.org/2000/svg">
<path d="M168.214 101.268C166.867 100.507 166.973 98.5055 168.413 97.9365C170.319 97.182 171.976 95.7678 173.008 93.798C175.159 89.6958 173.742 84.5447 169.793 82.1141C165.47 79.4521 159.843 80.9293 157.372 85.3028C156.338 87.1338 156.023 89.1747 156.339 91.0996C156.591 92.6386 154.953 93.7838 153.593 93.0168L135.694 82.9155L125.402 101.134C124.678 102.415 125.794 103.98 127.234 103.677C129.444 103.212 131.841 103.581 133.918 104.926C137.619 107.323 139.005 112.151 137.134 116.138C134.908 120.875 129.174 122.642 124.697 120.115C122.737 119.009 121.359 117.273 120.671 115.305C120.185 113.914 118.268 113.761 117.544 115.044L107.252 133.262L157.669 161.714L186.113 111.363L168.215 101.264L168.214 101.268Z" fill="#FF008B"/>
<path d="M66.0801 59.0954C66.7093 57.1099 68.0373 55.335 69.9619 54.1732C74.3644 51.5206 80.1465 53.1252 82.5116 57.798C84.5017 61.7317 83.2584 66.5951 79.6294 69.0949C77.5938 70.4977 75.2081 70.9351 72.9847 70.5317C71.536 70.2694 70.4669 71.8658 71.228 73.1261L82.0544 91.0474L99.646 80.4476C100.971 79.6497 102.661 80.728 102.452 82.2585C102.174 84.2874 102.593 86.4263 103.803 88.2945C106.324 92.1854 111.508 93.4863 115.566 91.2485C120.009 88.7971 121.484 83.1744 118.885 78.8726C117.797 77.0716 116.171 75.7944 114.338 75.1219C112.872 74.5847 112.679 72.5942 114.014 71.7884L131.606 61.187L120.78 43.2657C120.019 42.0054 118.107 42.2061 117.663 43.6095C116.982 45.761 115.483 47.6653 113.293 48.8096C109.385 50.8504 104.498 49.6801 101.941 46.0878C98.904 41.8201 100.18 35.9616 104.58 33.3101C106.507 32.1488 108.696 31.8032 110.749 32.1738C112.202 32.4356 113.275 30.8442 112.511 29.5811L101.687 11.6626L52.1338 41.5224L62.9602 59.4437C63.7224 60.7062 65.6345 60.4999 66.0784 59.0949L66.0801 59.0954Z" fill="#6B57FF"/>
<path d="M84.8046 112.427C82.7916 113.039 81.1537 114.297 80.0525 115.907C79.1858 117.173 77.255 116.899 76.7623 115.465L70.7629 95.7518L70.7612 95.7513L51.1023 101.712C49.6219 102.16 48.2473 100.7 48.826 99.2669C49.5934 97.3684 49.7131 95.1927 48.998 93.0854C47.5091 88.6971 42.8029 86.1626 38.3187 87.3385C33.4093 88.6245 30.5971 93.7127 32.0596 98.5207C32.6726 100.532 33.9329 102.169 35.5452 103.271C36.8334 104.151 36.5321 106.128 35.0394 106.58L15.3805 112.541L21.4754 132.565C21.9044 133.973 23.8069 134.249 24.582 132.997C25.7701 131.077 27.691 129.601 30.0981 129.028C34.3875 128.009 38.8393 130.342 40.4354 134.449C42.3306 139.33 39.6546 144.695 34.7362 146.186C32.584 146.839 30.3753 146.636 28.4752 145.774C27.1314 145.164 25.7006 146.444 26.1285 147.855L32.2233 167.88L62.9264 158.573L87.6035 151.093L87.6052 151.093L81.6058 131.38C81.2191 129.926 82.6562 128.604 84.068 129.175C85.9689 129.943 88.1467 130.064 90.2554 129.351C94.6469 127.867 97.1806 123.167 96.0005 118.686C94.7099 113.78 89.615 110.967 84.8035 112.425L84.8046 112.427Z" fill="#B6B6B6"/>
</svg>
