<svg width="240" height="52" viewBox="0 0 240 52" fill="none" xmlns="http://www.w3.org/2000/svg">
<g filter="url(#filter0_b_44_6196)">
<rect width="240" height="52" rx="26" fill="#6B57FF"/>
<path d="M64.4156 19H66.0756V33H64.4156V19ZM82.4011 31.3C82.0144 31.92 81.4978 32.4 80.8511 32.74C80.2111 33.0733 79.4811 33.24 78.6611 33.24C77.7078 33.24 76.8578 33.0167 76.1111 32.57C75.3711 32.1167 74.7911 31.4833 74.3711 30.67C73.9578 29.8567 73.7511 28.9267 73.7511 27.88C73.7511 26.8333 73.9578 25.9033 74.3711 25.09C74.7911 24.2767 75.3711 23.6467 76.1111 23.2C76.8578 22.7467 77.7078 22.52 78.6611 22.52C79.4811 22.52 80.2111 22.69 80.8511 23.03C81.4978 23.3633 82.0144 23.84 82.4011 24.46V19H84.0011V33H82.4011V31.3ZM75.4311 27.88C75.4311 28.6467 75.5778 29.3267 75.8711 29.92C76.1644 30.5067 76.5744 30.9667 77.1011 31.3C77.6278 31.6267 78.2311 31.79 78.9111 31.79C79.5378 31.79 80.1011 31.6533 80.6011 31.38C81.1078 31.1 81.5144 30.71 81.8211 30.21C82.1344 29.7033 82.3278 29.1167 82.4011 28.45V27.31C82.3278 26.6433 82.1344 26.06 81.8211 25.56C81.5144 25.0533 81.1078 24.6633 80.6011 24.39C80.1011 24.11 79.5378 23.97 78.9111 23.97C78.2311 23.97 77.6278 24.1367 77.1011 24.47C76.5744 24.7967 76.1644 25.2567 75.8711 25.85C75.5778 26.4367 75.4311 27.1133 75.4311 27.88ZM91.7055 33.24C90.7321 33.24 89.8455 33.01 89.0455 32.55C88.2521 32.0833 87.6255 31.4433 87.1655 30.63C86.7121 29.81 86.4855 28.8933 86.4855 27.88C86.4855 26.8667 86.7121 25.9533 87.1655 25.14C87.6255 24.32 88.2555 23.68 89.0555 23.22C89.8555 22.7533 90.7421 22.52 91.7155 22.52C92.6888 22.52 93.5721 22.7533 94.3655 23.22C95.1588 23.68 95.7821 24.3167 96.2355 25.13C96.6955 25.9433 96.9255 26.86 96.9255 27.88C96.9255 28.9 96.6955 29.8167 96.2355 30.63C95.7821 31.4433 95.1588 32.0833 94.3655 32.55C93.5721 33.01 92.6855 33.24 91.7055 33.24ZM88.1655 27.88C88.1655 28.6467 88.3188 29.3267 88.6255 29.92C88.9388 30.5067 89.3655 30.9633 89.9055 31.29C90.4521 31.6167 91.0588 31.78 91.7255 31.78C92.3921 31.78 92.9921 31.6167 93.5255 31.29C94.0588 30.9633 94.4788 30.5067 94.7855 29.92C95.0921 29.3267 95.2455 28.6467 95.2455 27.88C95.2455 27.1133 95.0921 26.4333 94.7855 25.84C94.4788 25.2467 94.0555 24.7867 93.5155 24.46C92.9821 24.1333 92.3821 23.97 91.7155 23.97C91.0488 23.97 90.4455 24.1333 89.9055 24.46C89.3655 24.7867 88.9388 25.2467 88.6255 25.84C88.3188 26.4333 88.1655 27.1133 88.1655 27.88ZM99.5625 22.76H101.103V24.42C101.449 23.8067 101.909 23.3367 102.483 23.01C103.063 22.6833 103.733 22.52 104.493 22.52C105.226 22.52 105.876 22.6767 106.443 22.99C107.009 23.3033 107.453 23.7667 107.773 24.38C108.099 24.9867 108.263 25.7167 108.263 26.57V33H106.663V26.73C106.663 25.8433 106.433 25.1533 105.973 24.66C105.513 24.1667 104.879 23.92 104.073 23.92C103.499 23.92 102.993 24.0467 102.553 24.3C102.113 24.5533 101.769 24.91 101.523 25.37C101.283 25.8233 101.163 26.3433 101.163 26.93V33H99.5625V22.76ZM110.225 23.01H110.535C111.009 23.01 111.385 22.8467 111.665 22.52C111.945 22.1933 112.085 21.7533 112.085 21.2H110.865V19.01H113.195V21.06C113.195 21.66 113.085 22.1833 112.865 22.63C112.652 23.07 112.345 23.41 111.945 23.65C111.545 23.8833 111.075 24 110.535 24H110.225V23.01ZM119.532 33C119.046 33 118.602 32.8967 118.202 32.69C117.809 32.4767 117.499 32.1867 117.272 31.82C117.046 31.4467 116.932 31.0333 116.932 30.58L116.922 24.18H115.122L115.132 22.76H116.242C116.496 22.76 116.699 22.68 116.852 22.52C117.012 22.36 117.092 22.1567 117.092 21.91V20.26H118.532V22.76H121.002L120.992 24.18H118.522L118.532 30.48C118.532 30.7933 118.636 31.0567 118.842 31.27C119.056 31.4767 119.319 31.58 119.632 31.58H120.992V33H119.532ZM128.723 19H130.323V27.56L134.963 22.76H136.953L132.283 27.64L137.133 33H135.073L130.323 27.84V33H128.723V19ZM138.938 22.76H140.478V24.42C140.824 23.8067 141.284 23.3367 141.858 23.01C142.438 22.6833 143.108 22.52 143.868 22.52C144.601 22.52 145.251 22.6767 145.818 22.99C146.384 23.3033 146.828 23.7667 147.148 24.38C147.474 24.9867 147.638 25.7167 147.638 26.57V33H146.038V26.73C146.038 25.8433 145.808 25.1533 145.348 24.66C144.888 24.1667 144.254 23.92 143.448 23.92C142.874 23.92 142.368 24.0467 141.928 24.3C141.488 24.5533 141.144 24.91 140.898 25.37C140.658 25.8233 140.538 26.3433 140.538 26.93V33H138.938V22.76ZM155.182 33.24C154.209 33.24 153.322 33.01 152.522 32.55C151.729 32.0833 151.102 31.4433 150.642 30.63C150.189 29.81 149.962 28.8933 149.962 27.88C149.962 26.8667 150.189 25.9533 150.642 25.14C151.102 24.32 151.732 23.68 152.532 23.22C153.332 22.7533 154.219 22.52 155.192 22.52C156.165 22.52 157.049 22.7533 157.842 23.22C158.635 23.68 159.259 24.3167 159.712 25.13C160.172 25.9433 160.402 26.86 160.402 27.88C160.402 28.9 160.172 29.8167 159.712 30.63C159.259 31.4433 158.635 32.0833 157.842 32.55C157.049 33.01 156.162 33.24 155.182 33.24ZM151.642 27.88C151.642 28.6467 151.795 29.3267 152.102 29.92C152.415 30.5067 152.842 30.9633 153.382 31.29C153.929 31.6167 154.535 31.78 155.202 31.78C155.869 31.78 156.469 31.6167 157.002 31.29C157.535 30.9633 157.955 30.5067 158.262 29.92C158.569 29.3267 158.722 28.6467 158.722 27.88C158.722 27.1133 158.569 26.4333 158.262 25.84C157.955 25.2467 157.532 24.7867 156.992 24.46C156.459 24.1333 155.859 23.97 155.192 23.97C154.525 23.97 153.922 24.1333 153.382 24.46C152.842 24.7867 152.415 25.2467 152.102 25.84C151.795 26.4333 151.642 27.1133 151.642 27.88ZM161.574 22.76H163.294L165.704 30.12L165.934 30.99L166.144 30.12L168.674 22.76H170.204L172.784 30.12L173.014 30.99L173.224 30.12L175.574 22.76H177.254L173.744 33H172.164L169.634 25.3L169.444 24.59L169.274 25.28L166.644 33H165.084L161.574 22.76Z" fill="white"/>
</g>
<defs>
<filter id="filter0_b_44_6196" x="-8" y="-8" width="256" height="68" filterUnits="userSpaceOnUse" color-interpolation-filters="sRGB">
<feFlood flood-opacity="0" result="BackgroundImageFix"/>
<feGaussianBlur in="BackgroundImageFix" stdDeviation="4"/>
<feComposite in2="SourceAlpha" operator="in" result="effect1_backgroundBlur_44_6196"/>
<feBlend mode="normal" in="SourceGraphic" in2="effect1_backgroundBlur_44_6196" result="shape"/>
</filter>
</defs>
</svg>
