<svg width="149" height="52" viewBox="0 0 149 52" fill="none" xmlns="http://www.w3.org/2000/svg">
<g filter="url(#filter0_b_13_5047)">
<path d="M34.5211 19H36.2811L43.8011 30.36V19H45.4611V33H43.6811L36.1811 21.64V33H34.5211V19ZM53.5155 33.24C52.5555 33.24 51.6921 33.01 50.9255 32.55C50.1588 32.09 49.5588 31.4533 49.1255 30.64C48.6988 29.82 48.4855 28.8933 48.4855 27.86C48.4855 26.8533 48.7021 25.9433 49.1355 25.13C49.5755 24.3167 50.1788 23.68 50.9455 23.22C51.7121 22.7533 52.5688 22.52 53.5155 22.52C54.4821 22.52 55.3288 22.75 56.0555 23.21C56.7888 23.67 57.3521 24.3067 57.7455 25.12C58.1455 25.9333 58.3455 26.8533 58.3455 27.88V28.27H50.1155C50.1821 28.97 50.3721 29.59 50.6855 30.13C50.9988 30.67 51.4088 31.09 51.9155 31.39C52.4221 31.69 52.9888 31.84 53.6155 31.84C54.2888 31.84 54.8821 31.7167 55.3955 31.47C55.9088 31.2233 56.2821 30.8867 56.5155 30.46H58.1155C57.9955 30.8867 57.7421 31.3133 57.3555 31.74C56.9755 32.1667 56.4555 32.5233 55.7955 32.81C55.1421 33.0967 54.3821 33.24 53.5155 33.24ZM56.6855 26.95C56.5521 26.0167 56.2121 25.28 55.6655 24.74C55.1255 24.2 54.4155 23.93 53.5355 23.93C52.9421 23.93 52.4088 24.0533 51.9355 24.3C51.4621 24.54 51.0721 24.89 50.7655 25.35C50.4588 25.8033 50.2555 26.3367 50.1555 26.95H56.6855ZM63.9927 29.01L61.2627 33H59.4427L63.1527 27.72L59.6227 22.76H61.4827L64.0727 26.48L66.6127 22.76H68.4327L64.9227 27.77L68.6227 33H66.7627L63.9927 29.01ZM74.1298 33C73.6432 33 73.1998 32.8967 72.7998 32.69C72.4065 32.4767 72.0965 32.1867 71.8698 31.82C71.6432 31.4467 71.5298 31.0333 71.5298 30.58L71.5198 24.18H69.7198L69.7298 22.76H70.8398C71.0932 22.76 71.2965 22.68 71.4498 22.52C71.6098 22.36 71.6898 22.1567 71.6898 21.91V20.26H73.1298V22.76H75.5998L75.5898 24.18H73.1198L73.1298 30.48C73.1298 30.7933 73.2332 31.0567 73.4398 31.27C73.6532 31.4767 73.9165 31.58 74.2298 31.58H75.5898V33H74.1298Z" fill="#19191C"/>
<path fill-rule="evenodd" clip-rule="evenodd" d="M115 26.0001L107 19.1431V25.0001H96V27.0001H107V32.8571L115 26.0001Z" fill="#19191C"/>
<rect x="0.5" y="0.5" width="148" height="51" rx="25.5" stroke="#19191C" stroke-opacity="0.3"/>
</g>
<defs>
<filter id="filter0_b_13_5047" x="-8" y="-8" width="165" height="68" filterUnits="userSpaceOnUse" color-interpolation-filters="sRGB">
<feFlood flood-opacity="0" result="BackgroundImageFix"/>
<feGaussianBlur in="BackgroundImageFix" stdDeviation="4"/>
<feComposite in2="SourceAlpha" operator="in" result="effect1_backgroundBlur_13_5047"/>
<feBlend mode="normal" in="SourceGraphic" in2="effect1_backgroundBlur_13_5047" result="shape"/>
</filter>
</defs>
</svg>
