<svg width="275" height="52" viewBox="0 0 275 52" fill="none" xmlns="http://www.w3.org/2000/svg">
<g filter="url(#filter0_b_13_4943)">
<path d="M44.7848 23.1007C46.3826 23.5373 47.3241 25.1866 46.8875 26.7845C46.4509 28.3823 44.8017 29.3238 43.2038 28.8872C41.6059 28.4506 40.6645 26.8013 41.101 25.2035C41.5376 23.6056 43.1869 22.6642 44.7848 23.1007Z" fill="#19191C"/>
<path fill-rule="evenodd" clip-rule="evenodd" d="M37.9638 21.1309C39.7465 19.9276 41.8492 19.2866 44 19.291C46.1508 19.2867 48.2535 19.9276 50.0362 21.1309C51.8189 22.3343 53.1997 24.0447 54 26.0411C53.196 28.0349 51.8143 29.7429 50.0324 30.9456C48.2506 32.1484 46.1498 32.791 44 32.791C41.8502 32.791 39.7494 32.1484 37.9676 30.9456C36.1857 29.7429 34.804 28.0349 34 26.0411C34.8003 24.0447 36.181 22.3342 37.9638 21.1309ZM47.2712 29.768C48.0179 29.1196 48.5556 28.2644 48.8162 27.3104C48.9893 26.6771 49.0359 26.0158 48.9534 25.3644C48.8709 24.713 48.6609 24.0842 48.3354 23.514C48.0099 22.9437 47.5752 22.4432 47.0563 22.0409C46.5373 21.6386 45.9442 21.3425 45.3108 21.1694C44.3568 20.9088 43.347 20.9369 42.4091 21.2502C41.4711 21.5635 40.6471 22.1478 40.0412 22.9294C39.4354 23.711 39.0749 24.6547 39.0054 25.6412C38.9359 26.6276 39.1604 27.6125 39.6507 28.4714C40.1409 29.3302 40.8748 30.0244 41.7596 30.4661C42.6443 30.9079 43.6402 31.0773 44.6213 30.953C45.6024 30.8288 46.5245 30.4164 47.2712 29.768Z" fill="#19191C"/>
<path d="M78.0015 33.24C77.0415 33.24 76.1915 33.0633 75.4515 32.71C74.7182 32.3567 74.1448 31.8633 73.7315 31.23C73.3248 30.5967 73.1215 29.87 73.1215 29.05H74.8215C74.8215 29.5767 74.9548 30.0433 75.2215 30.45C75.4882 30.8567 75.8648 31.1733 76.3515 31.4C76.8382 31.6267 77.3948 31.74 78.0215 31.74C78.6415 31.74 79.1848 31.6367 79.6515 31.43C80.1248 31.2167 80.4882 30.92 80.7415 30.54C81.0015 30.1533 81.1315 29.71 81.1315 29.21C81.1315 28.5767 80.9415 28.0333 80.5615 27.58C80.1882 27.1267 79.6882 26.8467 79.0615 26.74L76.8015 26.35C76.1215 26.23 75.5315 25.9933 75.0315 25.64C74.5315 25.2867 74.1482 24.8467 73.8815 24.32C73.6148 23.7933 73.4815 23.22 73.4815 22.6C73.4815 21.8733 73.6715 21.22 74.0515 20.64C74.4382 20.0533 74.9715 19.5933 75.6515 19.26C76.3382 18.9267 77.1082 18.76 77.9615 18.76C78.8415 18.76 79.6248 18.9267 80.3115 19.26C80.9982 19.5867 81.5315 20.0433 81.9115 20.63C82.2915 21.2167 82.4815 21.8867 82.4815 22.64H80.7815C80.7815 22.18 80.6648 21.77 80.4315 21.41C80.1982 21.0433 79.8682 20.76 79.4415 20.56C79.0215 20.36 78.5348 20.26 77.9815 20.26C77.4282 20.26 76.9382 20.3567 76.5115 20.55C76.0848 20.7433 75.7515 21.0167 75.5115 21.37C75.2782 21.7233 75.1615 22.1333 75.1615 22.6C75.1615 23.1533 75.3382 23.63 75.6915 24.03C76.0515 24.43 76.5215 24.68 77.1015 24.78L79.4015 25.18C80.0682 25.3 80.6615 25.5567 81.1815 25.95C81.7015 26.3433 82.1048 26.8267 82.3915 27.4C82.6782 27.9667 82.8215 28.5633 82.8215 29.19C82.8215 29.9433 82.6182 30.63 82.2115 31.25C81.8048 31.8633 81.2348 32.35 80.5015 32.71C79.7682 33.0633 78.9348 33.24 78.0015 33.24ZM85.7832 19H87.3232V24.42C87.6699 23.8067 88.1299 23.3367 88.7032 23.01C89.2832 22.6833 89.9532 22.52 90.7132 22.52C91.4465 22.52 92.0965 22.6767 92.6632 22.99C93.2299 23.3033 93.6732 23.7667 93.9932 24.38C94.3199 24.9867 94.4832 25.7167 94.4832 26.57V33H92.8832V26.73C92.8832 25.8433 92.6532 25.1533 92.1932 24.66C91.7332 24.1667 91.0999 23.92 90.2932 23.92C89.7199 23.92 89.2132 24.0467 88.7732 24.3C88.3332 24.5533 87.9899 24.91 87.7432 25.37C87.5032 25.8233 87.3832 26.3433 87.3832 26.93V33H85.7832V19ZM102.028 33.24C101.054 33.24 100.168 33.01 99.3677 32.55C98.5744 32.0833 97.9477 31.4433 97.4877 30.63C97.0344 29.81 96.8077 28.8933 96.8077 27.88C96.8077 26.8667 97.0344 25.9533 97.4877 25.14C97.9477 24.32 98.5777 23.68 99.3777 23.22C100.178 22.7533 101.064 22.52 102.038 22.52C103.011 22.52 103.894 22.7533 104.688 23.22C105.481 23.68 106.104 24.3167 106.558 25.13C107.018 25.9433 107.248 26.86 107.248 27.88C107.248 28.9 107.018 29.8167 106.558 30.63C106.104 31.4433 105.481 32.0833 104.688 32.55C103.894 33.01 103.008 33.24 102.028 33.24ZM98.4877 27.88C98.4877 28.6467 98.6411 29.3267 98.9477 29.92C99.2611 30.5067 99.6877 30.9633 100.228 31.29C100.774 31.6167 101.381 31.78 102.048 31.78C102.714 31.78 103.314 31.6167 103.848 31.29C104.381 30.9633 104.801 30.5067 105.108 29.92C105.414 29.3267 105.568 28.6467 105.568 27.88C105.568 27.1133 105.414 26.4333 105.108 25.84C104.801 25.2467 104.378 24.7867 103.838 24.46C103.304 24.1333 102.704 23.97 102.038 23.97C101.371 23.97 100.768 24.1333 100.228 24.46C99.6877 24.7867 99.2611 25.2467 98.9477 25.84C98.6411 26.4333 98.4877 27.1133 98.4877 27.88ZM108.419 22.76H110.139L112.549 30.12L112.779 30.99L112.989 30.12L115.519 22.76H117.049L119.629 30.12L119.859 30.99L120.069 30.12L122.419 22.76H124.099L120.589 33H119.009L116.479 25.3L116.289 24.59L116.119 25.28L113.489 33H111.929L108.419 22.76ZM134.308 33C133.821 33 133.378 32.8967 132.978 32.69C132.584 32.4767 132.274 32.1867 132.048 31.82C131.821 31.4467 131.708 31.0333 131.708 30.58L131.698 24.18H129.898L129.908 22.76H131.018C131.271 22.76 131.474 22.68 131.628 22.52C131.788 22.36 131.868 22.1567 131.868 21.91V20.26H133.308V22.76H135.778L135.768 24.18H133.298L133.308 30.48C133.308 30.7933 133.411 31.0567 133.618 31.27C133.831 31.4767 134.094 31.58 134.408 31.58H135.768V33H134.308ZM138.557 19H140.097V24.42C140.443 23.8067 140.903 23.3367 141.477 23.01C142.057 22.6833 142.727 22.52 143.487 22.52C144.22 22.52 144.87 22.6767 145.437 22.99C146.003 23.3033 146.447 23.7667 146.767 24.38C147.093 24.9867 147.257 25.7167 147.257 26.57V33H145.657V26.73C145.657 25.8433 145.427 25.1533 144.967 24.66C144.507 24.1667 143.873 23.92 143.067 23.92C142.493 23.92 141.987 24.0467 141.547 24.3C141.107 24.5533 140.763 24.91 140.517 25.37C140.277 25.8233 140.157 26.3433 140.157 26.93V33H138.557V19ZM154.611 33.24C153.651 33.24 152.788 33.01 152.021 32.55C151.255 32.09 150.655 31.4533 150.221 30.64C149.795 29.82 149.581 28.8933 149.581 27.86C149.581 26.8533 149.798 25.9433 150.231 25.13C150.671 24.3167 151.275 23.68 152.041 23.22C152.808 22.7533 153.665 22.52 154.611 22.52C155.578 22.52 156.425 22.75 157.151 23.21C157.885 23.67 158.448 24.3067 158.841 25.12C159.241 25.9333 159.441 26.8533 159.441 27.88V28.27H151.211C151.278 28.97 151.468 29.59 151.781 30.13C152.095 30.67 152.505 31.09 153.011 31.39C153.518 31.69 154.085 31.84 154.711 31.84C155.385 31.84 155.978 31.7167 156.491 31.47C157.005 31.2233 157.378 30.8867 157.611 30.46H159.211C159.091 30.8867 158.838 31.3133 158.451 31.74C158.071 32.1667 157.551 32.5233 156.891 32.81C156.238 33.0967 155.478 33.24 154.611 33.24ZM157.781 26.95C157.648 26.0167 157.308 25.28 156.761 24.74C156.221 24.2 155.511 23.93 154.631 23.93C154.038 23.93 153.505 24.0533 153.031 24.3C152.558 24.54 152.168 24.89 151.861 25.35C151.555 25.8033 151.351 26.3367 151.251 26.95H157.781ZM166.721 19H168.321V27.56L172.961 22.76H174.951L170.281 27.64L175.131 33H173.071L168.321 27.84V33H166.721V19ZM180.842 33.24C179.882 33.24 179.018 33.01 178.252 32.55C177.485 32.09 176.885 31.4533 176.452 30.64C176.025 29.82 175.812 28.8933 175.812 27.86C175.812 26.8533 176.028 25.9433 176.462 25.13C176.902 24.3167 177.505 23.68 178.272 23.22C179.038 22.7533 179.895 22.52 180.842 22.52C181.808 22.52 182.655 22.75 183.382 23.21C184.115 23.67 184.678 24.3067 185.072 25.12C185.472 25.9333 185.672 26.8533 185.672 27.88V28.27H177.442C177.508 28.97 177.698 29.59 178.012 30.13C178.325 30.67 178.735 31.09 179.242 31.39C179.748 31.69 180.315 31.84 180.942 31.84C181.615 31.84 182.208 31.7167 182.722 31.47C183.235 31.2233 183.608 30.8867 183.842 30.46H185.442C185.322 30.8867 185.068 31.3133 184.682 31.74C184.302 32.1667 183.782 32.5233 183.122 32.81C182.468 33.0967 181.708 33.24 180.842 33.24ZM184.012 26.95C183.878 26.0167 183.538 25.28 182.992 24.74C182.452 24.2 181.742 23.93 180.862 23.93C180.268 23.93 179.735 24.0533 179.262 24.3C178.788 24.54 178.398 24.89 178.092 25.35C177.785 25.8033 177.582 26.3367 177.482 26.95H184.012ZM187.567 34.78H188.837C189.137 34.78 189.404 34.6967 189.637 34.53C189.871 34.3633 190.051 34.1467 190.177 33.88L190.827 32.51L186.777 22.76H188.477L191.637 30.47L194.537 22.76H196.217L191.777 33.98C191.497 34.6933 191.134 35.24 190.687 35.62C190.241 36.0067 189.641 36.2 188.887 36.2H187.567V34.78ZM206.811 33.24C205.844 33.24 204.971 33.0067 204.191 32.54C203.411 32.0733 202.797 31.4333 202.351 30.62C201.911 29.8 201.691 28.8867 201.691 27.88C201.691 26.8733 201.911 25.9633 202.351 25.15C202.797 24.33 203.411 23.6867 204.191 23.22C204.971 22.7533 205.844 22.52 206.811 22.52C208.051 22.52 209.091 22.8367 209.931 23.47C210.771 24.0967 211.307 25.0067 211.541 26.2H209.941C209.727 25.4667 209.334 24.9133 208.761 24.54C208.194 24.16 207.544 23.97 206.811 23.97C206.151 23.97 205.557 24.1367 205.031 24.47C204.511 24.8033 204.104 25.2667 203.811 25.86C203.517 26.4533 203.371 27.1267 203.371 27.88C203.371 28.6267 203.517 29.2967 203.811 29.89C204.104 30.4833 204.511 30.95 205.031 31.29C205.557 31.6233 206.151 31.79 206.811 31.79C207.544 31.79 208.194 31.6033 208.761 31.23C209.334 30.85 209.727 30.2933 209.941 29.56H211.541C211.387 30.3333 211.087 30.9967 210.641 31.55C210.194 32.1033 209.641 32.5233 208.981 32.81C208.321 33.0967 207.597 33.24 206.811 33.24ZM217.753 22.52C218.526 22.52 219.206 22.6633 219.793 22.95C220.379 23.23 220.833 23.6433 221.153 24.19C221.479 24.73 221.643 25.3733 221.643 26.12V33H220.083V31.33C219.796 31.95 219.376 32.4233 218.823 32.75C218.269 33.0767 217.613 33.24 216.853 33.24C216.199 33.24 215.609 33.1133 215.083 32.86C214.556 32.6067 214.143 32.2567 213.843 31.81C213.543 31.3633 213.393 30.8567 213.393 30.29C213.393 29.7567 213.529 29.2667 213.803 28.82C214.083 28.3667 214.466 27.9967 214.953 27.71C215.446 27.4233 215.999 27.2467 216.613 27.18L219.343 26.88C219.569 26.8533 219.746 26.76 219.873 26.6C219.999 26.44 220.063 26.2067 220.063 25.9C220.063 25.4933 219.966 25.1367 219.773 24.83C219.579 24.5233 219.306 24.2867 218.953 24.12C218.606 23.9467 218.203 23.86 217.743 23.86C217.283 23.86 216.869 23.94 216.503 24.1C216.136 24.2533 215.839 24.4633 215.613 24.73C215.393 24.99 215.259 25.2733 215.213 25.58H213.613C213.693 25 213.919 24.48 214.293 24.02C214.673 23.5533 215.163 23.1867 215.763 22.92C216.363 22.6533 217.026 22.52 217.753 22.52ZM215.053 30.2C215.053 30.5467 215.143 30.8533 215.323 31.12C215.509 31.3867 215.766 31.5967 216.093 31.75C216.419 31.8967 216.793 31.97 217.213 31.97C217.786 31.97 218.286 31.8533 218.713 31.62C219.146 31.3867 219.479 31.06 219.713 30.64C219.946 30.2133 220.063 29.7233 220.063 29.17V28L216.833 28.36C216.299 28.42 215.869 28.62 215.543 28.96C215.216 29.3 215.053 29.7133 215.053 30.2ZM224.846 22.76H226.446V24.46C226.772 23.88 227.196 23.4367 227.716 23.13C228.236 22.8167 228.832 22.66 229.506 22.66H229.866V24.33H229.446C228.839 24.33 228.309 24.4467 227.856 24.68C227.402 24.9133 227.052 25.2467 226.806 25.68C226.566 26.1067 226.446 26.61 226.446 27.19V33H224.846V22.76ZM239.774 31.3C239.387 31.92 238.871 32.4 238.224 32.74C237.584 33.0733 236.854 33.24 236.034 33.24C235.081 33.24 234.231 33.0167 233.484 32.57C232.744 32.1167 232.164 31.4833 231.744 30.67C231.331 29.8567 231.124 28.9267 231.124 27.88C231.124 26.8333 231.331 25.9033 231.744 25.09C232.164 24.2767 232.744 23.6467 233.484 23.2C234.231 22.7467 235.081 22.52 236.034 22.52C236.854 22.52 237.584 22.69 238.224 23.03C238.871 23.3633 239.387 23.84 239.774 24.46V19H241.374V33H239.774V31.3ZM232.804 27.88C232.804 28.6467 232.951 29.3267 233.244 29.92C233.537 30.5067 233.947 30.9667 234.474 31.3C235.001 31.6267 235.604 31.79 236.284 31.79C236.911 31.79 237.474 31.6533 237.974 31.38C238.481 31.1 238.887 30.71 239.194 30.21C239.507 29.7033 239.701 29.1167 239.774 28.45V27.31C239.701 26.6433 239.507 26.06 239.194 25.56C238.887 25.0533 238.481 24.6633 237.974 24.39C237.474 24.11 236.911 23.97 236.284 23.97C235.604 23.97 235.001 24.1367 234.474 24.47C233.947 24.7967 233.537 25.2567 233.244 25.85C232.951 26.4367 232.804 27.1133 232.804 27.88Z" fill="#19191C"/>
<rect x="0.5" y="0.5" width="274" height="51" rx="25.5" stroke="#19191C" stroke-opacity="0.3"/>
</g>
<defs>
<filter id="filter0_b_13_4943" x="-8" y="-8" width="291" height="68" filterUnits="userSpaceOnUse" color-interpolation-filters="sRGB">
<feFlood flood-opacity="0" result="BackgroundImageFix"/>
<feGaussianBlur in="BackgroundImageFix" stdDeviation="4"/>
<feComposite in2="SourceAlpha" operator="in" result="effect1_backgroundBlur_13_4943"/>
<feBlend mode="normal" in="SourceGraphic" in2="effect1_backgroundBlur_13_4943" result="shape"/>
</filter>
</defs>
</svg>
