<svg width="171" height="170" viewBox="0 0 171 170" fill="none" xmlns="http://www.w3.org/2000/svg">
<g clip-path="url(#clip0_3_3616)">
<path d="M14.5978 84.9959L14.8787 67.3439L2.81381 79.4094C-0.276802 82.5002 -0.276802 87.4999 2.81381 90.5907L14.8787 102.656L32.5299 85.0042H14.5978V84.9959Z" fill="url(#paint0_radial_3_3616)"/>
<path d="M85.4505 0C83.4424 0.0165281 81.4426 0.776822 79.9138 2.31394L67.8489 14.3795L85.5001 32.0315L103.151 14.3795H85.2191L85.4505 0Z" fill="url(#paint1_radial_3_3616)"/>
<path d="M85.5001 137.969L67.8489 155.621L79.9138 167.686C83.0044 170.777 88.0039 170.777 91.0945 167.686L103.159 155.621H85.2274L85.5083 137.969H85.5001Z" fill="url(#paint2_radial_3_3616)"/>
<path d="M156.121 102.656L168.186 90.5907C169.731 89.0453 170.5 87.0206 170.5 84.9959H155.84L156.121 67.3439L138.47 84.9959L156.121 102.648V102.656Z" fill="url(#paint3_radial_3_3616)"/>
<path d="M50.1893 67.3439L32.5381 84.9959L14.8787 67.3439L32.5381 49.6836L32.2571 67.3439H50.1893Z" fill="url(#paint4_radial_3_3616)"/>
<path d="M67.8487 49.6835L50.1893 67.3438L32.5381 49.6835L50.1893 32.0315L49.9083 49.6835H67.8487Z" fill="url(#paint5_radial_3_3616)"/>
<path d="M85.4998 32.0315L67.8486 49.6836L50.1892 32.0315L67.8486 14.3795L67.5677 32.0315H85.4998Z" fill="url(#paint6_radial_3_3616)"/>
<path d="M50.1893 102.656L32.5381 120.308L14.8787 102.656L32.5381 84.996L32.2571 102.656H50.1893Z" fill="url(#paint7_radial_3_3616)"/>
<path d="M67.8487 84.9959L50.1893 102.656L32.5381 84.9959L50.1893 67.3439L49.9083 84.9959H67.8487Z" fill="url(#paint8_radial_3_3616)"/>
<path d="M85.4998 67.3439L67.8486 84.9959L50.1892 67.3439L67.8486 49.6836L67.5677 67.3439H85.4998Z" fill="url(#paint9_radial_3_3616)"/>
<path d="M103.151 49.6835L85.4998 67.3438L67.8486 49.6835L85.4998 32.0315L85.2188 49.6835H103.151Z" fill="url(#paint10_radial_3_3616)"/>
<path d="M120.811 32.0315L103.151 49.6836L85.5 32.0315L103.151 14.3795L102.878 32.0315H120.811Z" fill="url(#paint11_radial_3_3616)"/>
<path d="M67.8487 120.308L50.1893 137.969L32.5381 120.308L50.1893 102.656L49.9083 120.308H67.8487Z" fill="url(#paint12_radial_3_3616)"/>
<path d="M85.4998 102.656L67.8486 120.308L50.1892 102.656L67.8486 84.996L67.5677 102.656H85.4998Z" fill="url(#paint13_radial_3_3616)"/>
<path d="M103.151 84.9959L85.4998 102.656L67.8486 84.9959L85.4998 67.3439L85.2188 84.9959H103.151Z" fill="url(#paint14_radial_3_3616)"/>
<path d="M120.811 67.3439L103.151 84.9959L85.5 67.3439L103.151 49.6836L102.878 67.3439H120.811Z" fill="url(#paint15_radial_3_3616)"/>
<path d="M138.462 49.6835L120.811 67.3438L103.151 49.6835L120.811 32.0315L120.53 49.6835H138.462Z" fill="url(#paint16_radial_3_3616)"/>
<path d="M85.4998 137.969L67.8486 155.621L50.1892 137.969L67.8486 120.308L67.5677 137.969H85.4998Z" fill="url(#paint17_radial_3_3616)"/>
<path d="M103.151 120.308L85.4998 137.969L67.8486 120.308L85.4998 102.656L85.2188 120.308H103.151Z" fill="url(#paint18_radial_3_3616)"/>
<path d="M120.811 102.656L103.151 120.308L85.5 102.656L103.151 84.996L102.878 102.656H120.811Z" fill="url(#paint19_radial_3_3616)"/>
<path d="M138.462 84.9959L120.811 102.656L103.151 84.9959L120.811 67.3439L120.53 84.9959H138.462Z" fill="url(#paint20_radial_3_3616)"/>
<path d="M156.121 67.3439L138.462 84.9959L120.811 67.3439L138.462 49.6836L138.181 67.3439H156.121Z" fill="url(#paint21_radial_3_3616)"/>
<path d="M120.811 137.969L103.151 155.621L85.5 137.969L103.151 120.308L102.878 137.969H120.811Z" fill="url(#paint22_radial_3_3616)"/>
<path d="M138.462 120.308L120.811 137.969L103.151 120.308L120.811 102.656L120.53 120.308H138.462Z" fill="url(#paint23_radial_3_3616)"/>
<path d="M156.121 102.656L138.462 120.308L120.811 102.656L138.462 84.996L138.181 102.656H156.121Z" fill="url(#paint24_radial_3_3616)"/>
</g>
<defs>
<radialGradient id="paint0_radial_3_3616" cx="0" cy="0" r="1" gradientUnits="userSpaceOnUse" gradientTransform="translate(15.4408 68.9685) rotate(-45.0014) scale(28.6591)">
<stop stop-color="#FE2857"/>
<stop offset="0.47" stop-color="#AF1DF5"/>
<stop offset="1" stop-color="#6B57FF"/>
</radialGradient>
<radialGradient id="paint1_radial_3_3616" cx="0" cy="0" r="1" gradientUnits="userSpaceOnUse" gradientTransform="translate(-1454.13 -1541.96) rotate(-45.0014) scale(28.6591)">
<stop stop-color="#FE2857"/>
<stop offset="0.47" stop-color="#AF1DF5"/>
<stop offset="1" stop-color="#6B57FF"/>
</radialGradient>
<radialGradient id="paint2_radial_3_3616" cx="0" cy="0" r="1" gradientUnits="userSpaceOnUse" gradientTransform="translate(86.0804 139.611) rotate(-45.0014) scale(28.6591)">
<stop stop-color="#FE2857"/>
<stop offset="0.47" stop-color="#AF1DF5"/>
<stop offset="1" stop-color="#6B57FF"/>
</radialGradient>
<radialGradient id="paint3_radial_3_3616" cx="0" cy="0" r="1" gradientUnits="userSpaceOnUse" gradientTransform="translate(156.72 68.9685) rotate(-45.0014) scale(28.6591)">
<stop stop-color="#FE2857"/>
<stop offset="0.47" stop-color="#AF1DF5"/>
<stop offset="1" stop-color="#6B57FF"/>
</radialGradient>
<radialGradient id="paint4_radial_3_3616" cx="0" cy="0" r="1" gradientUnits="userSpaceOnUse" gradientTransform="translate(33.0991 51.3092) rotate(-45.0014) scale(28.6591)">
<stop stop-color="#FE2857"/>
<stop offset="0.47" stop-color="#AF1DF5"/>
<stop offset="1" stop-color="#6B57FF"/>
</radialGradient>
<radialGradient id="paint5_radial_3_3616" cx="0" cy="0" r="1" gradientUnits="userSpaceOnUse" gradientTransform="translate(50.7575 33.6499) rotate(-45.0014) scale(28.6591)">
<stop stop-color="#FE2857"/>
<stop offset="0.47" stop-color="#AF1DF5"/>
<stop offset="1" stop-color="#6B57FF"/>
</radialGradient>
<radialGradient id="paint6_radial_3_3616" cx="0" cy="0" r="1" gradientUnits="userSpaceOnUse" gradientTransform="translate(68.4218 15.9848) rotate(-45.0014) scale(28.6591)">
<stop stop-color="#FE2857"/>
<stop offset="0.47" stop-color="#AF1DF5"/>
<stop offset="1" stop-color="#6B57FF"/>
</radialGradient>
<radialGradient id="paint7_radial_3_3616" cx="0" cy="0" r="1" gradientUnits="userSpaceOnUse" gradientTransform="translate(33.0991 86.6278) rotate(-45.0014) scale(28.6591)">
<stop stop-color="#FE2857"/>
<stop offset="0.47" stop-color="#AF1DF5"/>
<stop offset="1" stop-color="#6B57FF"/>
</radialGradient>
<radialGradient id="paint8_radial_3_3616" cx="0" cy="0" r="1" gradientUnits="userSpaceOnUse" gradientTransform="translate(50.7575 68.9685) rotate(-45.0014) scale(28.6591)">
<stop stop-color="#FE2857"/>
<stop offset="0.47" stop-color="#AF1DF5"/>
<stop offset="1" stop-color="#6B57FF"/>
</radialGradient>
<radialGradient id="paint9_radial_3_3616" cx="0" cy="0" r="1" gradientUnits="userSpaceOnUse" gradientTransform="translate(68.4159 51.3092) rotate(-45.0014) scale(28.6591)">
<stop stop-color="#FE2857"/>
<stop offset="0.47" stop-color="#AF1DF5"/>
<stop offset="1" stop-color="#6B57FF"/>
</radialGradient>
<radialGradient id="paint10_radial_3_3616" cx="0" cy="0" r="1" gradientUnits="userSpaceOnUse" gradientTransform="translate(86.0802 33.644) rotate(-45.0014) scale(28.6591)">
<stop stop-color="#FE2857"/>
<stop offset="0.47" stop-color="#AF1DF5"/>
<stop offset="1" stop-color="#6B57FF"/>
</radialGradient>
<radialGradient id="paint11_radial_3_3616" cx="0" cy="0" r="1" gradientUnits="userSpaceOnUse" gradientTransform="translate(103.739 15.9848) rotate(-45.0014) scale(28.6591)">
<stop stop-color="#FE2857"/>
<stop offset="0.47" stop-color="#AF1DF5"/>
<stop offset="1" stop-color="#6B57FF"/>
</radialGradient>
<radialGradient id="paint12_radial_3_3616" cx="0" cy="0" r="1" gradientUnits="userSpaceOnUse" gradientTransform="translate(50.7575 104.287) rotate(-45.0014) scale(28.6591)">
<stop stop-color="#FE2857"/>
<stop offset="0.47" stop-color="#AF1DF5"/>
<stop offset="1" stop-color="#6B57FF"/>
</radialGradient>
<radialGradient id="paint13_radial_3_3616" cx="0" cy="0" r="1" gradientUnits="userSpaceOnUse" gradientTransform="translate(68.4159 86.6278) rotate(-45.0014) scale(28.6591)">
<stop stop-color="#FE2857"/>
<stop offset="0.47" stop-color="#AF1DF5"/>
<stop offset="1" stop-color="#6B57FF"/>
</radialGradient>
<radialGradient id="paint14_radial_3_3616" cx="0" cy="0" r="1" gradientUnits="userSpaceOnUse" gradientTransform="translate(86.0743 68.9685) rotate(-45.0014) scale(28.6591)">
<stop stop-color="#FE2857"/>
<stop offset="0.47" stop-color="#AF1DF5"/>
<stop offset="1" stop-color="#6B57FF"/>
</radialGradient>
<radialGradient id="paint15_radial_3_3616" cx="0" cy="0" r="1" gradientUnits="userSpaceOnUse" gradientTransform="translate(103.739 51.3034) rotate(-45.0014) scale(28.6591)">
<stop stop-color="#FE2857"/>
<stop offset="0.47" stop-color="#AF1DF5"/>
<stop offset="1" stop-color="#6B57FF"/>
</radialGradient>
<radialGradient id="paint16_radial_3_3616" cx="0" cy="0" r="1" gradientUnits="userSpaceOnUse" gradientTransform="translate(121.397 33.644) rotate(-45.0014) scale(28.6591)">
<stop stop-color="#FE2857"/>
<stop offset="0.47" stop-color="#AF1DF5"/>
<stop offset="1" stop-color="#6B57FF"/>
</radialGradient>
<radialGradient id="paint17_radial_3_3616" cx="0" cy="0" r="1" gradientUnits="userSpaceOnUse" gradientTransform="translate(68.4218 121.952) rotate(-45.0014) scale(28.6591)">
<stop stop-color="#FE2857"/>
<stop offset="0.47" stop-color="#AF1DF5"/>
<stop offset="1" stop-color="#6B57FF"/>
</radialGradient>
<radialGradient id="paint18_radial_3_3616" cx="0" cy="0" r="1" gradientUnits="userSpaceOnUse" gradientTransform="translate(86.0802 104.293) rotate(-45.0014) scale(28.6591)">
<stop stop-color="#FE2857"/>
<stop offset="0.47" stop-color="#AF1DF5"/>
<stop offset="1" stop-color="#6B57FF"/>
</radialGradient>
<radialGradient id="paint19_radial_3_3616" cx="0" cy="0" r="1" gradientUnits="userSpaceOnUse" gradientTransform="translate(103.739 86.6336) rotate(-45.0014) scale(28.6591)">
<stop stop-color="#FE2857"/>
<stop offset="0.47" stop-color="#AF1DF5"/>
<stop offset="1" stop-color="#6B57FF"/>
</radialGradient>
<radialGradient id="paint20_radial_3_3616" cx="0" cy="0" r="1" gradientUnits="userSpaceOnUse" gradientTransform="translate(121.403 68.9685) rotate(-45.0014) scale(28.6591)">
<stop stop-color="#FE2857"/>
<stop offset="0.47" stop-color="#AF1DF5"/>
<stop offset="1" stop-color="#6B57FF"/>
</radialGradient>
<radialGradient id="paint21_radial_3_3616" cx="0" cy="0" r="1" gradientUnits="userSpaceOnUse" gradientTransform="translate(139.061 51.3092) rotate(-45.0014) scale(28.6591)">
<stop stop-color="#FE2857"/>
<stop offset="0.47" stop-color="#AF1DF5"/>
<stop offset="1" stop-color="#6B57FF"/>
</radialGradient>
<radialGradient id="paint22_radial_3_3616" cx="0" cy="0" r="1" gradientUnits="userSpaceOnUse" gradientTransform="translate(103.739 121.952) rotate(-45.0014) scale(28.6591)">
<stop stop-color="#FE2857"/>
<stop offset="0.47" stop-color="#AF1DF5"/>
<stop offset="1" stop-color="#6B57FF"/>
</radialGradient>
<radialGradient id="paint23_radial_3_3616" cx="0" cy="0" r="1" gradientUnits="userSpaceOnUse" gradientTransform="translate(121.397 104.293) rotate(-45.0014) scale(28.6591)">
<stop stop-color="#FE2857"/>
<stop offset="0.47" stop-color="#AF1DF5"/>
<stop offset="1" stop-color="#6B57FF"/>
</radialGradient>
<radialGradient id="paint24_radial_3_3616" cx="0" cy="0" r="1" gradientUnits="userSpaceOnUse" gradientTransform="translate(139.061 86.6278) rotate(-45.0014) scale(28.6591)">
<stop stop-color="#FE2857"/>
<stop offset="0.47" stop-color="#AF1DF5"/>
<stop offset="1" stop-color="#6B57FF"/>
</radialGradient>
<clipPath id="clip0_3_3616">
<rect width="170" height="170" fill="white" transform="translate(0.5)"/>
</clipPath>
</defs>
</svg>
