<svg width="156" height="52" viewBox="0 0 156 52" fill="none" xmlns="http://www.w3.org/2000/svg">
<g filter="url(#filter0_b_13_5311)">
<rect width="156" height="52" rx="26" fill="#6B57FF"/>
<path d="M34.6129 19H36.3729L43.8929 30.36V19H45.5529V33H43.7729L36.2729 21.64V33H34.6129V19ZM53.6073 33.24C52.6473 33.24 51.7839 33.01 51.0173 32.55C50.2506 32.09 49.6506 31.4533 49.2173 30.64C48.7906 29.82 48.5773 28.8933 48.5773 27.86C48.5773 26.8533 48.7939 25.9433 49.2273 25.13C49.6673 24.3167 50.2706 23.68 51.0373 23.22C51.8039 22.7533 52.6606 22.52 53.6073 22.52C54.5739 22.52 55.4206 22.75 56.1473 23.21C56.8806 23.67 57.4439 24.3067 57.8373 25.12C58.2373 25.9333 58.4373 26.8533 58.4373 27.88V28.27H50.2073C50.2739 28.97 50.4639 29.59 50.7773 30.13C51.0906 30.67 51.5006 31.09 52.0073 31.39C52.5139 31.69 53.0806 31.84 53.7073 31.84C54.3806 31.84 54.9739 31.7167 55.4873 31.47C56.0006 31.2233 56.3739 30.8867 56.6073 30.46H58.2073C58.0873 30.8867 57.8339 31.3133 57.4473 31.74C57.0673 32.1667 56.5473 32.5233 55.8873 32.81C55.2339 33.0967 54.4739 33.24 53.6073 33.24ZM56.7773 26.95C56.6439 26.0167 56.3039 25.28 55.7573 24.74C55.2173 24.2 54.5073 23.93 53.6273 23.93C53.0339 23.93 52.5006 24.0533 52.0273 24.3C51.5539 24.54 51.1639 24.89 50.8573 25.35C50.5506 25.8033 50.3473 26.3367 50.2473 26.95H56.7773ZM64.0845 29.01L61.3545 33H59.5345L63.2445 27.72L59.7145 22.76H61.5745L64.1645 26.48L66.7045 22.76H68.5245L65.0145 27.77L68.7145 33H66.8545L64.0845 29.01ZM74.2216 33C73.735 33 73.2916 32.8967 72.8916 32.69C72.4983 32.4767 72.1883 32.1867 71.9616 31.82C71.735 31.4467 71.6216 31.0333 71.6216 30.58L71.6116 24.18H69.8116L69.8216 22.76H70.9316C71.185 22.76 71.3883 22.68 71.5416 22.52C71.7016 22.36 71.7816 22.1567 71.7816 21.91V20.26H73.2216V22.76H75.6916L75.6816 24.18H73.2116L73.2216 30.48C73.2216 30.7933 73.325 31.0567 73.5316 31.27C73.745 31.4767 74.0083 31.58 74.3216 31.58H75.6816V33H74.2216ZM87.3691 33.24C86.4025 33.24 85.5291 33.0067 84.7491 32.54C83.9691 32.0733 83.3558 31.4333 82.9091 30.62C82.4691 29.8 82.2491 28.8867 82.2491 27.88C82.2491 26.8733 82.4691 25.9633 82.9091 25.15C83.3558 24.33 83.9691 23.6867 84.7491 23.22C85.5291 22.7533 86.4025 22.52 87.3691 22.52C88.6091 22.52 89.6491 22.8367 90.4891 23.47C91.3291 24.0967 91.8658 25.0067 92.0991 26.2H90.4991C90.2858 25.4667 89.8925 24.9133 89.3191 24.54C88.7525 24.16 88.1025 23.97 87.3691 23.97C86.7091 23.97 86.1158 24.1367 85.5891 24.47C85.0691 24.8033 84.6625 25.2667 84.3691 25.86C84.0758 26.4533 83.9291 27.1267 83.9291 27.88C83.9291 28.6267 84.0758 29.2967 84.3691 29.89C84.6625 30.4833 85.0691 30.95 85.5891 31.29C86.1158 31.6233 86.7091 31.79 87.3691 31.79C88.1025 31.79 88.7525 31.6033 89.3191 31.23C89.8925 30.85 90.2858 30.2933 90.4991 29.56H92.0991C91.9458 30.3333 91.6458 30.9967 91.1991 31.55C90.7525 32.1033 90.1991 32.5233 89.5391 32.81C88.8791 33.0967 88.1558 33.24 87.3691 33.24ZM98.3112 22.52C99.0845 22.52 99.7645 22.6633 100.351 22.95C100.938 23.23 101.391 23.6433 101.711 24.19C102.038 24.73 102.201 25.3733 102.201 26.12V33H100.641V31.33C100.355 31.95 99.9345 32.4233 99.3812 32.75C98.8278 33.0767 98.1712 33.24 97.4112 33.24C96.7578 33.24 96.1678 33.1133 95.6412 32.86C95.1145 32.6067 94.7012 32.2567 94.4012 31.81C94.1012 31.3633 93.9512 30.8567 93.9512 30.29C93.9512 29.7567 94.0878 29.2667 94.3612 28.82C94.6412 28.3667 95.0245 27.9967 95.5112 27.71C96.0045 27.4233 96.5578 27.2467 97.1712 27.18L99.9012 26.88C100.128 26.8533 100.305 26.76 100.431 26.6C100.558 26.44 100.621 26.2067 100.621 25.9C100.621 25.4933 100.525 25.1367 100.331 24.83C100.138 24.5233 99.8645 24.2867 99.5112 24.12C99.1645 23.9467 98.7612 23.86 98.3012 23.86C97.8412 23.86 97.4278 23.94 97.0612 24.1C96.6945 24.2533 96.3978 24.4633 96.1712 24.73C95.9512 24.99 95.8178 25.2733 95.7712 25.58H94.1712C94.2512 25 94.4778 24.48 94.8512 24.02C95.2312 23.5533 95.7212 23.1867 96.3212 22.92C96.9212 22.6533 97.5845 22.52 98.3112 22.52ZM95.6112 30.2C95.6112 30.5467 95.7012 30.8533 95.8812 31.12C96.0678 31.3867 96.3245 31.5967 96.6512 31.75C96.9778 31.8967 97.3512 31.97 97.7712 31.97C98.3445 31.97 98.8445 31.8533 99.2712 31.62C99.7045 31.3867 100.038 31.06 100.271 30.64C100.505 30.2133 100.621 29.7233 100.621 29.17V28L97.3912 28.36C96.8578 28.42 96.4278 28.62 96.1012 28.96C95.7745 29.3 95.6112 29.7133 95.6112 30.2ZM105.404 22.76H107.004V24.46C107.331 23.88 107.754 23.4367 108.274 23.13C108.794 22.8167 109.391 22.66 110.064 22.66H110.424V24.33H110.004C109.398 24.33 108.868 24.4467 108.414 24.68C107.961 24.9133 107.611 25.2467 107.364 25.68C107.124 26.1067 107.004 26.61 107.004 27.19V33H105.404V22.76ZM120.333 31.3C119.946 31.92 119.429 32.4 118.783 32.74C118.143 33.0733 117.413 33.24 116.593 33.24C115.639 33.24 114.789 33.0167 114.043 32.57C113.303 32.1167 112.723 31.4833 112.303 30.67C111.889 29.8567 111.683 28.9267 111.683 27.88C111.683 26.8333 111.889 25.9033 112.303 25.09C112.723 24.2767 113.303 23.6467 114.043 23.2C114.789 22.7467 115.639 22.52 116.593 22.52C117.413 22.52 118.143 22.69 118.783 23.03C119.429 23.3633 119.946 23.84 120.333 24.46V19H121.933V33H120.333V31.3ZM113.363 27.88C113.363 28.6467 113.509 29.3267 113.803 29.92C114.096 30.5067 114.506 30.9667 115.033 31.3C115.559 31.6267 116.163 31.79 116.843 31.79C117.469 31.79 118.033 31.6533 118.533 31.38C119.039 31.1 119.446 30.71 119.753 30.21C120.066 29.7033 120.259 29.1167 120.333 28.45V27.31C120.259 26.6433 120.066 26.06 119.753 25.56C119.446 25.0533 119.039 24.6633 118.533 24.39C118.033 24.11 117.469 23.97 116.843 23.97C116.163 23.97 115.559 24.1367 115.033 24.47C114.506 24.7967 114.096 25.2567 113.803 25.85C113.509 26.4367 113.363 27.1133 113.363 27.88Z" fill="white"/>
</g>
<defs>
<filter id="filter0_b_13_5311" x="-8" y="-8" width="172" height="68" filterUnits="userSpaceOnUse" color-interpolation-filters="sRGB">
<feFlood flood-opacity="0" result="BackgroundImageFix"/>
<feGaussianBlur in="BackgroundImageFix" stdDeviation="4"/>
<feComposite in2="SourceAlpha" operator="in" result="effect1_backgroundBlur_13_5311"/>
<feBlend mode="normal" in="SourceGraphic" in2="effect1_backgroundBlur_13_5311" result="shape"/>
</filter>
</defs>
</svg>
