<svg width="240" height="52" viewBox="0 0 240 52" fill="none" xmlns="http://www.w3.org/2000/svg">
<g filter="url(#filter0_b_44_6227)">
<path d="M42.5 17H38.5V34H42.5V17Z" fill="#19191C"/>
<path d="M36.5 24H32.5V34H36.5V24Z" fill="#19191C"/>
<path d="M44.5 21H48.5V34H44.5V21Z" fill="#19191C"/>
<path d="M74.7788 33.24C73.8188 33.24 72.9688 33.0633 72.2288 32.71C71.4955 32.3567 70.9222 31.8633 70.5088 31.23C70.1022 30.5967 69.8988 29.87 69.8988 29.05H71.5988C71.5988 29.5767 71.7322 30.0433 71.9988 30.45C72.2655 30.8567 72.6422 31.1733 73.1288 31.4C73.6155 31.6267 74.1722 31.74 74.7988 31.74C75.4188 31.74 75.9622 31.6367 76.4288 31.43C76.9022 31.2167 77.2655 30.92 77.5188 30.54C77.7788 30.1533 77.9088 29.71 77.9088 29.21C77.9088 28.5767 77.7188 28.0333 77.3388 27.58C76.9655 27.1267 76.4655 26.8467 75.8388 26.74L73.5788 26.35C72.8988 26.23 72.3088 25.9933 71.8088 25.64C71.3088 25.2867 70.9255 24.8467 70.6588 24.32C70.3922 23.7933 70.2588 23.22 70.2588 22.6C70.2588 21.8733 70.4488 21.22 70.8288 20.64C71.2155 20.0533 71.7488 19.5933 72.4288 19.26C73.1155 18.9267 73.8855 18.76 74.7388 18.76C75.6188 18.76 76.4022 18.9267 77.0888 19.26C77.7755 19.5867 78.3088 20.0433 78.6888 20.63C79.0688 21.2167 79.2588 21.8867 79.2588 22.64H77.5588C77.5588 22.18 77.4422 21.77 77.2088 21.41C76.9755 21.0433 76.6455 20.76 76.2188 20.56C75.7988 20.36 75.3122 20.26 74.7588 20.26C74.2055 20.26 73.7155 20.3567 73.2888 20.55C72.8622 20.7433 72.5288 21.0167 72.2888 21.37C72.0555 21.7233 71.9388 22.1333 71.9388 22.6C71.9388 23.1533 72.1155 23.63 72.4688 24.03C72.8288 24.43 73.2988 24.68 73.8788 24.78L76.1788 25.18C76.8455 25.3 77.4388 25.5567 77.9588 25.95C78.4788 26.3433 78.8822 26.8267 79.1688 27.4C79.4555 27.9667 79.5988 28.5633 79.5988 29.19C79.5988 29.9433 79.3955 30.63 78.9888 31.25C78.5822 31.8633 78.0122 32.35 77.2788 32.71C76.5455 33.0633 75.7122 33.24 74.7788 33.24ZM82.5605 19H84.1005V24.42C84.4472 23.8067 84.9072 23.3367 85.4805 23.01C86.0605 22.6833 86.7305 22.52 87.4905 22.52C88.2239 22.52 88.8739 22.6767 89.4405 22.99C90.0072 23.3033 90.4505 23.7667 90.7705 24.38C91.0972 24.9867 91.2605 25.7167 91.2605 26.57V33H89.6605V26.73C89.6605 25.8433 89.4305 25.1533 88.9705 24.66C88.5105 24.1667 87.8772 23.92 87.0705 23.92C86.4972 23.92 85.9905 24.0467 85.5505 24.3C85.1105 24.5533 84.7672 24.91 84.5205 25.37C84.2805 25.8233 84.1605 26.3433 84.1605 26.93V33H82.5605V19ZM98.8051 33.24C97.8317 33.24 96.9451 33.01 96.1451 32.55C95.3517 32.0833 94.7251 31.4433 94.2651 30.63C93.8117 29.81 93.5851 28.8933 93.5851 27.88C93.5851 26.8667 93.8117 25.9533 94.2651 25.14C94.7251 24.32 95.3551 23.68 96.1551 23.22C96.9551 22.7533 97.8417 22.52 98.8151 22.52C99.7884 22.52 100.672 22.7533 101.465 23.22C102.258 23.68 102.882 24.3167 103.335 25.13C103.795 25.9433 104.025 26.86 104.025 27.88C104.025 28.9 103.795 29.8167 103.335 30.63C102.882 31.4433 102.258 32.0833 101.465 32.55C100.672 33.01 99.7851 33.24 98.8051 33.24ZM95.2651 27.88C95.2651 28.6467 95.4184 29.3267 95.7251 29.92C96.0384 30.5067 96.4651 30.9633 97.0051 31.29C97.5517 31.6167 98.1584 31.78 98.8251 31.78C99.4917 31.78 100.092 31.6167 100.625 31.29C101.158 30.9633 101.578 30.5067 101.885 29.92C102.192 29.3267 102.345 28.6467 102.345 27.88C102.345 27.1133 102.192 26.4333 101.885 25.84C101.578 25.2467 101.155 24.7867 100.615 24.46C100.082 24.1333 99.4817 23.97 98.8151 23.97C98.1484 23.97 97.5451 24.1333 97.0051 24.46C96.4651 24.7867 96.0384 25.2467 95.7251 25.84C95.4184 26.4333 95.2651 27.1133 95.2651 27.88ZM105.197 22.76H106.917L109.327 30.12L109.557 30.99L109.767 30.12L112.297 22.76H113.827L116.407 30.12L116.637 30.99L116.847 30.12L119.197 22.76H120.877L117.367 33H115.787L113.257 25.3L113.067 24.59L112.897 25.28L110.267 33H108.707L105.197 22.76ZM131.175 33.24C130.402 33.24 129.702 33.1167 129.075 32.87C128.455 32.6233 127.958 32.28 127.585 31.84C127.218 31.3933 127.022 30.89 126.995 30.33H128.625C128.652 30.6367 128.778 30.9133 129.005 31.16C129.232 31.4 129.532 31.59 129.905 31.73C130.278 31.87 130.695 31.94 131.155 31.94C131.622 31.94 132.032 31.8633 132.385 31.71C132.745 31.5567 133.022 31.3433 133.215 31.07C133.415 30.7967 133.515 30.4867 133.515 30.14C133.515 29.7667 133.408 29.4533 133.195 29.2C132.988 28.94 132.698 28.7767 132.325 28.71L129.855 28.26C129.068 28.1133 128.455 27.7967 128.015 27.31C127.575 26.8167 127.355 26.1933 127.355 25.44C127.355 24.9 127.508 24.41 127.815 23.97C128.128 23.5233 128.565 23.17 129.125 22.91C129.685 22.65 130.325 22.52 131.045 22.52C131.758 22.52 132.402 22.6367 132.975 22.87C133.548 23.1033 134.005 23.4267 134.345 23.84C134.685 24.2533 134.868 24.7133 134.895 25.22H133.265C133.245 24.9533 133.135 24.7133 132.935 24.5C132.742 24.2867 132.482 24.12 132.155 24C131.828 23.88 131.462 23.82 131.055 23.82C130.642 23.82 130.275 23.89 129.955 24.03C129.635 24.17 129.385 24.3633 129.205 24.61C129.032 24.85 128.945 25.1233 128.945 25.43C128.945 25.7767 129.042 26.0633 129.235 26.29C129.428 26.5167 129.712 26.6633 130.085 26.73L132.615 27.18C133.135 27.2733 133.582 27.4567 133.955 27.73C134.335 28.0033 134.622 28.3433 134.815 28.75C135.015 29.1567 135.115 29.6 135.115 30.08C135.115 30.68 134.942 31.22 134.595 31.7C134.255 32.18 133.785 32.5567 133.185 32.83C132.585 33.1033 131.915 33.24 131.175 33.24ZM141.104 33C140.618 33 140.174 32.8967 139.774 32.69C139.381 32.4767 139.071 32.1867 138.844 31.82C138.618 31.4467 138.504 31.0333 138.504 30.58L138.494 24.18H136.694L136.704 22.76H137.814C138.068 22.76 138.271 22.68 138.424 22.52C138.584 22.36 138.664 22.1567 138.664 21.91V20.26H140.104V22.76H142.574L142.564 24.18H140.094L140.104 30.48C140.104 30.7933 140.208 31.0567 140.414 31.27C140.628 31.4767 140.891 31.58 141.204 31.58H142.564V33H141.104ZM148.964 22.52C149.737 22.52 150.417 22.6633 151.004 22.95C151.59 23.23 152.044 23.6433 152.364 24.19C152.69 24.73 152.854 25.3733 152.854 26.12V33H151.294V31.33C151.007 31.95 150.587 32.4233 150.034 32.75C149.48 33.0767 148.824 33.24 148.064 33.24C147.41 33.24 146.82 33.1133 146.294 32.86C145.767 32.6067 145.354 32.2567 145.054 31.81C144.754 31.3633 144.604 30.8567 144.604 30.29C144.604 29.7567 144.74 29.2667 145.014 28.82C145.294 28.3667 145.677 27.9967 146.164 27.71C146.657 27.4233 147.21 27.2467 147.824 27.18L150.554 26.88C150.78 26.8533 150.957 26.76 151.084 26.6C151.21 26.44 151.274 26.2067 151.274 25.9C151.274 25.4933 151.177 25.1367 150.984 24.83C150.79 24.5233 150.517 24.2867 150.164 24.12C149.817 23.9467 149.414 23.86 148.954 23.86C148.494 23.86 148.08 23.94 147.714 24.1C147.347 24.2533 147.05 24.4633 146.824 24.73C146.604 24.99 146.47 25.2733 146.424 25.58H144.824C144.904 25 145.13 24.48 145.504 24.02C145.884 23.5533 146.374 23.1867 146.974 22.92C147.574 22.6533 148.237 22.52 148.964 22.52ZM146.264 30.2C146.264 30.5467 146.354 30.8533 146.534 31.12C146.72 31.3867 146.977 31.5967 147.304 31.75C147.63 31.8967 148.004 31.97 148.424 31.97C148.997 31.97 149.497 31.8533 149.924 31.62C150.357 31.3867 150.69 31.06 150.924 30.64C151.157 30.2133 151.274 29.7233 151.274 29.17V28L148.044 28.36C147.51 28.42 147.08 28.62 146.754 28.96C146.427 29.3 146.264 29.7133 146.264 30.2ZM159.347 33C158.86 33 158.417 32.8967 158.017 32.69C157.623 32.4767 157.313 32.1867 157.087 31.82C156.86 31.4467 156.747 31.0333 156.747 30.58L156.737 24.18H154.937L154.947 22.76H156.057C156.31 22.76 156.513 22.68 156.667 22.52C156.827 22.36 156.907 22.1567 156.907 21.91V20.26H158.347V22.76H160.817L160.807 24.18H158.337L158.347 30.48C158.347 30.7933 158.45 31.0567 158.657 31.27C158.87 31.4767 159.133 31.58 159.447 31.58H160.807V33H159.347ZM163.596 22.76H165.196V33H163.596V22.76ZM165.336 19V20.9H163.456V19H165.336ZM172.073 33.24C171.3 33.24 170.6 33.1167 169.973 32.87C169.353 32.6233 168.857 32.28 168.483 31.84C168.117 31.3933 167.92 30.89 167.893 30.33H169.523C169.55 30.6367 169.677 30.9133 169.903 31.16C170.13 31.4 170.43 31.59 170.803 31.73C171.177 31.87 171.593 31.94 172.053 31.94C172.52 31.94 172.93 31.8633 173.283 31.71C173.643 31.5567 173.92 31.3433 174.113 31.07C174.313 30.7967 174.413 30.4867 174.413 30.14C174.413 29.7667 174.307 29.4533 174.093 29.2C173.887 28.94 173.597 28.7767 173.223 28.71L170.753 28.26C169.967 28.1133 169.353 27.7967 168.913 27.31C168.473 26.8167 168.253 26.1933 168.253 25.44C168.253 24.9 168.407 24.41 168.713 23.97C169.027 23.5233 169.463 23.17 170.023 22.91C170.583 22.65 171.223 22.52 171.943 22.52C172.657 22.52 173.3 22.6367 173.873 22.87C174.447 23.1033 174.903 23.4267 175.243 23.84C175.583 24.2533 175.767 24.7133 175.793 25.22H174.163C174.143 24.9533 174.033 24.7133 173.833 24.5C173.64 24.2867 173.38 24.12 173.053 24C172.727 23.88 172.36 23.82 171.953 23.82C171.54 23.82 171.173 23.89 170.853 24.03C170.533 24.17 170.283 24.3633 170.103 24.61C169.93 24.85 169.843 25.1233 169.843 25.43C169.843 25.7767 169.94 26.0633 170.133 26.29C170.327 26.5167 170.61 26.6633 170.983 26.73L173.513 27.18C174.033 27.2733 174.48 27.4567 174.853 27.73C175.233 28.0033 175.52 28.3433 175.713 28.75C175.913 29.1567 176.013 29.6 176.013 30.08C176.013 30.68 175.84 31.22 175.493 31.7C175.153 32.18 174.683 32.5567 174.083 32.83C173.483 33.1033 172.813 33.24 172.073 33.24ZM182.003 33C181.516 33 181.073 32.8967 180.673 32.69C180.28 32.4767 179.97 32.1867 179.743 31.82C179.516 31.4467 179.403 31.0333 179.403 30.58L179.393 24.18H177.593L177.603 22.76H178.713C178.966 22.76 179.17 22.68 179.323 22.52C179.483 22.36 179.563 22.1567 179.563 21.91V20.26H181.003V22.76H183.473L183.463 24.18H180.993L181.003 30.48C181.003 30.7933 181.106 31.0567 181.313 31.27C181.526 31.4767 181.79 31.58 182.103 31.58H183.463V33H182.003ZM186.252 22.76H187.852V33H186.252V22.76ZM187.992 19V20.9H186.112V19H187.992ZM195.6 33.24C194.633 33.24 193.76 33.0067 192.98 32.54C192.2 32.0733 191.586 31.4333 191.14 30.62C190.7 29.8 190.48 28.8867 190.48 27.88C190.48 26.8733 190.7 25.9633 191.14 25.15C191.586 24.33 192.2 23.6867 192.98 23.22C193.76 22.7533 194.633 22.52 195.6 22.52C196.84 22.52 197.88 22.8367 198.72 23.47C199.56 24.0967 200.096 25.0067 200.33 26.2H198.73C198.516 25.4667 198.123 24.9133 197.55 24.54C196.983 24.16 196.333 23.97 195.6 23.97C194.94 23.97 194.346 24.1367 193.82 24.47C193.3 24.8033 192.893 25.2667 192.6 25.86C192.306 26.4533 192.16 27.1267 192.16 27.88C192.16 28.6267 192.306 29.2967 192.6 29.89C192.893 30.4833 193.3 30.95 193.82 31.29C194.346 31.6233 194.94 31.79 195.6 31.79C196.333 31.79 196.983 31.6033 197.55 31.23C198.123 30.85 198.516 30.2933 198.73 29.56H200.33C200.176 30.3333 199.876 30.9967 199.43 31.55C198.983 32.1033 198.43 32.5233 197.77 32.81C197.11 33.0967 196.386 33.24 195.6 33.24ZM206.312 33.24C205.538 33.24 204.838 33.1167 204.212 32.87C203.592 32.6233 203.095 32.28 202.722 31.84C202.355 31.3933 202.158 30.89 202.132 30.33H203.762C203.788 30.6367 203.915 30.9133 204.142 31.16C204.368 31.4 204.668 31.59 205.042 31.73C205.415 31.87 205.832 31.94 206.292 31.94C206.758 31.94 207.168 31.8633 207.522 31.71C207.882 31.5567 208.158 31.3433 208.352 31.07C208.552 30.7967 208.652 30.4867 208.652 30.14C208.652 29.7667 208.545 29.4533 208.332 29.2C208.125 28.94 207.835 28.7767 207.462 28.71L204.992 28.26C204.205 28.1133 203.592 27.7967 203.152 27.31C202.712 26.8167 202.492 26.1933 202.492 25.44C202.492 24.9 202.645 24.41 202.952 23.97C203.265 23.5233 203.702 23.17 204.262 22.91C204.822 22.65 205.462 22.52 206.182 22.52C206.895 22.52 207.538 22.6367 208.112 22.87C208.685 23.1033 209.142 23.4267 209.482 23.84C209.822 24.2533 210.005 24.7133 210.032 25.22H208.402C208.382 24.9533 208.272 24.7133 208.072 24.5C207.878 24.2867 207.618 24.12 207.292 24C206.965 23.88 206.598 23.82 206.192 23.82C205.778 23.82 205.412 23.89 205.092 24.03C204.772 24.17 204.522 24.3633 204.342 24.61C204.168 24.85 204.082 25.1233 204.082 25.43C204.082 25.7767 204.178 26.0633 204.372 26.29C204.565 26.5167 204.848 26.6633 205.222 26.73L207.752 27.18C208.272 27.2733 208.718 27.4567 209.092 27.73C209.472 28.0033 209.758 28.3433 209.952 28.75C210.152 29.1567 210.252 29.6 210.252 30.08C210.252 30.68 210.078 31.22 209.732 31.7C209.392 32.18 208.922 32.5567 208.322 32.83C207.722 33.1033 207.052 33.24 206.312 33.24Z" fill="#19191C"/>
<rect x="0.5" y="0.5" width="239" height="51" rx="25.5" stroke="#19191C" stroke-opacity="0.3"/>
</g>
<defs>
<filter id="filter0_b_44_6227" x="-8" y="-8" width="256" height="68" filterUnits="userSpaceOnUse" color-interpolation-filters="sRGB">
<feFlood flood-opacity="0" result="BackgroundImageFix"/>
<feGaussianBlur in="BackgroundImageFix" stdDeviation="4"/>
<feComposite in2="SourceAlpha" operator="in" result="effect1_backgroundBlur_44_6227"/>
<feBlend mode="normal" in="SourceGraphic" in2="effect1_backgroundBlur_44_6227" result="shape"/>
</filter>
</defs>
</svg>
