<svg width="298" height="352" viewBox="0 0 298 352" fill="none" xmlns="http://www.w3.org/2000/svg">
<path d="M186.561 1.50683L15.8176 49.9664C6.93504 52.5325 1.80287 61.7111 4.27026 70.5937C4.27026 70.5937 83.3254 345.461 85.7928 347.534C89.938 350.988 95.5637 352.37 101.091 350.791L271.834 302.331C280.717 299.765 285.849 290.586 283.381 281.704L207.188 13.0542C204.721 4.17161 195.444 -0.960562 186.561 1.50683Z" fill="#4A3DF4"/>
<path d="M268.281 294.731L93.9845 344.277C88.8523 345.757 83.4241 342.697 81.9436 337.565L5.45456 67.929C3.97413 62.6981 6.93499 57.3686 12.1659 55.8881L186.462 6.44165C191.594 4.96122 197.023 8.02078 198.503 13.153L274.992 282.789C276.473 287.921 273.413 293.35 268.281 294.731Z" fill="black"/>
<path d="M185.377 9.5997C189.324 8.51405 193.47 10.784 194.555 14.7319L270.847 283.48C271.933 287.428 269.663 291.573 265.715 292.659L94.9714 341.118C91.0236 342.204 86.8783 339.934 85.7927 335.986L9.5997 67.2379C8.51405 63.2901 10.784 59.1449 14.7319 58.0592L185.377 9.5997ZM182.909 0.618401L12.1658 49.0779C3.28318 51.644 -1.84899 60.8227 0.618401 69.7053L76.9101 338.453C79.4762 347.336 88.6549 352.468 97.5375 350.001L268.281 301.541C277.163 298.975 282.296 289.796 279.828 280.914L203.537 12.1658C200.97 3.28318 191.792 -1.84899 182.909 0.618401Z" fill="#6B57FF"/>
<path d="M185.376 9.60024C188.436 8.71198 191.989 9.99502 193.666 12.6598C194.555 14.0415 194.851 15.6207 195.246 17.1011C199.292 31.0172 208.076 61.9089 212.221 76.2197C229.394 136.227 252.193 216.664 268.872 276.473L270.155 281.013C270.55 282.494 271.142 284.073 271.142 285.652C271.044 288.81 268.774 291.87 265.714 292.659C268.774 291.771 271.044 288.81 271.044 285.652C271.044 284.073 270.452 282.592 270.057 281.013L268.774 276.473C251.601 216.861 228.703 136.227 211.826 76.2197C207.78 61.9089 199.095 31.1159 195.147 17.0024C194.653 15.522 194.456 13.9428 193.568 12.5611C191.989 9.99502 188.436 8.71198 185.376 9.60024Z" fill="#A099FF"/>
<path d="M265.715 292.659C211.531 308.45 149.55 326.018 95.169 341.118C91.3199 342.303 86.7799 339.835 85.793 335.986C86.8786 339.835 91.3199 342.303 95.0704 341.02C149.353 325.327 211.334 307.759 265.715 292.659Z" fill="#A099FF"/>
<path d="M280.8 15H100.9C91.6 15 84 22.6 84 31.9V315.1C84 324.5 91.6 332 100.9 332H280.7C290.1 332 297.6 324.4 297.6 315.1V31.9C297.7 22.6 290.1 15 280.8 15Z" fill="#4A3DF4"/>
<path d="M280.1 325.4H96.5002C91.1002 325.4 86.7002 321 86.7002 315.6V31.5C86.7002 26.1 91.1002 21.7 96.5002 21.7H280.2C285.6 21.7 290 26.1 290 31.5V315.6C290 321 285.6 325.4 280.1 325.4Z" fill="black"/>
<path d="M278.2 24.4C282.4 24.4 285.7 27.8 285.7 31.9V315.1C285.7 319.3 282.3 322.6 278.2 322.6H98.4C94.2 322.6 90.9 319.2 90.9 315.1V31.9C90.9 27.7 94.3 24.4 98.4 24.4H278.2ZM278.2 15H98.4C89 15 81.5 22.6 81.5 31.9V315.1C81.5 324.5 89.1 332 98.4 332H278.2C287.6 332 295.1 324.4 295.1 315.1V31.9C295.2 22.6 287.6 15 278.2 15Z" fill="#6B57FF"/>
<path d="M269.3 15H89.5001C80.1001 15 72.6001 22.6 72.6001 31.9V315.1C72.6001 324.5 80.2001 332 89.5001 332H269.3C278.7 332 286.2 324.4 286.2 315.1V31.9C286.3 22.6 278.7 15 269.3 15Z" fill="#4A3DF4"/>
<path d="M268.7 325.4H85.0998C79.6998 325.4 75.2998 321 75.2998 315.6V31.5C75.2998 26.1 79.6998 21.7 85.0998 21.7H268.8C274.2 21.7 278.6 26.1 278.6 31.5V315.6C278.6 321 274.2 325.4 268.7 325.4Z" fill="black"/>
<path d="M266.8 24.4C271 24.4 274.3 27.8 274.3 31.9V315.1C274.3 319.3 270.9 322.6 266.8 322.6H87C82.8 322.6 79.5 319.2 79.5 315.1V31.9C79.5 27.7 82.9 24.4 87 24.4H266.8ZM266.8 15H87C77.6 15 70 22.6 70 31.9V315.1C70 324.5 77.6 332 86.9 332H266.7C276.1 332 283.6 324.4 283.6 315.1V31.9C283.7 22.6 276.2 15 266.8 15Z" fill="#6B57FF"/>
<path d="M257.3 15H77.5C68.1 15 60.5 22.6 60.5 31.9V315.1C60.5 324.5 68.1 332 77.4 332H257.2C266.6 332 274.1 324.4 274.1 315.1V31.9C274.2 22.6 266.7 15 257.3 15Z" fill="#4A3DF4"/>
<path d="M256.7 325.4H73.0002C67.6002 325.4 63.2002 321 63.2002 315.6V31.5C63.2002 26.1 67.6002 21.7 73.0002 21.7H256.7C262.1 21.7 266.5 26.1 266.5 31.5V315.6C266.5 321 262.1 325.4 256.7 325.4Z" fill="black"/>
<path d="M254.8 24.4C259 24.4 262.3 27.8 262.3 31.9V315.1C262.3 319.3 258.9 322.6 254.8 322.6H74.9C70.7 322.6 67.4 319.2 67.4 315.1V31.9C67.4 27.7 70.8 24.4 74.9 24.4H254.8ZM254.8 15H74.9C65.6 15 58 22.6 58 31.9V315.1C58 324.5 65.6 332 74.9 332H254.7C264.1 332 271.6 324.4 271.6 315.1V31.9C271.7 22.6 264.1 15 254.8 15Z" fill="#6B57FF"/>
<path d="M257.3 15H77.5C68.1 15 60.5 22.6 60.5 31.9V315.1C60.5 324.5 68.1 332 77.4 332H257.2C266.6 332 274.1 324.4 274.1 315.1V31.9C274.2 22.6 266.7 15 257.3 15Z" fill="#4A3DF4"/>
<path d="M256.7 325.4H73.0002C67.6002 325.4 63.2002 321 63.2002 315.6V31.5C63.2002 26.1 67.6002 21.7 73.0002 21.7H256.7C262.1 21.7 266.5 26.1 266.5 31.5V315.6C266.5 321 262.1 325.4 256.7 325.4Z" fill="black"/>
<path d="M254.8 24.4C259 24.4 262.3 27.8 262.3 31.9V315.1C262.3 319.3 258.9 322.6 254.8 322.6H74.9C70.7 322.6 67.4 319.2 67.4 315.1V31.9C67.4 27.7 70.8 24.4 74.9 24.4H254.8ZM254.8 15H74.9C65.6 15 58 22.6 58 31.9V315.1C58 324.5 65.6 332 74.9 332H254.7C264.1 332 271.6 324.4 271.6 315.1V31.9C271.7 22.6 264.1 15 254.8 15Z" fill="#6B57FF"/>
</svg>
