<?xml version="1.0" encoding="utf-8"?>
<!-- Generator: Adobe Illustrator 26.3.1, SVG Export Plug-In . SVG Version: 6.00 Build 0)  -->
<svg version="1.1" id="Layer_1" xmlns="http://www.w3.org/2000/svg" xmlns:xlink="http://www.w3.org/1999/xlink" x="0px" y="0px"
	 viewBox="0 0 239.7 317" style="enable-background:new 0 0 239.7 317;" xml:space="preserve">
<style type="text/css">
	.st0{fill:#4A3DF4;}
	.st1{fill:#6B57FF;}
</style>
<g>
	<g>
		<g>
			<g>
				<path class="st0" d="M222.8,0H42.9C33.6,0,26,7.6,26,16.9v283.2c0,9.4,7.6,16.9,16.9,16.9h179.8c9.4,0,16.9-7.6,16.9-16.9V16.9
					C239.7,7.6,232.1,0,222.8,0L222.8,0z"/>
				<g>
					<g>
						<g>
							<path id="SVGID_00000124155861653676363780000005991466231077741228_" d="M222.1,310.4H38.5c-5.4,0-9.8-4.4-9.8-9.8V16.5
								c0-5.4,4.4-9.8,9.8-9.8h183.7c5.4,0,9.8,4.4,9.8,9.8v284.1C232,306,227.6,310.4,222.1,310.4z"/>
						</g>
						<g>
							<defs>
								<path id="SVGID_1_" d="M222.1,310.4H38.5c-5.4,0-9.8-4.4-9.8-9.8V16.5c0-5.4,4.4-9.8,9.8-9.8h183.7c5.4,0,9.8,4.4,9.8,9.8
									v284.1C232,306,227.6,310.4,222.1,310.4z"/>
							</defs>
							<clipPath id="SVGID_00000083775133091038518860000011668055460664686995_">
								<use xlink:href="#SVGID_1_"  style="overflow:visible;"/>
							</clipPath>
						</g>
					</g>
					<path class="st1" d="M220.2,9.4c4.2,0,7.5,3.4,7.5,7.5v283.2c0,4.2-3.4,7.5-7.5,7.5H40.4c-4.2,0-7.5-3.4-7.5-7.5V16.9
						c0-4.2,3.4-7.5,7.5-7.5H220.2 M220.2,0H40.4C31,0,23.5,7.6,23.5,16.9v283.2c0,9.4,7.6,16.9,16.9,16.9h179.8
						c9.4,0,16.9-7.6,16.9-16.9V16.9C237.2,7.6,229.6,0,220.2,0L220.2,0z"/>
				</g>
			</g>
			<g>
				<path class="st0" d="M211.3,0H31.5c-9.4,0-16.9,7.6-16.9,16.9v283.2c0,9.4,7.6,16.9,16.9,16.9h179.8c9.4,0,16.9-7.6,16.9-16.9
					V16.9C228.3,7.6,220.7,0,211.3,0L211.3,0z"/>
				<g>
					<g>
						<g>
							<path id="SVGID_00000132807405929678419530000002346117107678078630_" d="M210.7,310.4H27.1c-5.4,0-9.8-4.4-9.8-9.8V16.5
								c0-5.4,4.4-9.8,9.8-9.8h183.7c5.4,0,9.8,4.4,9.8,9.8v284.1C220.6,306,216.2,310.4,210.7,310.4z"/>
						</g>
						<g>
							<defs>
								<path id="SVGID_00000160184987206574849730000000636589218971445131_" d="M210.7,310.4H27.1c-5.4,0-9.8-4.4-9.8-9.8V16.5
									c0-5.4,4.4-9.8,9.8-9.8h183.7c5.4,0,9.8,4.4,9.8,9.8v284.1C220.6,306,216.2,310.4,210.7,310.4z"/>
							</defs>
							<clipPath id="SVGID_00000175284461843762038900000002072644667740040111_">
								<use xlink:href="#SVGID_00000160184987206574849730000000636589218971445131_"  style="overflow:visible;"/>
							</clipPath>
						</g>
					</g>
					<path class="st1" d="M208.8,9.4c4.2,0,7.5,3.4,7.5,7.5v283.2c0,4.2-3.4,7.5-7.5,7.5H29c-4.2,0-7.5-3.4-7.5-7.5V16.9
						c0-4.2,3.4-7.5,7.5-7.5H208.8 M208.8,0H29c-9.4,0-17,7.6-17,16.9v283.2c0,9.4,7.6,16.9,16.9,16.9h179.8
						c9.4,0,16.9-7.6,16.9-16.9V16.9C225.7,7.6,218.2,0,208.8,0L208.8,0z"/>
				</g>
			</g>
			<g>
				<path class="st0" d="M199.3,0H19.5c-9.4,0-17,7.6-17,16.9v283.2c0,9.4,7.6,16.9,16.9,16.9h179.8c9.4,0,16.9-7.6,16.9-16.9V16.9
					C216.2,7.6,208.7,0,199.3,0L199.3,0z"/>
				<g>
					<g>
						<g>
							<path id="SVGID_00000090287858684198179540000004003600827512028606_" d="M198.7,310.4H15c-5.4,0-9.8-4.4-9.8-9.8V16.5
								c0-5.4,4.4-9.8,9.8-9.8h183.7c5.4,0,9.8,4.4,9.8,9.8v284.1C208.5,306,204.1,310.4,198.7,310.4z"/>
						</g>
						<g>
							<defs>
								<path id="SVGID_00000137124658173244005250000001570471980176902584_" d="M198.7,310.4H15c-5.4,0-9.8-4.4-9.8-9.8V16.5
									c0-5.4,4.4-9.8,9.8-9.8h183.7c5.4,0,9.8,4.4,9.8,9.8v284.1C208.5,306,204.1,310.4,198.7,310.4z"/>
							</defs>
							<clipPath id="SVGID_00000183211250121359006780000012095155157455130271_">
								<use xlink:href="#SVGID_00000137124658173244005250000001570471980176902584_"  style="overflow:visible;"/>
							</clipPath>
						</g>
					</g>
					<path class="st1" d="M196.8,9.4c4.2,0,7.5,3.4,7.5,7.5v283.2c0,4.2-3.4,7.5-7.5,7.5H16.9c-4.2,0-7.5-3.4-7.5-7.5V16.9
						c0-4.2,3.4-7.5,7.5-7.5H196.8 M196.8,0H16.9C7.6,0,0,7.6,0,16.9v283.2c0,9.4,7.6,16.9,16.9,16.9h179.8
						c9.4,0,16.9-7.6,16.9-16.9V16.9C213.7,7.6,206.1,0,196.8,0L196.8,0z"/>
				</g>
			</g>
		</g>
	</g>
	<g>
		<g>
			<path class="st0" d="M199.3,0H19.5c-9.4,0-17,7.6-17,16.9v283.2c0,9.4,7.6,16.9,16.9,16.9h179.8c9.4,0,16.9-7.6,16.9-16.9V16.9
				C216.2,7.6,208.7,0,199.3,0L199.3,0z"/>
			<g>
				<g>
					<g>
						<path id="SVGID_00000042700269133867122730000014673477397216200357_" d="M198.7,310.4H15c-5.4,0-9.8-4.4-9.8-9.8V16.5
							c0-5.4,4.4-9.8,9.8-9.8h183.7c5.4,0,9.8,4.4,9.8,9.8v284.1C208.5,306,204.1,310.4,198.7,310.4z"/>
					</g>
					<g>
						<defs>
							<path id="SVGID_00000166673330112290663060000008801000335974621624_" d="M198.7,310.4H15c-5.4,0-9.8-4.4-9.8-9.8V16.5
								c0-5.4,4.4-9.8,9.8-9.8h183.7c5.4,0,9.8,4.4,9.8,9.8v284.1C208.5,306,204.1,310.4,198.7,310.4z"/>
						</defs>
						<clipPath id="SVGID_00000158008810890468866730000014557520079315367309_">
							<use xlink:href="#SVGID_00000166673330112290663060000008801000335974621624_"  style="overflow:visible;"/>
						</clipPath>
					</g>
				</g>
				<path class="st1" d="M196.8,9.4c4.2,0,7.5,3.4,7.5,7.5v283.2c0,4.2-3.4,7.5-7.5,7.5H16.9c-4.2,0-7.5-3.4-7.5-7.5V16.9
					c0-4.2,3.4-7.5,7.5-7.5H196.8 M196.8,0H16.9C7.6,0,0,7.6,0,16.9v283.2c0,9.4,7.6,16.9,16.9,16.9h179.8c9.4,0,16.9-7.6,16.9-16.9
					V16.9C213.7,7.6,206.1,0,196.8,0L196.8,0z"/>
			</g>
		</g>
	</g>
</g>
</svg>
