<svg width="240" height="52" viewBox="0 0 240 52" fill="none" xmlns="http://www.w3.org/2000/svg">
<g filter="url(#filter0_b_44_6243)">
<path d="M65.0895 19H74.0695V20.56H66.7495V25.39H73.6695V26.95H66.7495V33H65.0895V19ZM76.7988 22.76H78.3988V33H76.7988V22.76ZM78.5388 19V20.9H76.6588V19H78.5388ZM81.8965 22.76H83.4365V24.42C83.7832 23.8067 84.2432 23.3367 84.8165 23.01C85.3965 22.6833 86.0665 22.52 86.8265 22.52C87.5598 22.52 88.2098 22.6767 88.7765 22.99C89.3432 23.3033 89.7865 23.7667 90.1065 24.38C90.4332 24.9867 90.5965 25.7167 90.5965 26.57V33H88.9965V26.73C88.9965 25.8433 88.7665 25.1533 88.3065 24.66C87.8465 24.1667 87.2132 23.92 86.4065 23.92C85.8332 23.92 85.3265 24.0467 84.8865 24.3C84.4465 24.5533 84.1032 24.91 83.8565 25.37C83.6165 25.8233 83.4965 26.3433 83.4965 26.93V33H81.8965V22.76ZM93.791 22.76H95.391V33H93.791V22.76ZM95.531 19V20.9H93.651V19H95.531ZM102.269 33.24C101.495 33.24 100.795 33.1167 100.169 32.87C99.5487 32.6233 99.052 32.28 98.6787 31.84C98.312 31.3933 98.1153 30.89 98.0887 30.33H99.7187C99.7453 30.6367 99.872 30.9133 100.099 31.16C100.325 31.4 100.625 31.59 100.999 31.73C101.372 31.87 101.789 31.94 102.249 31.94C102.715 31.94 103.125 31.8633 103.479 31.71C103.839 31.5567 104.115 31.3433 104.309 31.07C104.509 30.7967 104.609 30.4867 104.609 30.14C104.609 29.7667 104.502 29.4533 104.289 29.2C104.082 28.94 103.792 28.7767 103.419 28.71L100.949 28.26C100.162 28.1133 99.5487 27.7967 99.1087 27.31C98.6687 26.8167 98.4487 26.1933 98.4487 25.44C98.4487 24.9 98.602 24.41 98.9087 23.97C99.222 23.5233 99.6587 23.17 100.219 22.91C100.779 22.65 101.419 22.52 102.139 22.52C102.852 22.52 103.495 22.6367 104.069 22.87C104.642 23.1033 105.099 23.4267 105.439 23.84C105.779 24.2533 105.962 24.7133 105.989 25.22H104.359C104.339 24.9533 104.229 24.7133 104.029 24.5C103.835 24.2867 103.575 24.12 103.249 24C102.922 23.88 102.555 23.82 102.149 23.82C101.735 23.82 101.369 23.89 101.049 24.03C100.729 24.17 100.479 24.3633 100.299 24.61C100.125 24.85 100.039 25.1233 100.039 25.43C100.039 25.7767 100.135 26.0633 100.329 26.29C100.522 26.5167 100.805 26.6633 101.179 26.73L103.709 27.18C104.229 27.2733 104.675 27.4567 105.049 27.73C105.429 28.0033 105.715 28.3433 105.909 28.75C106.109 29.1567 106.209 29.6 106.209 30.08C106.209 30.68 106.035 31.22 105.689 31.7C105.349 32.18 104.879 32.5567 104.279 32.83C103.679 33.1033 103.009 33.24 102.269 33.24ZM108.908 19H110.448V24.42C110.795 23.8067 111.255 23.3367 111.828 23.01C112.408 22.6833 113.078 22.52 113.838 22.52C114.572 22.52 115.222 22.6767 115.788 22.99C116.355 23.3033 116.798 23.7667 117.118 24.38C117.445 24.9867 117.608 25.7167 117.608 26.57V33H116.008V26.73C116.008 25.8433 115.778 25.1533 115.318 24.66C114.858 24.1667 114.225 23.92 113.418 23.92C112.845 23.92 112.338 24.0467 111.898 24.3C111.458 24.5533 111.115 24.91 110.868 25.37C110.628 25.8233 110.508 26.3433 110.508 26.93V33H108.908V19ZM129.854 36.44C129.107 36.44 128.417 36.3233 127.784 36.09C127.151 35.8567 126.624 35.5267 126.204 35.1C125.784 34.6733 125.514 34.18 125.394 33.62H126.994C127.207 34.08 127.571 34.43 128.084 34.67C128.604 34.9167 129.177 35.04 129.804 35.04C130.457 35.04 131.027 34.9067 131.514 34.64C132.007 34.38 132.387 34.0133 132.654 33.54C132.921 33.0667 133.054 32.52 133.054 31.9V31.48L133.084 30.45C132.684 31.0167 132.174 31.4567 131.554 31.77C130.941 32.0833 130.264 32.24 129.524 32.24C128.657 32.24 127.874 32.0333 127.174 31.62C126.474 31.2 125.924 30.6233 125.524 29.89C125.124 29.15 124.924 28.3167 124.924 27.39C124.924 26.4633 125.124 25.63 125.524 24.89C125.924 24.15 126.474 23.57 127.174 23.15C127.874 22.73 128.657 22.52 129.524 22.52C130.277 22.52 130.967 22.6867 131.594 23.02C132.221 23.3467 132.734 23.8067 133.134 24.4V22.76H134.684L134.654 31.9C134.654 32.7867 134.454 33.5733 134.054 34.26C133.654 34.9533 133.091 35.49 132.364 35.87C131.637 36.25 130.801 36.44 129.854 36.44ZM126.604 27.39C126.604 28.0367 126.741 28.6233 127.014 29.15C127.294 29.6767 127.681 30.09 128.174 30.39C128.667 30.69 129.221 30.84 129.834 30.84C130.441 30.84 130.987 30.69 131.474 30.39C131.967 30.09 132.357 29.6767 132.644 29.15C132.931 28.6233 133.074 28.0367 133.074 27.39C133.074 26.7367 132.931 26.1467 132.644 25.62C132.357 25.0933 131.967 24.68 131.474 24.38C130.987 24.0733 130.441 23.92 129.834 23.92C129.221 23.92 128.667 24.0733 128.174 24.38C127.681 24.68 127.294 25.0933 127.014 25.62C126.741 26.1467 126.604 26.7367 126.604 27.39ZM141.776 22.52C142.549 22.52 143.229 22.6633 143.816 22.95C144.403 23.23 144.856 23.6433 145.176 24.19C145.503 24.73 145.666 25.3733 145.666 26.12V33H144.106V31.33C143.819 31.95 143.399 32.4233 142.846 32.75C142.293 33.0767 141.636 33.24 140.876 33.24C140.223 33.24 139.633 33.1133 139.106 32.86C138.579 32.6067 138.166 32.2567 137.866 31.81C137.566 31.3633 137.416 30.8567 137.416 30.29C137.416 29.7567 137.553 29.2667 137.826 28.82C138.106 28.3667 138.489 27.9967 138.976 27.71C139.469 27.4233 140.023 27.2467 140.636 27.18L143.366 26.88C143.593 26.8533 143.769 26.76 143.896 26.6C144.023 26.44 144.086 26.2067 144.086 25.9C144.086 25.4933 143.989 25.1367 143.796 24.83C143.603 24.5233 143.329 24.2867 142.976 24.12C142.629 23.9467 142.226 23.86 141.766 23.86C141.306 23.86 140.893 23.94 140.526 24.1C140.159 24.2533 139.863 24.4633 139.636 24.73C139.416 24.99 139.283 25.2733 139.236 25.58H137.636C137.716 25 137.943 24.48 138.316 24.02C138.696 23.5533 139.186 23.1867 139.786 22.92C140.386 22.6533 141.049 22.52 141.776 22.52ZM139.076 30.2C139.076 30.5467 139.166 30.8533 139.346 31.12C139.533 31.3867 139.789 31.5967 140.116 31.75C140.443 31.8967 140.816 31.97 141.236 31.97C141.809 31.97 142.309 31.8533 142.736 31.62C143.169 31.3867 143.503 31.06 143.736 30.64C143.969 30.2133 144.086 29.7233 144.086 29.17V28L140.856 28.36C140.323 28.42 139.893 28.62 139.566 28.96C139.239 29.3 139.076 29.7133 139.076 30.2ZM148.869 22.76H150.409V24.49C150.716 23.8567 151.139 23.37 151.679 23.03C152.226 22.69 152.866 22.52 153.599 22.52C154.366 22.52 155.032 22.7033 155.599 23.07C156.166 23.4367 156.589 23.9533 156.869 24.62C157.196 23.9533 157.652 23.4367 158.239 23.07C158.826 22.7033 159.502 22.52 160.269 22.52C160.996 22.52 161.639 22.6867 162.199 23.02C162.766 23.3467 163.206 23.8133 163.519 24.42C163.832 25.0267 163.989 25.7333 163.989 26.54V33H162.389V26.61C162.389 25.7633 162.176 25.0967 161.749 24.61C161.329 24.1233 160.736 23.88 159.969 23.88C159.422 23.88 158.942 24.0067 158.529 24.26C158.116 24.5067 157.796 24.86 157.569 25.32C157.342 25.7733 157.229 26.31 157.229 26.93V33H155.629V26.61C155.629 25.7633 155.416 25.0967 154.989 24.61C154.569 24.1233 153.976 23.88 153.209 23.88C152.656 23.88 152.172 24.0033 151.759 24.25C151.346 24.4967 151.026 24.85 150.799 25.31C150.579 25.77 150.469 26.31 150.469 26.93V33H148.869V22.76ZM171.349 33.24C170.389 33.24 169.526 33.01 168.759 32.55C167.993 32.09 167.393 31.4533 166.959 30.64C166.533 29.82 166.319 28.8933 166.319 27.86C166.319 26.8533 166.536 25.9433 166.969 25.13C167.409 24.3167 168.013 23.68 168.779 23.22C169.546 22.7533 170.403 22.52 171.349 22.52C172.316 22.52 173.163 22.75 173.889 23.21C174.623 23.67 175.186 24.3067 175.579 25.12C175.979 25.9333 176.179 26.8533 176.179 27.88V28.27H167.949C168.016 28.97 168.206 29.59 168.519 30.13C168.833 30.67 169.243 31.09 169.749 31.39C170.256 31.69 170.823 31.84 171.449 31.84C172.123 31.84 172.716 31.7167 173.229 31.47C173.743 31.2233 174.116 30.8867 174.349 30.46H175.949C175.829 30.8867 175.576 31.3133 175.189 31.74C174.809 32.1667 174.289 32.5233 173.629 32.81C172.976 33.0967 172.216 33.24 171.349 33.24ZM174.519 26.95C174.386 26.0167 174.046 25.28 173.499 24.74C172.959 24.2 172.249 23.93 171.369 23.93C170.776 23.93 170.243 24.0533 169.769 24.3C169.296 24.54 168.906 24.89 168.599 25.35C168.293 25.8033 168.089 26.3367 167.989 26.95H174.519Z" fill="#19191C"/>
<rect x="0.5" y="0.5" width="239" height="51" rx="25.5" stroke="#19191C" stroke-opacity="0.3"/>
</g>
<defs>
<filter id="filter0_b_44_6243" x="-8" y="-8" width="256" height="68" filterUnits="userSpaceOnUse" color-interpolation-filters="sRGB">
<feFlood flood-opacity="0" result="BackgroundImageFix"/>
<feGaussianBlur in="BackgroundImageFix" stdDeviation="4"/>
<feComposite in2="SourceAlpha" operator="in" result="effect1_backgroundBlur_44_6243"/>
<feBlend mode="normal" in="SourceGraphic" in2="effect1_backgroundBlur_44_6243" result="shape"/>
</filter>
</defs>
</svg>
