<svg width="168" height="52" viewBox="0 0 168 52" fill="none" xmlns="http://www.w3.org/2000/svg">
<g filter="url(#filter0_b_13_5309)">
<path d="M34.2164 19H35.9764L43.4964 30.36V19H45.1564V33H43.3764L35.8764 21.64V33H34.2164V19ZM53.2108 33.24C52.2508 33.24 51.3874 33.01 50.6208 32.55C49.8541 32.09 49.2541 31.4533 48.8208 30.64C48.3941 29.82 48.1808 28.8933 48.1808 27.86C48.1808 26.8533 48.3974 25.9433 48.8308 25.13C49.2708 24.3167 49.8741 23.68 50.6408 23.22C51.4074 22.7533 52.2641 22.52 53.2108 22.52C54.1774 22.52 55.0241 22.75 55.7508 23.21C56.4841 23.67 57.0474 24.3067 57.4408 25.12C57.8408 25.9333 58.0408 26.8533 58.0408 27.88V28.27H49.8108C49.8774 28.97 50.0674 29.59 50.3808 30.13C50.6941 30.67 51.1041 31.09 51.6108 31.39C52.1174 31.69 52.6841 31.84 53.3108 31.84C53.9841 31.84 54.5774 31.7167 55.0908 31.47C55.6041 31.2233 55.9774 30.8867 56.2108 30.46H57.8108C57.6908 30.8867 57.4374 31.3133 57.0508 31.74C56.6708 32.1667 56.1508 32.5233 55.4908 32.81C54.8374 33.0967 54.0774 33.24 53.2108 33.24ZM56.3808 26.95C56.2474 26.0167 55.9074 25.28 55.3608 24.74C54.8208 24.2 54.1108 23.93 53.2308 23.93C52.6374 23.93 52.1041 24.0533 51.6308 24.3C51.1574 24.54 50.7674 24.89 50.4608 25.35C50.1541 25.8033 49.9508 26.3367 49.8508 26.95H56.3808ZM59.2066 22.76H60.9266L63.3366 30.12L63.5666 30.99L63.7766 30.12L66.3066 22.76H67.8366L70.4166 30.12L70.6466 30.99L70.8566 30.12L73.2066 22.76H74.8866L71.3766 33H69.7966L67.2666 25.3L67.0766 24.59L66.9066 25.28L64.2766 33H62.7166L59.2066 22.76ZM81.8047 22.76H83.4047V24.46C83.7314 23.88 84.1547 23.4367 84.6747 23.13C85.1947 22.8167 85.7914 22.66 86.4647 22.66H86.8247V24.33H86.4047C85.798 24.33 85.268 24.4467 84.8147 24.68C84.3614 24.9133 84.0114 25.2467 83.7647 25.68C83.5247 26.1067 83.4047 26.61 83.4047 27.19V33H81.8047V22.76ZM93.3031 33.24C92.3298 33.24 91.4431 33.01 90.6431 32.55C89.8498 32.0833 89.2231 31.4433 88.7631 30.63C88.3098 29.81 88.0831 28.8933 88.0831 27.88C88.0831 26.8667 88.3098 25.9533 88.7631 25.14C89.2231 24.32 89.8531 23.68 90.6531 23.22C91.4531 22.7533 92.3398 22.52 93.3131 22.52C94.2865 22.52 95.1698 22.7533 95.9631 23.22C96.7565 23.68 97.3798 24.3167 97.8331 25.13C98.2931 25.9433 98.5231 26.86 98.5231 27.88C98.5231 28.9 98.2931 29.8167 97.8331 30.63C97.3798 31.4433 96.7565 32.0833 95.9631 32.55C95.1698 33.01 94.2831 33.24 93.3031 33.24ZM89.7631 27.88C89.7631 28.6467 89.9165 29.3267 90.2231 29.92C90.5365 30.5067 90.9631 30.9633 91.5031 31.29C92.0498 31.6167 92.6565 31.78 93.3231 31.78C93.9898 31.78 94.5898 31.6167 95.1231 31.29C95.6565 30.9633 96.0765 30.5067 96.3831 29.92C96.6898 29.3267 96.8431 28.6467 96.8431 27.88C96.8431 27.1133 96.6898 26.4333 96.3831 25.84C96.0765 25.2467 95.6531 24.7867 95.1131 24.46C94.5798 24.1333 93.9798 23.97 93.3131 23.97C92.6465 23.97 92.0431 24.1333 91.5031 24.46C90.9631 24.7867 90.5365 25.2467 90.2231 25.84C89.9165 26.4333 89.7631 27.1133 89.7631 27.88ZM109.56 33H108.02V31.34C107.673 31.9533 107.21 32.4233 106.63 32.75C106.057 33.0767 105.39 33.24 104.63 33.24C103.897 33.24 103.247 33.0833 102.68 32.77C102.113 32.4567 101.667 31.9967 101.34 31.39C101.02 30.7767 100.86 30.0433 100.86 29.19V22.76H102.46V29.03C102.46 29.9167 102.69 30.6067 103.15 31.1C103.61 31.5933 104.243 31.84 105.05 31.84C105.623 31.84 106.13 31.7133 106.57 31.46C107.01 31.2067 107.35 30.8533 107.59 30.4C107.837 29.94 107.96 29.4167 107.96 28.83V22.76H109.56V33ZM113.055 22.76H114.595V24.42C114.941 23.8067 115.401 23.3367 115.975 23.01C116.555 22.6833 117.225 22.52 117.985 22.52C118.718 22.52 119.368 22.6767 119.935 22.99C120.501 23.3033 120.945 23.7667 121.265 24.38C121.591 24.9867 121.755 25.7167 121.755 26.57V33H120.155V26.73C120.155 25.8433 119.925 25.1533 119.465 24.66C119.005 24.1667 118.371 23.92 117.565 23.92C116.991 23.92 116.485 24.0467 116.045 24.3C115.605 24.5533 115.261 24.91 115.015 25.37C114.775 25.8233 114.655 26.3433 114.655 26.93V33H113.055V22.76ZM132.729 31.3C132.343 31.92 131.826 32.4 131.179 32.74C130.539 33.0733 129.809 33.24 128.989 33.24C128.036 33.24 127.186 33.0167 126.439 32.57C125.699 32.1167 125.119 31.4833 124.699 30.67C124.286 29.8567 124.079 28.9267 124.079 27.88C124.079 26.8333 124.286 25.9033 124.699 25.09C125.119 24.2767 125.699 23.6467 126.439 23.2C127.186 22.7467 128.036 22.52 128.989 22.52C129.809 22.52 130.539 22.69 131.179 23.03C131.826 23.3633 132.343 23.84 132.729 24.46V19H134.329V33H132.729V31.3ZM125.759 27.88C125.759 28.6467 125.906 29.3267 126.199 29.92C126.493 30.5067 126.903 30.9667 127.429 31.3C127.956 31.6267 128.559 31.79 129.239 31.79C129.866 31.79 130.429 31.6533 130.929 31.38C131.436 31.1 131.843 30.71 132.149 30.21C132.463 29.7033 132.656 29.1167 132.729 28.45V27.31C132.656 26.6433 132.463 26.06 132.149 25.56C131.843 25.0533 131.436 24.6633 130.929 24.39C130.429 24.11 129.866 23.97 129.239 23.97C128.559 23.97 127.956 24.1367 127.429 24.47C126.903 24.7967 126.493 25.2567 126.199 25.85C125.906 26.4367 125.759 27.1133 125.759 27.88Z" fill="#19191C"/>
<rect x="0.5" y="0.5" width="167" height="51" rx="25.5" stroke="#19191C" stroke-opacity="0.3"/>
</g>
<defs>
<filter id="filter0_b_13_5309" x="-8" y="-8" width="184" height="68" filterUnits="userSpaceOnUse" color-interpolation-filters="sRGB">
<feFlood flood-opacity="0" result="BackgroundImageFix"/>
<feGaussianBlur in="BackgroundImageFix" stdDeviation="4"/>
<feComposite in2="SourceAlpha" operator="in" result="effect1_backgroundBlur_13_5309"/>
<feBlend mode="normal" in="SourceGraphic" in2="effect1_backgroundBlur_13_5309" result="shape"/>
</filter>
</defs>
</svg>
